<?xml version="1.0" encoding="UTF-8"?>
<svg width="61px" height="50px" viewBox="0 0 61 50" version="1.1" xmlns="http://www.w3.org/2000/svg" xmlns:xlink="http://www.w3.org/1999/xlink">
    <!-- Generator: Sketch 43.2 (39069) - http://www.bohemiancoding.com/sketch -->
    <title>airport</title>
    <desc>Created with Sketch.</desc>
    <defs></defs>
    <g id="Page-1" stroke="none" stroke-width="1" fill="none" fill-rule="evenodd">
        <g id="Desktop-Landscape" transform="translate(-290.000000, -503.000000)" fill-rule="nonzero" fill="#000000">
            <g id="airport" transform="translate(290.000000, 503.000000)">
                <path d="M59.3241883,0.537662338 C58.6592532,0.122077922 57.9112013,-0.0441558442 56.9969156,0.038961039 C55.4176948,0.288311688 54.0878247,0.87012987 52.8410714,1.78441558 C51.7605519,2.61558442 50.5137987,3.61298701 49.1008117,4.77662338 C48.4358766,5.35844156 47.7709416,5.94025974 47.1060065,6.52207792 C46.6904221,6.93766234 46.2748377,7.27012987 45.8592532,7.68571429 C45.4436688,8.01818182 45.1112013,8.18441558 44.6125,8.1012987 C44.3631494,8.01818182 44.0306818,7.93506494 43.6982143,7.85194805 L28.1553571,2.03376623 C27.6566558,1.86753247 27.1579545,1.7012987 26.5761364,1.53506494 C25.4125,1.2025974 24.5813312,1.53506494 24.0826299,1.95064935 C23.1683442,2.61558442 22.4202922,3.44675325 21.9215909,4.36103896 C21.3397727,5.27532468 21.5060065,6.27272727 22.3371753,7.02077922 C22.6696429,7.35324675 23.0021104,7.6025974 23.251461,7.76883117 C26.0774351,9.76363636 28.986526,11.6753247 31.8125,13.6701299 C32.8930195,14.4181818 33.8904221,15.0831169 34.638474,15.9974026 C34.8047078,16.2467532 34.9709416,16.412987 35.1371753,16.6623377 L29.7345779,21.8155844 C29.1527597,22.3974026 28.5709416,22.8961039 27.9891234,23.4779221 C27.9060065,23.4779221 27.8228896,23.3948052 27.7397727,23.3948052 L26.825487,22.9792208 C26.0774351,22.6467532 25.4125,22.2311688 24.6644481,21.8987013 C23.7501623,21.4831169 22.7527597,21.5662338 22.0047078,22.2311688 C21.5891234,22.5636364 21.173539,22.9792208 20.7579545,23.3948052 C20.0099026,24.1428571 19.9267857,25.0571429 20.5917208,25.8883117 C20.7579545,26.1376623 20.9241883,26.3038961 21.0904221,26.4701299 L22.6696429,28.4649351 C24.4982143,30.8753247 26.4099026,33.2857143 28.3215909,35.612987 C28.5709416,35.9454545 28.8202922,36.1948052 29.1527597,36.361039 C29.4852273,36.5272727 30.1501623,36.9428571 30.9813312,36.6935065 C31.9787338,36.361039 32.7267857,35.6961039 33.0592532,34.6987013 C33.3917208,33.8675325 33.4748377,32.9532468 33.1423701,31.9558442 L32.9761364,31.2077922 C32.8099026,30.5428571 32.6436688,29.8779221 32.4774351,29.212987 C34.7215909,27.4675325 36.9657468,25.8051948 39.1267857,24.0597403 L40.2073052,23.2285714 L40.4566558,23.6441558 C41.038474,24.5584416 41.5371753,25.4727273 41.8696429,26.4701299 L45.6930195,36.2779221 C45.9423701,36.8597403 46.1086039,37.4415584 46.3579545,37.9402597 C46.773539,38.8545455 47.438474,39.3532468 48.2696429,39.3532468 C48.6021104,39.3532468 48.9345779,39.2701299 49.2670455,39.1038961 C49.5163961,39.0207792 49.7657468,38.9376623 49.9319805,38.7714286 C51.2618506,38.1064935 52.0930195,37.1922078 52.425487,35.9454545 C52.6748377,34.9480519 52.5917208,34.0337662 52.5086039,33.3688312 L50.5137987,18.8233766 C50.3475649,17.6597403 50.1813312,16.412987 50.0150974,15.2493506 C49.9319805,14.6675325 50.0982143,14.3350649 50.5137987,14.0025974 L52.2592532,12.5064935 C53.6722403,11.3428571 55.0021104,10.1792208 56.4150974,9.01558442 C57.5787338,8.01818182 58.3267857,7.1038961 58.9917208,6.10649351 C59.4904221,5.35844156 59.9891234,4.44415584 60.238474,3.44675325 C60.6540584,2.36623377 60.238474,1.2025974 59.3241883,0.537662338 Z M58.6592532,3.11428571 C58.4099026,3.94545455 57.9943182,4.69350649 57.5787338,5.35844156 C57.0800325,6.18961039 56.3319805,7.02077922 55.3345779,7.85194805 C54.0047078,9.01558442 52.5917208,10.1792208 51.1787338,11.3428571 L49.5163961,12.7558442 C48.6021104,13.4207792 48.186526,14.4181818 48.3527597,15.5818182 C48.5189935,16.7454545 48.6852273,17.9090909 48.851461,19.1558442 L50.8462662,33.7012987 C50.9293831,34.5324675 50.9293831,35.1142857 50.7631494,35.612987 C50.5137987,36.361039 50.0150974,36.9428571 49.1839286,37.3584416 C49.0176948,37.4415584 48.851461,37.5246753 48.6021104,37.6077922 C48.1034091,37.774026 47.9371753,37.6909091 47.7709416,37.2753247 C47.5215909,36.7766234 47.3553571,36.1948052 47.1060065,35.612987 L43.4488636,25.8051948 C43.0332792,24.7246753 42.451461,23.7272727 41.8696429,22.7298701 L41.3709416,21.8987013 L40.6228896,20.8181818 L38.0462662,22.7298701 C35.7189935,24.4753247 33.3917208,26.3038961 31.1475649,28.0493506 C30.5657468,28.4649351 30.6488636,28.9636364 30.7319805,29.2961039 C30.8982143,30.0441558 31.1475649,30.7922078 31.3137987,31.5402597 L31.4800325,32.2883117 C31.6462662,32.9532468 31.6462662,33.5350649 31.3969156,34.0337662 C31.1475649,34.5324675 30.8150974,34.8649351 30.2332792,35.0311688 C30.2332792,35.0311688 30.0670455,35.0311688 29.8176948,34.8649351 C29.651461,34.7818182 29.4852273,34.6155844 29.4021104,34.4493506 C27.4904221,32.038961 25.6618506,29.7116883 23.8332792,27.3012987 L22.2540584,25.3064935 C22.0878247,25.1402597 22.0047078,24.974026 21.838474,24.7246753 C21.7553571,24.6415584 21.7553571,24.5584416 21.7553571,24.5584416 C21.7553571,24.5584416 21.838474,24.4753247 21.9215909,24.3922078 C22.2540584,24.0597403 22.6696429,23.6441558 23.0021104,23.3948052 C23.251461,23.1454545 23.5839286,23.1454545 23.9163961,23.3116883 C24.6644481,23.6441558 25.3293831,23.9766234 26.0774351,24.3922078 L26.9917208,24.8077922 C27.1579545,24.8909091 27.3241883,24.974026 27.4904221,25.0571429 C27.9060065,25.3064935 28.4047078,25.2233766 28.8202922,24.8909091 C29.4852273,24.225974 30.1501623,23.6441558 30.8150974,22.9792208 L36.5501623,17.5766234 L37.2150974,16.9116883 L36.799513,16.3298701 C36.7163961,16.1636364 36.6332792,16.0805195 36.5501623,15.9142857 C36.3008117,15.5818182 36.1345779,15.2493506 35.8852273,15 C34.9709416,13.9194805 33.8904221,13.0883117 32.7267857,12.3402597 C29.9008117,10.4285714 26.9917208,8.43376623 24.1657468,6.43896104 C23.9163961,6.27272727 23.6670455,6.10649351 23.4176948,5.85714286 C23.1683442,5.60779221 23.1683442,5.52467532 23.3345779,5.35844156 C23.7501623,4.61038961 24.4150974,3.94545455 25.1631494,3.36363636 C25.3293831,3.1974026 25.5787338,3.11428571 26.1605519,3.28051948 C26.7423701,3.44675325 27.2410714,3.61298701 27.6566558,3.77922078 L43.199513,9.5974026 C43.6150974,9.76363636 44.0306818,9.84675325 44.3631494,9.92987013 C45.2774351,10.0961039 46.1917208,9.84675325 46.9397727,9.18181818 C47.3553571,8.76623377 47.7709416,8.43376623 48.186526,8.01818182 C48.851461,7.43636364 49.5163961,6.85454545 50.1813312,6.27272727 C51.5943182,5.10909091 52.7579545,4.11168831 53.838474,3.28051948 C54.8358766,2.53246753 55.999513,2.03376623 57.2462662,1.86753247 C57.6618506,1.78441558 57.9943182,1.86753247 58.3267857,2.03376623 C58.6592532,2.11688312 58.825487,2.61558442 58.6592532,3.11428571 Z" id="Shape"></path>
                <path d="M22.0878247,31.9558442 C21.838474,31.6233766 21.2566558,31.5402597 20.9241883,31.7896104 L0.311201298,47.4987013 C-0.0212662343,47.7480519 -0.104383117,48.3298701 0.144967532,48.6623377 C0.311201298,48.9116883 0.560551948,48.9948052 0.809902597,48.9948052 C0.976136363,48.9948052 1.14237013,48.9116883 1.3086039,48.8285714 L21.9215909,33.1194805 C22.3371753,32.8701299 22.3371753,32.3714286 22.0878247,31.9558442 Z" id="Shape"></path>
                <path d="M24.8306818,35.8623377 C24.4982143,35.5298701 23.999513,35.4467532 23.5839286,35.6961039 L11.0332792,45.3376623 C10.7008117,45.587013 10.6176948,46.1688312 10.8670455,46.5012987 C11.0332792,46.7506494 11.2826299,46.8337662 11.5319805,46.8337662 C11.6982143,46.8337662 11.8644481,46.7506494 12.0306818,46.6675325 L24.6644481,37.025974 C24.9969156,36.7766234 25.0800325,36.1948052 24.8306818,35.8623377 Z" id="Shape"></path>
                <path d="M10.0358766,47.0831169 C9.78652597,46.7506494 9.20470779,46.6675325 8.87224026,46.9168831 L6.79431818,48.4961039 C6.46185065,48.7454545 6.37873377,49.3272727 6.62808442,49.6597403 C6.79431818,49.9090909 7.04366883,49.9922078 7.29301948,49.9922078 C7.45925325,49.9922078 7.62548701,49.9090909 7.79172078,49.825974 L9.86964286,48.2467532 C10.2021104,47.9974026 10.2852273,47.4155844 10.0358766,47.0831169 Z" id="Shape"></path>
                <path d="M7.29301948,37.774026 C7.04366883,37.4415584 6.46185065,37.3584416 6.12938312,37.6077922 L4.05146104,39.187013 C3.71899351,39.4363636 3.63587662,40.0181818 3.88522727,40.3506494 C4.05146104,40.6 4.30081169,40.6831169 4.55016234,40.6831169 C4.7163961,40.6831169 4.88262987,40.6 5.04886364,40.5168831 L7.12678571,38.9376623 C7.45925325,38.6883117 7.54237013,38.1064935 7.29301948,37.774026 Z" id="Shape"></path>
                <path d="M19.3449675,28.7142857 C19.0956169,28.3818182 18.5137987,28.2987013 18.1813312,28.5480519 L8.29042208,36.0285714 C7.95795455,36.2779221 7.87483766,36.8597403 8.12418831,37.1922078 C8.29042208,37.3584416 8.53977273,37.5246753 8.78912338,37.5246753 C8.95535714,37.5246753 9.12159091,37.4415584 9.28782468,37.3584416 L19.1787338,29.8779221 C19.5112013,29.6285714 19.5943182,29.0467532 19.3449675,28.7142857 Z" id="Shape"></path>
            </g>
        </g>
    </g>
</svg>