<?xml version="1.0" encoding="UTF-8"?>
<svg width="50px" height="50px" viewBox="0 0 50 50" version="1.1" xmlns="http://www.w3.org/2000/svg" xmlns:xlink="http://www.w3.org/1999/xlink">
    <!-- Generator: Sketch 43.2 (39069) - http://www.bohemiancoding.com/sketch -->
    <title>barbecue</title>
    <desc>Created with Sketch.</desc>
    <defs></defs>
    <g id="Page-1" stroke="none" stroke-width="1" fill="none" fill-rule="evenodd">
        <g id="Desktop-Landscape" transform="translate(-548.000000, -499.000000)" fill-rule="nonzero" fill="#000000">
            <g id="barbecue" transform="translate(548.059182, 499.000000)">
                <path d="M19.5211749,6.19795082 L19.5648907,6.25806011 C20.0075137,6.82595628 20.314071,7.48770492 20.4610656,8.19248634 C20.4648907,8.63907104 20.3355191,9.07663934 20.0894809,9.44931694 C19.8226776,9.98784153 20.0166667,10.6409836 20.534153,10.9467213 C21.079918,11.2689891 21.7834699,11.0879781 22.1058743,10.5422131 C22.5837432,9.77882514 22.8057377,8.88306011 22.7397541,7.98483607 C22.5702186,6.90177596 22.1367486,5.87704918 21.477459,5.00122951 L21.4337432,4.93565574 C20.4501366,3.48210383 21.6960383,1.84275956 21.6960383,1.84275956 C22.082377,1.34330601 21.9905738,0.625273224 21.4911202,0.238934426 C20.9916667,-0.147404372 20.2736339,-0.0556010929 19.8872951,0.443852459 L19.909153,0.44931694 C19.9036885,0.454781421 17.6577869,3.36734973 19.5211749,6.19795082 Z" id="Shape"></path>
                <path d="M27.6687158,6.19795082 C28.1296448,6.78401639 28.4494536,7.46830601 28.6031421,8.19795082 C28.6069672,8.64453552 28.4775956,9.08210383 28.2315574,9.45478142 C27.9647541,9.99330601 28.1587432,10.6465847 28.6763661,10.9521858 C29.2221311,11.2744536 29.9256831,11.0934426 30.2479508,10.5476776 C30.7258197,9.78428962 30.9478142,8.88852459 30.8818306,7.99030055 C30.7058743,6.88142077 30.2571038,5.83360656 29.5758197,4.94112022 C28.5922131,3.48210383 29.8381148,1.84275956 29.8381148,1.84275956 C30.2244536,1.34330601 30.1326503,0.625273224 29.6331967,0.238934426 C29.1337432,-0.147404372 28.4157104,-0.0556010929 28.0293716,0.443852459 L28.0512295,0.44931694 C28.045765,0.454781421 25.7943989,3.36734973 27.6687158,6.19795082 Z" id="Shape"></path>
                <path d="M11.3845628,6.19795082 C11.845765,6.78387978 12.1654372,7.46830601 12.3189891,8.19795082 C12.3228142,8.64453552 12.1934426,9.08210383 11.9474044,9.45478142 C11.6806011,9.99330601 11.8745902,10.6464481 12.3920765,10.9521858 C12.9378415,11.2744536 13.6413934,11.0934426 13.9637978,10.5476776 C14.4416667,9.78428962 14.6636612,8.88852459 14.5976776,7.99030055 C14.4217213,6.88142077 13.9729508,5.83360656 13.2916667,4.94112022 C12.3080601,3.48210383 13.5539617,1.84275956 13.5539617,1.84275956 C13.9403005,1.34330601 13.8484973,0.625273224 13.3490437,0.238934426 C12.8495902,-0.147404372 12.1315574,-0.0556010929 11.7452186,0.443852459 L11.772541,0.44931694 C11.7670765,0.454781421 9.51571038,3.36734973 11.3845628,6.19795082 Z" id="Shape"></path>
                <path d="M48.0293716,14.3454918 C47.3918033,13.7072404 46.5271858,13.3476776 45.625,13.3454918 L39.7780055,13.3454918 L1.23702186,13.3454918 C0.603278689,13.3454918 0.0894808743,13.8592896 0.0894808743,14.4930328 L0.0894808743,15.4001366 C0.0961748634,20.5136612 2.13920765,25.4139344 5.7670765,29.017623 C6.89221311,30.1434426 8.15122951,31.1270492 9.51571038,31.9465847 L4.97472678,45.2744536 C4.41311475,47.0765027 5.3636612,49.0021858 7.13565574,49.6523224 C8.9715847,50.3259563 11.0060109,49.3836066 11.6796448,47.5476776 L13.1659836,43.1760929 L27.8872951,43.2088798 L29.3627049,47.5422131 C29.3629781,47.5431694 29.363388,47.5441257 29.3636612,47.545082 C29.9919399,49.3969945 32.0025956,50.389071 33.8545082,49.7607923 C35.6922131,49.120082 36.668306,47.1165301 36.0403005,45.2744536 L31.5211749,31.9465847 C35.8127049,29.3687158 38.9445355,25.2346995 40.2643443,20.4056011 L45.6523224,20.4056011 C46.556694,20.4061475 47.4239071,20.0463115 48.0621585,19.4056011 C48.6894809,18.7691257 49.040847,17.9112022 49.0403005,17.017623 L49.0403005,16.7826503 C49.0446721,15.8674863 48.6803279,14.9889344 48.0293716,14.3454918 Z M33.8872951,46.0340164 C33.8879781,46.0362022 33.8887978,46.038388 33.8894809,46.0405738 C34.1088798,46.6927596 33.7580601,47.3993169 33.1058743,47.6187158 C33.1036885,47.6193989 33.1015027,47.6202186 33.0993169,47.6209016 C32.4471311,47.8403005 31.7405738,47.4894809 31.5211749,46.8372951 L29.7889344,41.7280055 C29.6307377,41.2602459 29.1897541,40.9472678 28.6960383,40.9520492 L12.4173497,40.9192623 C11.8963115,40.881694 11.4157104,41.2005464 11.2479508,41.6952186 L9.49385246,46.8372951 C9.27349727,47.4937158 8.56284153,47.8472678 7.90642077,47.6269126 C7.25,47.4065574 6.89644809,46.6959016 7.11680328,46.0394809 L11.5430328,33.0504098 C12.3046448,33.390847 13.0877049,33.6811475 13.8872951,33.9192623 L12.8654372,36.9247268 C12.8243169,37.0461749 12.8039617,37.1737705 12.8051913,37.3020492 C12.8113388,37.9327869 13.3275956,38.439071 13.9583333,38.4329235 L26.9856557,38.4329235 C27.134153,38.4427596 27.2830601,38.4234973 27.4241803,38.3763661 C28.0254098,38.1758197 28.3501366,37.5258197 28.1495902,36.9247268 L27.1168033,33.8919399 C27.9237705,33.6546448 28.7142077,33.3644809 29.4829235,33.0230874 L33.8872951,46.0340164 Z M15.5594262,36.1269126 L16.1441257,34.438388 L16.1441257,34.4165301 C17.211612,34.5911202 18.2919399,34.6752732 19.3736339,34.6678962 L21.6413934,34.6678962 C22.7236339,34.6680328 23.8039617,34.5766393 24.8709016,34.3946721 L25.4610656,36.1269126 L15.5594262,36.1269126 Z M21.6413934,32.3946721 L19.3736339,32.3946721 C10.0938525,32.3662568 2.54221311,24.9189891 2.38456284,15.6405738 L38.6304645,15.6405738 C38.4728142,24.9191257 30.9211749,32.3662568 21.6413934,32.3946721 Z M46.7178962,17.0230874 C46.7178962,17.6266393 46.2285519,18.1159836 45.625,18.1159836 L40.9255464,18.1159836 L40.9255464,15.6405738 L45.625,15.6405738 L45.625,15.6405738 C45.9163934,15.6504098 46.1919399,15.7763661 46.3900273,15.9903005 C46.6027322,16.1987705 46.7211749,16.4848361 46.7178962,16.7826503 L46.7178962,17.0230874 Z" id="Shape"></path>
            </g>
        </g>
    </g>
</svg>