<?xml version="1.0" encoding="UTF-8"?>
<svg width="53px" height="50px" viewBox="0 0 53 50" version="1.1" xmlns="http://www.w3.org/2000/svg" xmlns:xlink="http://www.w3.org/1999/xlink">
    <!-- Generator: Sketch 43.2 (39069) - http://www.bohemiancoding.com/sketch -->
    <title>breakfast</title>
    <desc>Created with Sketch.</desc>
    <defs></defs>
    <g id="Page-1" stroke="none" stroke-width="1" fill="none" fill-rule="evenodd">
        <g id="Desktop-Landscape" transform="translate(-806.000000, -503.000000)" fill-rule="nonzero" fill="#000000">
            <g id="breakfast" transform="translate(806.024088, 503.000000)">
                <path d="M51.2680894,0.334247967 C47.0810976,0.334247967 43.6746951,3.74054878 43.6746951,7.92764228 L43.6746951,7.9554878 C41.7397358,5.79044715 39.4082317,3.97662602 36.835061,2.65 C33.5085366,0.93495935 29.7586382,0.0284552846 25.990752,0.0284552846 C20.9635163,0.0284552846 16.0639228,1.63465447 12.0270325,4.57896341 L12.0270325,4.05447154 L10.4981707,4.05447154 L10.4981707,11.9536585 C10.4981707,14.4265244 8.48638211,16.438313 6.01351626,16.438313 C3.54065041,16.438313 1.52886179,14.4265244 1.52886179,11.9536585 L1.52886179,4.05447154 L0,4.05447154 L0,11.9536585 C0,14.2484756 1.2925813,16.2465447 3.1875,17.2598577 C2.5945122,19.3557927 2.29329268,21.527439 2.29329268,23.7259146 C2.29329268,25.2042683 2.43089431,26.6813008 2.70101626,28.1180894 L2.70101626,46.6590447 C2.70101626,48.4855691 4.1870935,49.9715447 6.01351626,49.9715447 C7.83993902,49.9715447 9.32611789,48.4854675 9.32611789,46.6590447 L9.32611789,40.5730691 C13.7481707,44.9484756 19.7183943,47.4235772 25.990752,47.4235772 C30.7721545,47.4235772 35.3802846,46.0059959 39.3168699,43.3240854 C42.2412602,41.3319106 44.6578252,38.7430894 46.426626,35.732622 L46.426626,47.1688008 C46.426626,48.7144309 47.6840447,49.971748 49.2295732,49.971748 C50.7751016,49.971748 52.0325203,48.7144309 52.0325203,47.1688008 L52.0325203,29.2807927 L52.0325203,27.7519309 L52.0325203,0.334247967 L51.2680894,0.334247967 Z M3.82215447,23.7259146 C3.82215447,21.7129065 4.09166667,19.724187 4.6226626,17.8030488 C4.82764228,17.8517276 5.03668699,17.8898374 5.24908537,17.9168699 L5.24908537,24.3884146 L3.83302846,24.3884146 C3.82652439,24.1676829 3.82215447,23.9469512 3.82215447,23.7259146 Z M7.7972561,46.6589431 C7.7972561,47.642378 6.99705285,48.4425813 6.01361789,48.4425813 C5.03018293,48.4425813 4.22997967,47.642378 4.22997967,46.6589431 L4.22997967,25.9172764 L7.79735772,25.9172764 L7.79735772,46.6589431 L7.7972561,46.6589431 Z M46.426626,32.329878 C42.9530488,40.575 34.9484756,45.8945122 25.990752,45.8945122 C19.5974593,45.8945122 13.540752,43.1445122 9.32611789,38.3420732 L9.32611789,24.3884146 L6.77794715,24.3884146 L6.77794715,17.9168699 C9.73394309,17.539939 12.0270325,15.0103659 12.0270325,11.9535569 L12.0270325,6.50863821 C15.9626016,3.31371951 20.9066057,1.55731707 25.990752,1.55731707 C32.9078252,1.55731707 39.4984756,4.84430894 43.6746951,10.3599593 L43.6746951,29.2807927 L46.426626,29.2807927 L46.426626,32.329878 Z M50.5036585,47.1685976 C50.5036585,47.8711382 49.9322154,48.4426829 49.2295732,48.4426829 C48.5269309,48.4426829 47.9554878,47.8712398 47.9554878,47.1685976 L47.9554878,29.2807927 L50.5035569,29.2807927 L50.5035569,47.1685976 L50.5036585,47.1685976 Z M50.5036585,27.7519309 L46.426626,27.7519309 L45.2035569,27.7519309 L45.2035569,7.92764228 C45.2035569,4.84237805 47.5191057,2.2879065 50.5036585,1.91107724 L50.5036585,27.7519309 Z" id="Shape"></path>
                <rect id="Rectangle-path" x="3.49908537" y="4.05447154" width="1.52886179" height="8.76554878"></rect>
                <rect id="Rectangle-path" x="6.99918699" y="4.05447154" width="1.52886179" height="8.76554878"></rect>
                <path d="M10.9569106,23.7259146 L12.4857724,23.7259146 C12.4857724,16.2791667 18.5441057,10.220935 25.990752,10.220935 L25.990752,8.69207317 C17.7010163,8.69207317 10.9569106,15.4361789 10.9569106,23.7259146 Z" id="Shape"></path>
                <path d="M39.4958333,23.7259146 C39.4958333,31.1726626 33.4375,37.2308943 25.9908537,37.2308943 L25.9908537,38.7597561 C34.2805894,38.7597561 41.0246951,32.0156504 41.0246951,23.7259146 L39.4958333,23.7259146 L39.4958333,23.7259146 Z" id="Shape"></path>
                <path d="M35.1906504,19.0857724 C35.0612805,17.5632114 34.3916667,16.1218496 33.3049797,15.0272358 C32.2181911,13.9324187 30.7815041,13.2525407 29.2599593,13.1128049 C27.4998984,12.9513211 25.785061,13.4846545 24.4344512,14.6154472 C23.6867886,15.2413618 22.9026423,15.6797764 22.1034553,15.9186992 C18.0515244,17.129878 15.2706301,20.9284553 15.3408537,25.1563008 C15.4230691,30.1075203 19.3574187,34.1922764 24.2976626,34.4555894 C24.4723577,34.4648374 24.6460366,34.4695122 24.8195122,34.4695122 C27.252439,34.4694106 29.5462398,33.5568089 31.3260163,31.8693089 C33.2348577,30.0597561 34.2859756,27.6186992 34.2859756,24.9961382 C34.2859756,24.9075203 34.2847561,24.8194106 34.2823171,24.7314024 C34.2570122,23.839939 34.4223577,22.928252 34.7736789,22.0214431 C35.1364837,21.0854675 35.2768293,20.0977642 35.1906504,19.0857724 Z M33.3479675,21.4689024 C32.9226626,22.566565 32.7227642,23.6787602 32.7538618,24.7746951 C32.7559959,24.8482724 32.7569106,24.9219512 32.7569106,24.995935 C32.7571138,27.1948171 31.8753049,29.2417683 30.274187,30.7597561 C28.6752033,32.2759146 26.5816057,33.0461382 24.3791667,32.9288618 C20.2371951,32.7080285 16.9385163,29.2827236 16.8696138,25.1307927 C16.8106707,21.585061 19.1430894,18.399187 22.5413618,17.383435 C23.5408537,17.0846545 24.5080285,16.5477642 25.4159553,15.7876016 C26.3303862,15.0220528 27.4623984,14.613313 28.6457317,14.613313 C28.8030488,14.613313 28.9614837,14.6205285 29.1202236,14.6351626 C31.509248,14.8544715 33.4640244,16.8234756 33.6672764,19.2150407 C33.7332317,19.9934959 33.6259146,20.7517276 33.3479675,21.4689024 Z" id="Shape"></path>
                <path d="M24.8128049,20.1675813 C22.1503049,20.1675813 19.9843496,22.3335366 19.9843496,24.9961382 C19.9843496,27.6587398 22.1503049,29.8246951 24.8128049,29.8246951 C27.4753049,29.8246951 29.6413618,27.6587398 29.6413618,24.9961382 C29.6414634,22.3335366 27.4752033,20.1675813 24.8128049,20.1675813 Z M24.8128049,28.2957317 C22.9933943,28.2957317 21.5132114,26.8155488 21.5132114,24.9960366 C21.5132114,23.1765244 22.9933943,21.6963415 24.8128049,21.6963415 C26.6323171,21.6963415 28.1125,23.1765244 28.1125,24.9960366 C28.1125,26.8155488 26.6323171,28.2957317 24.8128049,28.2957317 Z" id="Shape"></path>
                <g id="Group" transform="translate(46.646341, 7.926829)">
                    <rect id="Rectangle-path" x="0.0860772358" y="0.00081300813" width="1.52886179" height="10.1924797"></rect>
                    <rect id="Rectangle-path" x="0.0860772358" y="11.7221545" width="1.52886179" height="1.52886179"></rect>
                </g>
                <g id="Group" transform="translate(25.914634, 3.048780)">
                    <path d="M0.0761178862,1.56626016 C4.12113821,1.56626016 7.98922764,2.81961382 11.2623984,5.19095528 L12.1594512,3.9527439 C8.62357724,1.39126016 4.44522358,0.037296748 0.0761178862,0.037296748 L0.0761178862,1.56626016 Z" id="Shape"></path>
                    <path d="M13.4081301,4.93221545 L12.4194106,6.09827236 C12.8489837,6.4625 13.267378,6.85030488 13.6631098,7.25071138 L14.7506098,6.17621951 C14.323374,5.74400407 13.8718496,5.32550813 13.4081301,4.93221545 Z" id="Shape"></path>
                </g>
                <rect id="Rectangle-path" x="24.0480691" y="24.2315041" width="1.52886179" height="1.52886179"></rect>
                <g id="Group" transform="translate(11.788618, 37.601626)">
                    <path d="M0.0569105691,1.15416667 C2.96219512,3.88932927 6.5703252,5.71310976 10.4911585,6.42865854 L10.7655488,4.9245935 C7.13546748,4.26219512 3.7949187,2.57347561 1.10497967,0.0409552846 L0.0569105691,1.15416667 Z" id="Shape"></path>
                    <path d="M12.2199187,5.13252033 L12.0618902,6.65325203 C12.7693089,6.72672764 13.4893293,6.76402439 14.2021341,6.76402439 L14.2022358,5.2351626 C13.5420732,5.2351626 12.8751016,5.20060976 12.2199187,5.13252033 Z" id="Shape"></path>
                </g>
            </g>
        </g>
    </g>
</svg>