<?xml version="1.0" encoding="UTF-8"?>
<svg width="50px" height="41px" viewBox="0 0 50 41" version="1.1" xmlns="http://www.w3.org/2000/svg" xmlns:xlink="http://www.w3.org/1999/xlink">
    <!-- Generator: Sketch 43.2 (39069) - http://www.bohemiancoding.com/sketch -->
    <title>desk</title>
    <desc>Created with Sketch.</desc>
    <defs></defs>
    <g id="Page-1" stroke="none" stroke-width="1" fill="none" fill-rule="evenodd">
        <g id="Desktop-Landscape" transform="translate(-214.000000, -599.000000)" fill-rule="nonzero" fill="#000000">
            <g id="desk" transform="translate(214.000000, 599.000000)">
                <path d="M48.7776367,11.1078125 L33.459082,11.1078125 L33.459082,9.50947266 L33.7859375,9.50947266 C34.4599609,9.50947266 35.0083008,8.96113281 35.0083008,8.28710938 L35.0083008,1.24599609 C35.0083008,0.571972656 34.4599609,0.0235351563 33.7859375,0.0235351563 L24.7066406,0.0235351563 C24.3015625,0.0235351563 23.9732422,0.351953125 23.9732422,0.756933594 C23.9732422,1.16191406 24.3016602,1.49033203 24.7066406,1.49033203 L33.5414063,1.49033203 L33.5414063,8.04248047 L32.7256836,8.04248047 L30.1831055,8.04248047 L19.8169922,8.04248047 L17.2744141,8.04248047 L16.4586914,8.04248047 L16.4586914,1.49042969 L20.2082031,1.49042969 C20.6132812,1.49042969 20.9416016,1.16201172 20.9416016,0.75703125 C20.9416016,0.352050781 20.6131836,0.0236328125 20.2082031,0.0236328125 L16.2142578,0.0236328125 C15.5402344,0.0236328125 14.9918945,0.571972656 14.9918945,1.24609375 L14.9918945,8.28720703 C14.9918945,8.96123047 15.5402344,9.50957031 16.2142578,9.50957031 L16.5410156,9.50957031 L16.5410156,11.1079102 L1.22236328,11.1079102 C0.548339844,11.1078125 0,11.6561523 0,12.3301758 L0,14.0305664 C0,14.7045898 0.548339844,15.2530273 1.22236328,15.2530273 L3.55507813,15.2530273 L3.55507813,20.3795898 C3.55507813,21.0536133 4.10341797,21.6019531 4.77744141,21.6019531 L5.95439453,21.6019531 L5.95439453,39.5741211 C5.95439453,40.2481445 6.50273437,40.7964844 7.17675781,40.7964844 L8.89169922,40.7964844 C9.56572266,40.7964844 10.1140625,40.2481445 10.1140625,39.5741211 L10.1140625,21.6020508 L16.5408203,21.6020508 L16.5408203,23.1373047 L15.4874023,23.1373047 C14.7594727,23.1373047 14.1671875,23.7295898 14.1671875,24.4575195 L14.1671875,28.8902344 C14.1671875,29.6181641 14.7594727,30.2104492 15.4874023,30.2104492 L16.5408203,30.2104492 L16.5408203,39.5742188 C16.5408203,40.2482422 17.0891602,40.796582 17.7631836,40.796582 L19.327832,40.796582 C20.0018555,40.796582 20.550293,40.2482422 20.550293,39.5742188 L20.550293,30.2104492 L29.4494141,30.2104492 L29.4494141,39.5742188 C29.4494141,40.2482422 29.9977539,40.796582 30.671875,40.796582 L32.2365234,40.796582 C32.9105469,40.796582 33.4588867,40.2482422 33.4588867,39.5742188 L33.4588867,30.2104492 L34.5124023,30.2104492 C35.2404297,30.2104492 35.8326172,29.6181641 35.8326172,28.8902344 L35.8326172,24.4575195 C35.8326172,23.7295898 35.2404297,23.1373047 34.5124023,23.1373047 L33.4588867,23.1373047 L33.4588867,21.6020508 L39.8856445,21.6020508 L39.8856445,39.5741211 C39.8856445,40.2481445 40.4339844,40.7964844 41.1080078,40.7964844 L42.8229492,40.7964844 C43.4969727,40.7964844 44.0453125,40.2481445 44.0453125,39.5741211 L44.0453125,29.6730469 C44.0453125,29.2679687 43.7169922,28.9396484 43.3119141,28.9396484 C42.9068359,28.9396484 42.5785156,29.2680664 42.5785156,29.6730469 L42.5785156,39.3296875 L41.3525391,39.3296875 L41.3525391,21.6020508 L42.5785156,21.6020508 L42.5785156,25.1745117 C42.5785156,25.5795898 42.9068359,25.9079102 43.3119141,25.9079102 C43.7169922,25.9079102 44.0453125,25.5794922 44.0453125,25.1745117 L44.0453125,21.6020508 L45.2222656,21.6020508 C45.8962891,21.6020508 46.4447266,21.0537109 46.4447266,20.3796875 L46.4447266,15.253125 L48.7774414,15.253125 C49.4514648,15.253125 49.9998047,14.7047852 49.9998047,14.0306641 L49.9998047,12.3302734 C50,11.6561523 49.4516602,11.1078125 48.7776367,11.1078125 Z M30.9165039,9.50947266 L31.9921875,9.50947266 L31.9921875,11.1078125 L30.9165039,11.1078125 L30.9165039,9.50947266 L30.9165039,9.50947266 Z M20.5503906,9.50947266 L20.5503906,9.50947266 L29.4495117,9.50947266 L29.4495117,11.1078125 L20.5503906,11.1078125 L20.5503906,9.50947266 L20.5503906,9.50947266 Z M18.0078125,9.50947266 L19.0834961,9.50947266 L19.0834961,11.1078125 L18.0078125,11.1078125 L18.0078125,9.50947266 Z M8.64736328,39.3296875 L8.64726563,39.3296875 L7.42138672,39.3296875 L7.42138672,21.6020508 L8.64736328,21.6020508 L8.64736328,39.3296875 Z M19.0834961,39.3296875 L18.0078125,39.3296875 L18.0078125,30.2104492 L19.0834961,30.2104492 L19.0834961,39.3296875 L19.0834961,39.3296875 Z M31.9921875,39.3296875 L30.9165039,39.3296875 L30.9165039,30.2104492 L31.9921875,30.2104492 L31.9921875,39.3296875 Z M34.3658203,24.6041992 L34.3658203,28.743457 L32.7255859,28.743457 L30.1830078,28.743457 L19.8169922,28.743457 L17.2744141,28.743457 L15.6342773,28.743457 L15.6342773,24.6041992 L17.2744141,24.6041992 L19.8169922,24.6041992 L30.1830078,24.6041992 L32.7255859,24.6041992 L34.3658203,24.6041992 Z M18.0078125,23.1373047 L18.0078125,21.6020508 L19.0834961,21.6020508 L19.0834961,23.1373047 L18.0078125,23.1373047 Z M20.5503906,23.1373047 L20.5503906,21.6020508 L29.4495117,21.6020508 L29.4495117,23.1373047 L20.5503906,23.1373047 Z M30.9165039,23.1373047 L30.9165039,21.6020508 L31.9921875,21.6020508 L31.9921875,23.1373047 L30.9165039,23.1373047 Z M43.3121094,20.1351563 L40.6193359,20.1351563 L32.7255859,20.1351563 L30.1830078,20.1351563 L19.8169922,20.1351563 L17.2744141,20.1351563 L9.38076172,20.1351563 L6.68789062,20.1351563 L5.02197266,20.1351563 L5.02197266,15.2530273 L44.9779297,15.2530273 L44.9779297,20.1351563 L43.3121094,20.1351563 Z M48.5331055,13.7861328 L45.7114258,13.7861328 L4.28857422,13.7861328 L1.46689453,13.7861328 L1.46689453,12.5746094 L17.2744141,12.5746094 L19.8169922,12.5746094 L30.1830078,12.5746094 L32.7255859,12.5746094 L48.5331055,12.5746094 L48.5331055,13.7861328 L48.5331055,13.7861328 Z" id="Shape"></path>
            </g>
        </g>
    </g>
</svg>