<?xml version="1.0" encoding="UTF-8"?>
<svg width="50px" height="19px" viewBox="0 0 50 19" version="1.1" xmlns="http://www.w3.org/2000/svg" xmlns:xlink="http://www.w3.org/1999/xlink">
    <!-- Generator: Sketch 43.2 (39069) - http://www.bohemiancoding.com/sketch -->
    <title>dvd</title>
    <desc>Created with Sketch.</desc>
    <defs></defs>
    <g id="Page-1" stroke="none" stroke-width="1" fill="none" fill-rule="evenodd">
        <g id="Desktop-Landscape" transform="translate(-461.000000, -519.000000)" fill-rule="nonzero" fill="#000000">
            <g id="dvd" transform="translate(461.059182, 519.000000)">
                <path d="M49.1067929,0.0548997773 L0.83518931,0.0548997773 C0.373942094,0.0548997773 0,0.428841871 0,0.890089087 L0,15.2546771 C0,15.7159243 0.373942094,16.0898664 0.83518931,16.0898664 L2.83953229,16.0898664 L2.83953229,18.0942094 C2.83953229,18.5554566 3.21347439,18.9293987 3.6747216,18.9293987 L11.8592428,18.9293987 C12.32049,18.9293987 12.6944321,18.5554566 12.6944321,18.0942094 L12.6944321,16.0898664 L37.2476615,16.0898664 L37.2476615,18.0942094 C37.2476615,18.5554566 37.6214922,18.9293987 38.0828508,18.9293987 L46.2672606,18.9293987 C46.7286192,18.9293987 47.1024499,18.5554566 47.1024499,18.0942094 L47.1024499,16.0898664 L49.1067929,16.0898664 C49.5681514,16.0898664 49.9419822,15.7159243 49.9419822,15.2546771 L49.9419822,0.890089087 C49.9419822,0.428841871 49.5680401,0.0548997773 49.1067929,0.0548997773 L49.1067929,0.0548997773 Z M11.0239421,17.2589087 L4.50991091,17.2589087 L4.50991091,16.089755 L11.0240535,16.089755 L11.0240535,17.2589087 L11.0239421,17.2589087 Z M45.4318486,17.2589087 L38.9178174,17.2589087 L38.9178174,16.089755 L45.4318486,16.089755 L45.4318486,17.2589087 Z M48.2714922,14.4194878 L1.67026726,14.4194878 L1.67026726,1.7252784 L48.2714922,1.7252784 L48.2714922,14.4194878 Z" id="Shape"></path>
                <path d="M3.0623608,13.5842984 L46.87951,13.5842984 C47.1870824,13.5842984 47.4363029,13.3349666 47.4363029,13.0275056 L47.4363029,3.11726058 C47.4363029,2.80979955 47.1870824,2.56046771 46.87951,2.56046771 L3.0623608,2.56046771 C2.75489978,2.56046771 2.50556793,2.80979955 2.50556793,3.11726058 L2.50556793,13.0275056 C2.50556793,13.3349666 2.75478842,13.5842984 3.0623608,13.5842984 Z M3.61915367,3.67405345 L46.3227171,3.67405345 L46.3227171,12.4707127 L3.61915367,12.4707127 L3.61915367,3.67405345 Z" id="Shape"></path>
                <path d="M42.425167,6.17973274 L24.0046771,6.17973274 C23.697216,6.17973274 23.4478842,6.42906459 23.4478842,6.73652561 L23.4478842,9.40835189 C23.4478842,9.71581292 23.697216,9.96514477 24.0046771,9.96514477 L42.425167,9.96514477 C42.7327394,9.96514477 42.9819599,9.71581292 42.9819599,9.40835189 L42.9819599,6.73652561 C42.9819599,6.42895323 42.7326281,6.17973274 42.425167,6.17973274 Z M41.8683742,8.85144766 L24.5614699,8.85144766 L24.5614699,7.29320713 L41.8683742,7.29320713 L41.8683742,8.85144766 Z" id="Shape"></path>
                <path d="M8.51859688,4.34198218 C6.46169265,4.34198218 4.78819599,6.01536748 4.78819599,8.07238307 C4.78819599,10.1293987 6.46158129,11.802784 8.51859688,11.802784 C10.5756125,11.802784 12.2489978,10.1292873 12.2489978,8.07238307 C12.2489978,6.01547884 10.5755011,4.34198218 8.51859688,4.34198218 L8.51859688,4.34198218 Z M8.51859688,10.6891982 C7.07572383,10.6891982 5.90178174,9.51525612 5.90178174,8.07238307 C5.90178174,6.62951002 7.07572383,5.45556793 8.51859688,5.45556793 C9.96146993,5.45556793 11.135412,6.62951002 11.135412,8.07238307 C11.1353007,9.51525612 9.96146993,10.6891982 8.51859688,10.6891982 Z" id="Shape"></path>
                <path d="M15.0926503,7.51536748 C14.945657,7.51536748 14.8020045,7.57438753 14.698441,7.67906459 C14.5948775,7.78262806 14.5358575,7.92516704 14.5358575,8.07216036 C14.5358575,8.21915367 14.5948775,8.36280624 14.698441,8.46636971 C14.8020045,8.56993318 14.945657,8.62895323 15.0926503,8.62895323 C15.2396437,8.62895323 15.3821826,8.56993318 15.4857461,8.46636971 C15.5893096,8.36280624 15.6494432,8.21915367 15.6494432,8.07216036 C15.6494432,7.92628062 15.5893096,7.78262806 15.4857461,7.67906459 C15.3821826,7.57438753 15.2385301,7.51536748 15.0926503,7.51536748 Z" id="Shape"></path>
                <path d="M17.8487751,7.51536748 C17.7017817,7.51536748 17.5581292,7.57438753 17.4545657,7.67906459 C17.3510022,7.78151448 17.2919822,7.92516704 17.2919822,8.07216036 C17.2919822,8.21915367 17.3510022,8.36280624 17.4545657,8.46636971 C17.5581292,8.56993318 17.7017817,8.62895323 17.8487751,8.62895323 C17.9946548,8.62895323 18.1383073,8.56993318 18.2418708,8.46636971 C18.3454343,8.36280624 18.4055679,8.21915367 18.4055679,8.07216036 C18.4055679,7.92516704 18.3454343,7.78262806 18.2418708,7.67906459 C18.1383073,7.57438753 17.9946548,7.51536748 17.8487751,7.51536748 Z" id="Shape"></path>
                <path d="M20.6048998,7.51536748 C20.4579065,7.51536748 20.3142539,7.57438753 20.2106904,7.67906459 C20.1071269,7.78262806 20.0469933,7.92628062 20.0469933,8.07216036 C20.0469933,8.21915367 20.1071269,8.36280624 20.2106904,8.46636971 C20.3142539,8.56993318 20.4579065,8.62895323 20.6048998,8.62895323 C20.7507795,8.62895323 20.8944321,8.56993318 20.9979955,8.46636971 C21.101559,8.36280624 21.1616927,8.21915367 21.1616927,8.07216036 C21.1616927,7.92628062 21.101559,7.78262806 20.9979955,7.67906459 C20.8944321,7.57438753 20.7507795,7.51536748 20.6048998,7.51536748 Z" id="Shape"></path>
                <path d="M8.51804009,5.84498886 C8.37216036,5.84498886 8.2285078,5.90512249 8.12494432,6.00868597 C8.02138085,6.11224944 7.96124722,6.255902 7.96124722,6.40178174 C7.96124722,6.54877506 8.02138085,6.69242762 8.12494432,6.79599109 C8.2285078,6.89955457 8.37216036,6.95857461 8.51804009,6.95857461 C8.66503341,6.95857461 8.80868597,6.89955457 8.91224944,6.79599109 C9.01581292,6.69242762 9.07483296,6.54877506 9.07483296,6.40178174 C9.07483296,6.255902 9.01581292,6.11224944 8.91224944,6.00868597 C8.80868597,5.90512249 8.66503341,5.84498886 8.51804009,5.84498886 Z" id="Shape"></path>
            </g>
        </g>
    </g>
</svg>