<?xml version="1.0" encoding="UTF-8"?>
<svg width="64px" height="50px" viewBox="0 0 64 50" version="1.1" xmlns="http://www.w3.org/2000/svg" xmlns:xlink="http://www.w3.org/1999/xlink">
    <!-- Generator: Sketch 43.2 (39069) - http://www.bohemiancoding.com/sketch -->
    <title>garden</title>
    <desc>Created with Sketch.</desc>
    <defs></defs>
    <g id="Page-1" stroke="none" stroke-width="1" fill="none" fill-rule="evenodd">
        <g id="Desktop-Landscape" transform="translate(-640.000000, -499.000000)" fill-rule="nonzero" fill="#000000">
            <g id="garden" transform="translate(640.000000, 499.000000)">
                <path d="M62.2925743,47.8996287 L48.7748762,47.8996287 L48.7748762,41.4897277 C51.7267327,41.092698 54.3429455,39.2491337 55.8642327,36.4542079 C57.885396,35.992203 59.7215347,34.8220297 61.0798267,33.1191832 C62.5543317,31.2705446 63.3664604,28.9079208 63.3664604,26.4664604 C63.3664604,22.7524752 61.4647277,19.3149752 58.4725248,17.5294554 C58.1607673,11.3360149 53.3863861,6.39764851 47.5716584,6.39764851 C45.7413366,6.39764851 43.9303218,6.89579208 42.3345297,7.83824257 C41.837995,8.13143564 41.6731436,8.77153465 41.9663366,9.26794554 C42.2596535,9.76460396 42.8998762,9.92933168 43.3961634,9.63613861 C44.6706683,8.88341584 46.1144802,8.48564356 47.5716584,8.48564356 C52.4309406,8.48564356 56.3915842,12.8238861 56.4007426,18.1563119 C56.4014851,18.5492574 56.6226485,18.9085396 56.9732673,19.0860149 C59.5886139,20.4096535 61.2783416,23.3065594 61.2783416,26.4663366 C61.2783416,30.4542079 58.5777228,33.9069307 54.9962871,34.4976485 C54.6608911,34.5530941 54.3735149,34.7680693 54.2258663,35.0743812 C53.1058168,37.3971535 51.0820545,38.9673267 48.7748762,39.3761139 L48.7748762,30.1378713 L53.912995,25.412995 C54.3373762,25.0226485 54.365099,24.3622525 53.9747525,23.9378713 C53.5842822,23.5134901 52.9240099,23.4856436 52.4996287,23.8761139 L48.7748762,27.3012376 L48.7748762,20.3319307 C48.7748762,19.7553218 48.3074257,19.2878713 47.7308168,19.2878713 C47.1542079,19.2878713 46.6867574,19.7553218 46.6867574,20.3319307 L46.6867574,32.9680693 L42.962005,29.5429455 C42.5376238,29.1524752 41.877104,29.1803218 41.4868812,29.604703 C41.0965347,30.0290842 41.1242574,30.6894802 41.5486386,31.0798267 L46.6868812,35.804703 L46.6868812,39.425 C44.225,39.107797 42.0538366,37.4788366 40.8888614,35.0139851 C40.7496287,34.7193069 40.4806931,34.5065594 40.162005,34.4389851 C36.6976485,33.7029703 34.1832921,30.3501238 34.1832921,26.4663366 C34.1832921,23.4039604 35.727599,20.632302 38.2134901,19.2334158 C38.5461634,19.0461634 38.7501238,18.6923267 38.7454208,18.3107673 C38.7451733,18.2818069 38.7441832,18.2530941 38.7431931,18.224505 C38.7425743,18.2079208 38.7419554,18.1914604 38.7419554,18.175 C38.7419554,16.0001238 39.3837871,13.9451733 40.5980198,12.2325495 C40.9315594,11.7621287 40.8205446,11.110396 40.3502475,10.777104 C39.8798267,10.4434406 39.2280941,10.554703 38.894802,11.0248762 C37.5115099,12.9758663 36.7436881,15.2871287 36.6615099,17.7342822 C33.8300743,19.5806931 32.0954208,22.8694307 32.0954208,26.4664604 C32.0954208,31.1451733 35.0657178,35.2206683 39.2288366,36.3602723 C40.7957921,39.3113861 43.5673267,41.2211634 46.6871287,41.5268564 L46.6871287,47.8996287 L46.0258663,47.8996287 C45.8720297,45.1673267 44.0043317,42.7903465 41.4034653,41.9877475 C40.5873762,40.2514851 39.0022277,38.9925743 37.1382426,38.5844059 C36.527104,35.8065594 34.0264851,33.7351485 31.1125,33.7351485 C28.8654703,33.7351485 26.8279703,34.9428218 25.7418317,36.865099 C23.6028465,36.9464109 21.679703,38.0891089 20.575,39.8594059 C19.8865099,37.9653465 18.122896,36.5862624 16.0580446,36.437995 L16.0580446,33.6930693 C18.8764851,33.3012376 21.3721535,31.5383663 22.8303218,28.8715347 C24.7673267,28.4240099 26.5264851,27.3002475 27.8288366,25.6675743 C29.2469059,23.8899752 30.0278465,21.6180693 30.0278465,19.2705446 C30.0278465,15.7076733 28.2074257,12.4090347 25.3412129,10.6883663 C25.030198,4.74641089 20.4446782,0.0125 14.8612624,0.0125 C12.7195545,0.0125 10.6595297,0.703217822 8.90371287,2.01027228 C8.44133663,2.35445545 8.34542079,3.00866337 8.68960396,3.47116337 C9.03378713,3.9335396 9.68787129,4.02945545 10.150495,3.68527228 C11.5430693,2.64839109 13.1720297,2.10049505 14.8612624,2.10049505 C19.4888614,2.10049505 23.2608911,6.23391089 23.2696782,11.314604 C23.2704208,11.7075495 23.4915842,12.0668317 23.842203,12.2443069 C26.3313119,13.5040842 27.9394802,16.2621287 27.9394802,19.2705446 C27.9394802,23.0669554 25.3699257,26.3537129 21.9623762,26.9157178 C21.627104,26.9711634 21.339604,27.1861386 21.1919554,27.4924505 C20.1344059,29.6855198 18.2310644,31.1741337 16.057797,31.577599 L16.057797,22.8053218 L20.9627475,18.2950495 C21.3871287,17.904703 21.4147277,17.2443069 21.024505,16.8199257 C20.6342822,16.3954208 19.9737624,16.367698 19.5493812,16.7581683 L16.057797,19.9688119 L16.057797,13.3977723 C16.057797,12.8211634 15.5903465,12.3537129 15.0137376,12.3537129 C14.4371287,12.3537129 13.9696782,12.8211634 13.9696782,13.3977723 L13.9696782,25.3941832 L10.4782178,22.1835396 C10.0537129,21.7930693 9.39331683,21.8209158 9.00309406,22.245297 C8.61274752,22.6696782 8.6404703,23.330198 9.06485149,23.7204208 L13.9695545,28.2306931 L13.9695545,31.6264851 C11.6482673,31.3089109 9.60420792,29.7642327 8.50334158,27.4352723 C8.36410891,27.1405941 8.09517327,26.9278465 7.77648515,26.8602723 C4.48032178,26.1596535 2.08787129,22.9679455 2.08787129,19.2705446 C2.08787129,16.3545792 3.5575495,13.7159653 5.92351485,12.3845297 C6.25594059,12.197401 6.45990099,11.8441832 6.45544554,11.4627475 C6.45519802,11.4345297 6.45433168,11.4063119 6.45334158,11.3782178 C6.4529703,11.362995 6.45222772,11.347896 6.45222772,11.3324257 C6.45222772,10.0410891 6.69022277,8.79232673 7.1595297,7.62091584 C7.29913366,7.27289604 7.45990099,6.93106436 7.63774752,6.60457921 C7.9134901,6.09814356 7.72660891,5.46423267 7.22017327,5.1884901 C6.71373762,4.9125 6.07970297,5.09950495 5.80408416,5.60594059 C5.58737624,6.0039604 5.39133663,6.42054455 5.22153465,6.84430693 C4.70717822,8.12784653 4.42215347,9.48527228 4.37227723,10.8857673 C1.6605198,12.6638614 0,15.819802 0,19.2705446 C0,23.7627475 2.84876238,27.6772277 6.84356436,28.7804455 C8.34579208,31.5966584 10.9904703,33.4238861 13.9696782,33.729703 L13.9696782,36.7159653 C12.827104,37.1152228 11.8492574,37.9045792 11.2201733,38.9648515 C8.68477723,39.1090347 6.63613861,40.9815594 6.23910891,43.4511139 C4.36918317,44.2815594 2.9789604,45.9285891 2.46707921,47.8993812 L1.04405941,47.8993812 C0.467450495,47.8993812 0,48.3668317 0,48.9434406 C0,49.5200495 0.467450495,49.9875 1.04405941,49.9875 L3.33118812,49.9875 L26.8997525,49.9875 L44.9498762,49.9875 L62.2925743,49.9875 C62.8691832,49.9875 63.3366337,49.5200495 63.3366337,48.9434406 C63.3366337,48.3668317 62.8690594,47.8996287 62.2925743,47.8996287 Z M4.65680693,47.8996287 C5.15482673,46.6304455 6.20247525,45.6194307 7.53712871,45.1871287 C7.95705446,45.0511139 8.2460396,44.6658416 8.25903465,44.2247525 C8.31163366,42.4412129 9.75086634,41.0440594 11.5356436,41.0440594 C11.6071782,41.0440594 11.685396,41.047401 11.7815594,41.0544554 C12.2288366,41.0867574 12.6472772,40.8313119 12.8209158,40.417698 C13.3075495,39.2600248 14.4331683,38.5118812 15.6886139,38.5118812 C17.3007426,38.5118812 18.6616337,39.7695545 18.7868812,41.3751238 C18.8269802,41.8876238 19.2340347,42.294802 19.7466584,42.334901 C20.0313119,42.3570545 20.3065594,42.4195545 20.567203,42.5148515 C20.5683168,42.5152228 20.5693069,42.5158416 20.5704208,42.5162129 C20.6188119,42.5340347 20.6664604,42.5532178 20.7137376,42.5732673 C20.7238861,42.577599 20.7341584,42.5819307 20.7443069,42.5863861 C20.7884901,42.6055693 20.8321782,42.6257426 20.8751238,42.6469059 C20.8897277,42.6542079 20.9040842,42.6617574 20.9185644,42.6691832 C20.9780941,42.6996287 21.0363861,42.7320545 21.0935644,42.7660891 C21.1247525,42.7847772 21.1561881,42.8028465 21.1866337,42.8226485 C21.2097772,42.8375 21.2320545,42.8534653 21.2545792,42.8686881 C21.2888614,42.8920792 21.322896,42.9158416 21.3563119,42.9405941 C21.3752475,42.954703 21.3939356,42.9688119 21.4123762,42.9832921 C21.4527228,43.0147277 21.4925743,43.0471535 21.5313119,43.0806931 C21.5420792,43.0898515 21.5528465,43.0986386 21.5634901,43.1079208 C21.6663366,43.1990099 21.7632426,43.2971535 21.8534653,43.4013614 C21.8617574,43.4110149 21.8699257,43.4206683 21.8780941,43.4304455 C21.9160891,43.4753713 21.9527228,43.5215347 21.9882426,43.5686881 C21.9950495,43.5777228 22.002104,43.5866337 22.0087871,43.5957921 C22.0898515,43.7061881 22.1637376,43.8225248 22.2300743,43.9439356 C22.2388614,43.9600248 22.2471535,43.9764851 22.2558168,43.9928218 C22.2793317,44.0377475 22.3017327,44.0835396 22.3231436,44.1299505 C22.3316832,44.1482673 22.3402228,44.1665842 22.3483911,44.1850248 C22.3747525,44.2451733 22.3997525,44.3061881 22.422401,44.3681931 C22.4232673,44.3704208 22.4240099,44.372401 22.4248762,44.3746287 C22.5472772,44.7127475 22.8351485,44.9641089 23.1866337,45.0398515 C23.2799505,45.059901 23.3714109,45.0844059 23.4613861,45.112005 C23.4907178,45.1210396 23.5191832,45.1320545 23.5482673,45.1418317 C23.6081683,45.1618812 23.6678218,45.182302 23.7261139,45.2055693 C23.7597772,45.2190594 23.7925743,45.2342822 23.8256188,45.2487624 C23.8777228,45.2715347 23.9295792,45.2946782 23.9803218,45.3199257 C24.0144802,45.3368812 24.0476485,45.355198 24.0810644,45.3732673 C24.1290842,45.3991337 24.1766089,45.4258663 24.2230198,45.4539604 C24.2560644,45.4738861 24.2886139,45.4945545 24.3209158,45.5155941 C24.3659653,45.5449257 24.410396,45.575495 24.4539604,45.6069307 C24.4850248,45.6293317 24.5157178,45.6517327 24.5459158,45.6751238 C24.5891089,45.7085396 24.6309406,45.7433168 24.672401,45.7785891 C24.700495,45.8024752 24.7289604,45.8262376 24.7563119,45.8509901 C24.7987624,45.889604 24.8393564,45.9298267 24.8798267,45.970297 C24.9037129,45.9941832 24.9284653,46.0175743 24.9516089,46.0423267 C24.9971535,46.0907178 25.0402228,46.1412129 25.0829208,46.1919554 C25.0987624,46.2108911 25.1155941,46.2287129 25.1310644,46.247896 C25.187995,46.3189356 25.2423267,46.3919554 25.2935644,46.4673267 C25.3043317,46.4830446 25.3136139,46.4998762 25.3240099,46.5157178 C25.3634901,46.5758663 25.4019802,46.6366337 25.4377475,46.6991337 C25.4538366,46.7274752 25.4683168,46.7569307 25.4836634,46.7857673 C25.5113861,46.8375 25.5386139,46.8893564 25.5637376,46.9424505 C25.5793317,46.975495 25.5931931,47.0092822 25.6076733,47.042698 C25.629703,47.0935644 25.6509901,47.1444307 25.6705446,47.1964109 C25.6839109,47.2320545 25.6961634,47.2680693 25.7084158,47.3042079 C25.7258663,47.3556931 25.742203,47.4075495 25.757302,47.4600248 C25.7679455,47.4971535 25.7778465,47.5345297 25.7873762,47.5720297 C25.8006188,47.6252475 25.8122525,47.6788366 25.8230198,47.732797 C25.8305693,47.7704208 25.8378713,47.8080446 25.8441832,47.8461634 C25.8471535,47.8638614 25.8486386,47.8818069 25.8512376,47.8996287 L4.65680693,47.8996287 L4.65680693,47.8996287 Z M27.9564356,47.8997525 L27.9564356,47.8996287 C27.9555693,47.8897277 27.9534653,47.8799505 27.9527228,47.8701733 C27.9407178,47.7455446 27.9252475,47.6216584 27.9048267,47.4992574 C27.9035891,47.4920792 27.9019802,47.484901 27.9007426,47.4777228 C27.8794554,47.3528465 27.8540842,47.2292079 27.8243812,47.1069307 C27.8231436,47.1016089 27.8221535,47.0962871 27.8207921,47.0912129 C27.7909653,46.9700495 27.7564356,46.8506188 27.7188119,46.7325495 C27.7147277,46.7199257 27.7110149,46.7069307 27.7068069,46.6943069 C27.6696782,46.5806931 27.6283416,46.4688119 27.5839109,46.3581683 C27.5774752,46.342203 27.5712871,46.3261139 27.5647277,46.3102723 C27.5201733,46.2019802 27.4720297,46.0955446 27.4207921,45.9907178 C27.4127475,45.9741337 27.404703,45.9576733 27.3964109,45.9412129 C27.3441832,45.837005 27.2889851,45.7345297 27.2305693,45.6340347 C27.2216584,45.6188119 27.2127475,45.6038366 27.2037129,45.5886139 C27.1435644,45.4872525 27.0805693,45.3877475 27.0141089,45.2905941 C27.0060644,45.2787129 26.9976485,45.267203 26.9894802,45.2555693 C26.9201733,45.1558168 26.8482673,45.0579208 26.7727723,44.962995 C26.7680693,44.9570545 26.762995,44.9513614 26.7582921,44.945297 C26.6793317,44.8467822 26.597401,44.7507426 26.5118812,44.657797 C26.5108911,44.6568069 26.5100248,44.6556931 26.5091584,44.654703 C26.424505,44.5628713 26.3362624,44.4741337 26.2455446,44.387995 C26.2376238,44.3804455 26.2299505,44.3726485 26.2220297,44.3652228 C26.1347772,44.2834158 26.0444307,44.204703 25.9518564,44.1284653 C25.9394802,44.1183168 25.9272277,44.1079208 25.9147277,44.0976485 C25.8236386,44.0240099 25.7300743,43.9533416 25.6341584,43.885396 C25.6193069,43.8748762 25.6044554,43.8643564 25.589604,43.8539604 C25.4938119,43.7873762 25.3956683,43.7237624 25.2954208,43.6632426 C25.279703,43.6538366 25.2638614,43.6444307 25.2481436,43.6351485 C25.1465347,43.5751238 25.0430693,43.5180693 24.9375,43.4644802 C24.9230198,43.4570545 24.9082921,43.4502475 24.8936881,43.4430693 C24.7847772,43.3892327 24.6741337,43.3381188 24.5611386,43.2913366 C24.5511139,43.2871287 24.5409653,43.2835396 24.5309406,43.2794554 C24.4125,43.2313119 24.2923267,43.1863861 24.169802,43.1464109 C24.1694307,43.1462871 24.1689356,43.1460396 24.1684406,43.1457921 C24.1631188,43.1350248 24.1570545,43.125 24.1517327,43.1143564 C24.1095297,43.0298267 24.0653465,42.9467822 24.0188119,42.865099 C23.9950495,42.8233911 23.9696782,42.7826733 23.9449257,42.7415842 C23.9148515,42.692203 23.8845297,42.6429455 23.8529703,42.5945545 C23.8226485,42.547896 23.7914604,42.502104 23.7595297,42.4565594 C23.7318069,42.4170792 23.7033416,42.3782178 23.6746287,42.3394802 C23.6384901,42.2905941 23.6022277,42.2419554 23.5643564,42.1944307 C23.5420792,42.1665842 23.5186881,42.1398515 23.4959158,42.1126238 C23.4079208,42.0068069 23.3159653,41.904703 23.219802,41.8061881 C23.2032178,41.7892327 23.1873762,41.7716584 23.1706683,41.7549505 C23.122896,41.7074257 23.0735149,41.6618812 23.0240099,41.6162129 C22.9954208,41.5898515 22.9669554,41.5636139 22.9377475,41.5378713 C22.8904703,41.4962871 22.8424505,41.4554455 22.7934406,41.4153465 C22.757797,41.3861386 22.7215347,41.3580446 22.6851485,41.329703 C22.6397277,41.2946782 22.5946782,41.2592822 22.5480198,41.2256188 C22.4824257,41.1780941 22.4153465,41.132797 22.3475248,41.0883663 C22.3294554,41.0764851 22.3122525,41.0633663 22.2939356,41.0517327 C23.0548267,39.7663366 24.4476485,38.9491337 25.9865099,38.9491337 C26.0806931,38.9491337 26.1829208,38.9534653 26.3081683,38.9626238 C26.7548267,38.9959158 27.1737624,38.7393564 27.347401,38.3258663 C27.9861386,36.8058168 29.4641089,35.8236386 31.1125,35.8236386 C33.2292079,35.8236386 35.0159653,37.4751238 35.1803218,39.5832921 C35.220297,40.0957921 35.6274752,40.5029703 36.140099,40.5429455 C37.7325495,40.6670792 39.112995,41.7184406 39.6570545,43.2215347 C39.7794554,43.5596535 40.0673267,43.8110149 40.4188119,43.8867574 C42.3450495,44.3018564 43.7740099,45.9582921 43.9345297,47.9001238 L27.9564356,47.9001238 L27.9564356,47.8997525 Z" id="Shape"></path>
            </g>
        </g>
    </g>
</svg>