<?xml version="1.0" encoding="UTF-8"?>
<svg width="50px" height="32px" viewBox="0 0 50 32" version="1.1" xmlns="http://www.w3.org/2000/svg" xmlns:xlink="http://www.w3.org/1999/xlink">
    <!-- Generator: Sketch 43.2 (39069) - http://www.bohemiancoding.com/sketch -->
    <title>hanger</title>
    <desc>Created with Sketch.</desc>
    <defs></defs>
    <g id="Page-1" stroke="none" stroke-width="1" fill="none" fill-rule="evenodd">
        <g id="Desktop-Landscape" transform="translate(-369.000000, -599.000000)" fill-rule="nonzero" fill="#000000">
            <g id="hanger" transform="translate(369.000000, 599.000000)">
                <path d="M48.0270508,24.6673828 L26.040625,13.0523437 L26.040625,11.5859375 C26.0498047,11.5836914 26.0589844,11.5805664 26.0696289,11.5783203 C29.5333984,10.7208008 31.8587891,8.56318359 31.8587891,5.78916016 C31.8587891,2.59169922 29.2663086,-2.84217094e-14 26.0696289,-2.84217094e-14 C23.1170898,-2.84217094e-14 20.5504883,2.16064453 20.2972656,5.05595703 C20.2896484,5.10019531 20.2850586,5.14599609 20.2850586,5.19179687 C20.2850586,5.19716797 20.2834961,5.20244141 20.2834961,5.20859375 C20.2834961,5.78388672 20.7503906,6.25 21.3256836,6.25 C21.9009766,6.25 22.3678711,5.78388672 22.3678711,5.20859375 L22.3739258,5.20859375 C22.4578125,4.30751953 22.8958008,3.66132812 23.2802734,3.25849609 C23.9913086,2.51162109 25.009082,2.08359375 26.0695313,2.08359375 C28.1126953,2.08359375 29.7744141,3.74599609 29.7744141,5.78916016 C29.7744141,6.56884766 29.4494141,7.28378906 28.8054688,7.91396484 C28.0532227,8.65019531 26.9347656,9.21787109 25.569043,9.55576172 C25.569043,9.55576172 23.9867187,10.044043 23.9592773,10.0540039 L23.9592773,10.4164062 L23.9577148,10.4164062 L23.9577148,13.0523437 L1.97451172,24.6673828 C0.795019531,25.2746094 0,26.4160156 0,27.7251953 C0,29.6722656 1.759375,31.25 3.92910156,31.25 L4.04658203,31.25 L45.9548828,31.25 L46.0723633,31.25 C48.2421875,31.25 50,29.6722656 50,27.7251953 C50,26.4160156 49.206543,25.2746094 48.0270508,24.6673828 Z M46.0723633,29.165625 L45.9548828,29.165625 L4.04667969,29.165625 L3.92919922,29.165625 C2.92978516,29.165625 2.084375,28.5064453 2.084375,27.7251953 C2.084375,27.2429687 2.40019531,26.7914062 2.9296875,26.5166992 L2.93886719,26.5136719 L2.94804688,26.5076172 L24.9985352,14.8583008 L47.0536133,26.5076172 L47.062793,26.5136719 L47.0719727,26.5166992 C47.6014648,26.7913086 47.9172852,27.2430664 47.9172852,27.7251953 C47.9171875,28.5064453 47.071875,29.165625 46.0723633,29.165625 Z" id="Shape"></path>
            </g>
        </g>
    </g>
</svg>