<?xml version="1.0" encoding="UTF-8"?>
<svg width="50px" height="50px" viewBox="0 0 50 50" version="1.1" xmlns="http://www.w3.org/2000/svg" xmlns:xlink="http://www.w3.org/1999/xlink">
    <!-- Generator: Sketch 43.2 (39069) - http://www.bohemiancoding.com/sketch -->
    <title>kitchen</title>
    <desc>Created with Sketch.</desc>
    <defs></defs>
    <g id="Page-1" stroke="none" stroke-width="1" fill="none" fill-rule="evenodd">
        <g id="Desktop-Landscape" transform="translate(-730.000000, -603.000000)" fill-rule="nonzero" fill="#000000">
            <g id="kitchen" transform="translate(730.000000, 603.000000)">
                <path d="M42.5,18.3333333 L7.5,18.3333333 C7.03979167,18.3333333 6.66666667,18.7064583 6.66666667,19.1666667 L6.66666667,37.5 C6.66666667,37.9602083 7.03979167,38.3333333 7.5,38.3333333 L42.5,38.3333333 C42.9602083,38.3333333 43.3333333,37.9602083 43.3333333,37.5 L43.3333333,19.1666667 C43.3333333,18.7064583 42.9602083,18.3333333 42.5,18.3333333 Z M41.6666667,36.6666667 L8.33333333,36.6666667 L8.33333333,20 L41.6666667,20 L41.6666667,36.6666667 Z" id="Shape"></path>
                <path d="M6.66666667,3.33333333 C4.82572917,3.33333333 3.33333333,4.82572917 3.33333333,6.66666667 C3.33333333,8.50760417 4.82572917,10 6.66666667,10 C8.50760417,10 10,8.50760417 10,6.66666667 C10,4.82572917 8.50760417,3.33333333 6.66666667,3.33333333 Z M6.66666667,8.33333333 C5.74614583,8.33333333 5,7.5871875 5,6.66666667 C5,5.74614583 5.74614583,5 6.66666667,5 C7.5871875,5 8.33333333,5.74614583 8.33333333,6.66666667 C8.33333333,7.5871875 7.5871875,8.33333333 6.66666667,8.33333333 Z" id="Shape"></path>
                <path d="M15,3.33333333 C13.1590625,3.33333333 11.6666667,4.82572917 11.6666667,6.66666667 C11.6666667,8.50760417 13.1590625,10 15,10 C16.8409375,10 18.3333333,8.50760417 18.3333333,6.66666667 C18.3333333,4.82572917 16.8409375,3.33333333 15,3.33333333 Z M15,8.33333333 C14.0794792,8.33333333 13.3333333,7.5871875 13.3333333,6.66666667 C13.3333333,5.74614583 14.0794792,5 15,5 C15.9205208,5 16.6666667,5.74614583 16.6666667,6.66666667 C16.6666667,7.5871875 15.9205208,8.33333333 15,8.33333333 Z" id="Shape"></path>
                <rect id="Rectangle-path" x="20" y="4.16666667" width="3.33333333" height="1.66666667"></rect>
                <rect id="Rectangle-path" x="20" y="7.5" width="3.33333333" height="1.66666667"></rect>
                <path d="M30,3.33333333 C28.1590625,3.33333333 26.6666667,4.82572917 26.6666667,6.66666667 C26.6666667,8.50760417 28.1590625,10 30,10 C31.8409375,10 33.3333333,8.50760417 33.3333333,6.66666667 C33.3333333,4.82572917 31.8409375,3.33333333 30,3.33333333 Z M30,8.33333333 C29.0794792,8.33333333 28.3333333,7.5871875 28.3333333,6.66666667 C28.3333333,5.74614583 29.0794792,5 30,5 C30.9205208,5 31.6666667,5.74614583 31.6666667,6.66666667 C31.6666667,7.5871875 30.9205208,8.33333333 30,8.33333333 Z" id="Shape"></path>
                <path d="M38.3333333,3.33333333 C36.4923958,3.33333333 35,4.82572917 35,6.66666667 C35,8.50760417 36.4923958,10 38.3333333,10 C40.1742708,10 41.6666667,8.50760417 41.6666667,6.66666667 C41.6666667,4.82572917 40.1742708,3.33333333 38.3333333,3.33333333 Z M38.3333333,8.33333333 C37.4128125,8.33333333 36.6666667,7.5871875 36.6666667,6.66666667 C36.6666667,5.74614583 37.4128125,5 38.3333333,5 C39.2538542,5 40,5.74614583 40,6.66666667 C40,7.5871875 39.2538542,8.33333333 38.3333333,8.33333333 Z" id="Shape"></path>
                <rect id="Rectangle-path" x="43.3333333" y="4.16666667" width="3.33333333" height="1.66666667"></rect>
                <rect id="Rectangle-path" x="43.3333333" y="7.5" width="3.33333333" height="1.66666667"></rect>
                <path d="M47.5,0 L2.5,0 C1.11927083,0 0,1.11927083 0,2.5 L0,47.5 C0,48.8807292 1.11927083,50 2.5,50 L47.5,50 C48.8807292,50 50,48.8807292 50,47.5 L50,2.5 C50,1.11927083 48.8807292,0 47.5,0 Z M48.3333333,47.5 C48.3333333,47.9602083 47.9602083,48.3333333 47.5,48.3333333 L2.5,48.3333333 C2.03979167,48.3333333 1.66666667,47.9602083 1.66666667,47.5 L1.66666667,45 L48.3333333,45 L48.3333333,47.5 Z M48.3333333,43.3333333 L1.66666667,43.3333333 L1.66666667,13.3333333 L48.3333333,13.3333333 L48.3333333,43.3333333 Z M48.3333333,11.6666667 L1.66666667,11.6666667 L1.66666667,2.5 C1.66666667,2.03979167 2.03979167,1.66666667 2.5,1.66666667 L47.5,1.66666667 C47.9602083,1.66666667 48.3333333,2.03979167 48.3333333,2.5 L48.3333333,11.6666667 Z" id="Shape"></path>
                <path d="M35.8333333,45.8333333 L14.1666667,45.8333333 C13.7064583,45.8333333 13.3333333,46.2064583 13.3333333,46.6666667 C13.3333333,47.126875 13.7064583,47.5 14.1666667,47.5 L35.8333333,47.5 C36.2935417,47.5 36.6666667,47.126875 36.6666667,46.6666667 C36.6666667,46.2064583 36.2935417,45.8333333 35.8333333,45.8333333 Z" id="Shape"></path>
                <path d="M40.8333333,45.8333333 L39.1666667,45.8333333 C38.7064583,45.8333333 38.3333333,46.2064583 38.3333333,46.6666667 C38.3333333,47.126875 38.7064583,47.5 39.1666667,47.5 L40.8333333,47.5 C41.2935417,47.5 41.6666667,47.126875 41.6666667,46.6666667 C41.6666667,46.2064583 41.2935417,45.8333333 40.8333333,45.8333333 Z" id="Shape"></path>
                <path d="M10.8333333,45.8333333 L9.16666667,45.8333333 C8.70645833,45.8333333 8.33333333,46.2064583 8.33333333,46.6666667 C8.33333333,47.126875 8.70645833,47.5 9.16666667,47.5 L10.8333333,47.5 C11.2935417,47.5 11.6666667,47.126875 11.6666667,46.6666667 C11.6666667,46.2064583 11.2935417,45.8333333 10.8333333,45.8333333 Z" id="Shape"></path>
            </g>
        </g>
    </g>
</svg>