<?xml version="1.0" encoding="UTF-8"?>
<svg width="51px" height="50px" viewBox="0 0 51 50" version="1.1" xmlns="http://www.w3.org/2000/svg" xmlns:xlink="http://www.w3.org/1999/xlink">
    <!-- Generator: Sketch 43.2 (39069) - http://www.bohemiancoding.com/sketch -->
    <title>living-room</title>
    <desc>Created with Sketch.</desc>
    <defs></defs>
    <g id="Page-1" stroke="none" stroke-width="1" fill="none" fill-rule="evenodd">
        <g id="Desktop-Landscape" transform="translate(-729.000000, -503.000000)" fill-rule="nonzero" fill="#000000">
            <g id="living-room" transform="translate(729.576037, 503.000000)">
                <path d="M34.1241667,10 L32.0308333,10 C29.9616667,10 28.165,11.4025 27.6633333,13.4108333 L26.4333333,18.3333333 L43.5666667,18.3333333 L42.3358333,13.4108333 C41.8341667,11.4025 40.0383333,10 37.9691667,10 L35.7916667,10 C35.3633333,4.41583333 30.6916667,0 25,0 L19.1666667,0 C10.8958333,0 4.16666667,6.72916667 4.16666667,15 L4.16666667,45 L0,45 L0,50 L10,50 L10,45 L5.83333333,45 L5.83333333,15 C5.83333333,7.64833333 11.815,1.66666667 19.1666667,1.66666667 L25,1.66666667 C29.7733333,1.66666667 33.7016667,5.335 34.1241667,10 Z M40.72,13.8141667 L41.4333333,16.6666667 L28.5666667,16.6666667 L29.2791667,13.8141667 C29.5966667,12.55 30.7275,11.6666667 32.0316667,11.6666667 L37.9691667,11.6666667 C39.2725,11.6666667 40.4033333,12.55 40.72,13.8141667 Z M8.33333333,46.6666667 L8.33333333,48.3333333 L1.66666667,48.3333333 L1.66666667,46.6666667 L8.33333333,46.6666667 Z" id="Shape"></path>
                <path d="M47.905,22.5 L45.4275,22.5 C44.2733333,22.5 43.3333333,23.44 43.3333333,24.595 L43.3333333,25.0241667 C40.5375,25.2608333 38.3333333,27.6083333 38.3333333,30.4641667 L38.3333333,32.5 L28.4166667,32.5 C26.9925,32.5 25.8333333,33.6591667 25.8333333,35.0833333 L25.8333333,47.5 L27.5,47.5 L27.5,50 L32.5,50 L32.5,47.5 L43.3333333,47.5 L43.3333333,50 L48.3333333,50 L48.3333333,47.5 L50,47.5 L50,34.1666667 L50,32.5 L50,24.595 C50,23.44 49.06,22.5 47.905,22.5 Z M40,30.4641667 C40,28.5275 41.4575,26.925 43.3333333,26.6958333 L43.3333333,32.5 L40,32.5 L40,30.4641667 Z M30.8333333,48.3333333 L29.1666667,48.3333333 L29.1666667,47.5 L30.8333333,47.5 L30.8333333,48.3333333 Z M46.6666667,48.3333333 L45,48.3333333 L45,47.5 L46.6666667,47.5 L46.6666667,48.3333333 Z M48.3333333,45.8333333 L43.3333333,45.8333333 L32.5,45.8333333 L27.5,45.8333333 L27.5,35.0833333 C27.5,34.5783333 27.9108333,34.1666667 28.4166667,34.1666667 L38.3333333,34.1666667 L43.3333333,34.1666667 L45,34.1666667 L48.3333333,34.1666667 L48.3333333,45.8333333 Z M45,32.5 L45,25 L45,24.595 C45,24.3583333 45.1916667,24.1666667 45.4283333,24.1666667 L47.9058333,24.1666667 C48.1416667,24.1666667 48.3333333,24.3583333 48.3333333,24.595 L48.3333333,32.5 L45,32.5 Z" id="Shape"></path>
            </g>
        </g>
    </g>
</svg>