<?xml version="1.0" encoding="UTF-8"?>
<svg width="60px" height="50px" viewBox="0 0 60 50" version="1.1" xmlns="http://www.w3.org/2000/svg" xmlns:xlink="http://www.w3.org/1999/xlink">
    <!-- Generator: Sketch 43.2 (39069) - http://www.bohemiancoding.com/sketch -->
    <title>parking</title>
    <desc>Created with Sketch.</desc>
    <defs></defs>
    <g id="Page-1" stroke="none" stroke-width="1" fill="none" fill-rule="evenodd">
        <g id="Desktop-Landscape" transform="translate(-884.000000, -507.000000)" fill-rule="nonzero" fill="#000000">
            <g id="parking" transform="translate(884.142546, 507.000000)">
                <path d="M49.3054147,4.90345622 L46.4262673,4.90345622 C45.9964286,4.90345622 45.7243088,5.17569124 45.7243088,5.4764977 L45.7241935,5.4764977 L45.7241935,14.7874424 C45.7241935,15.1741935 46.1826037,15.3747696 46.6552995,15.3747696 C47.1137097,15.3747696 47.5864055,15.1743088 47.5864055,14.7874424 L47.5864055,11.4641705 L49.1908986,11.4641705 C51.081682,11.4641705 52.5571429,10.5616359 52.5571429,8.2124424 L52.5571429,8.1266129 C52.5571429,5.77730415 51.1246544,4.90345622 49.3054147,4.90345622 Z M50.6948157,8.35576037 C50.6948157,9.47304147 50.1218894,10.0031106 49.1907834,10.0031106 L47.5864055,10.0031106 L47.5864055,6.53652074 L49.1907834,6.53652074 C50.1218894,6.53652074 50.6948157,7.06658986 50.6948157,8.18387097 L50.6948157,8.35576037 Z" id="Shape"></path>
                <path d="M33.7637097,8.54343318 C31.0443548,5.82407834 27.4289171,4.3264977 23.5831797,4.3264977 C19.7374424,4.3264977 16.1220046,5.82407834 13.4026498,8.54343318 C13.074424,8.87154378 13.074424,9.40357143 13.4026498,9.73179724 C13.7307604,10.0599078 14.262788,10.0599078 14.5908986,9.73179724 C16.9928571,7.32995392 20.1862903,6.00714286 23.5830645,6.00714286 C26.9798387,6.00714286 30.1733871,7.32995392 32.5752304,9.73179724 C32.7394009,9.89585253 32.9544931,9.97788018 33.16947,9.97788018 C33.384447,9.97788018 33.5995392,9.89585253 33.7637097,9.73179724 C34.0918203,9.40368664 34.0918203,8.87154378 33.7637097,8.54343318 Z" id="Shape"></path>
                <path d="M30.2970046,12.0101382 C26.5949309,8.30806452 20.5713134,8.30806452 16.8693548,12.0101382 C16.541129,12.3382488 16.541129,12.8703917 16.8693548,13.1985023 C17.1974654,13.5266129 17.7296083,13.5266129 18.0577189,13.1985023 C21.1044931,10.1518433 26.0618664,10.1518433 29.1086406,13.1985023 C29.2726959,13.3625576 29.4876728,13.4445853 29.702765,13.4445853 C29.9177419,13.4445853 30.1328341,13.3625576 30.2970046,13.1985023 C30.6251152,12.8703917 30.6251152,12.3382488 30.2970046,12.0101382 Z" id="Shape"></path>
                <path d="M26.8851382,15.4218894 C25.0644009,13.6011521 22.1018433,13.6011521 20.281106,15.4218894 C19.9528802,15.75 19.9528802,16.2820276 20.281106,16.6102535 C20.6092166,16.9384793 21.1413594,16.9383641 21.46947,16.6102535 C22.635023,15.4448157 24.5313364,15.4448157 25.6968894,16.6102535 C25.8609447,16.774424 26.0760369,16.8563364 26.2910138,16.8563364 C26.5059908,16.8563364 26.7210829,16.7743088 26.8851382,16.6102535 C27.2133641,16.2820276 27.2133641,15.7501152 26.8851382,15.4218894 Z" id="Shape"></path>
                <path d="M41.3504608,31.7879032 C40.9868664,31.587788 40.6281106,31.3686636 40.2843318,31.1364055 L34.7261521,27.3815668 C33.0392857,26.2419355 31.0715438,25.6396313 29.0358295,25.6396313 L18.8341014,25.6396313 C16.1261521,25.6396313 13.5782258,26.6922811 11.6595622,28.6035714 C10.6733871,29.5861751 9.54988479,30.4080645 8.3202765,31.0465438 C7.59308756,31.4241935 7.14135945,32.1673963 7.14135945,32.9861751 C7.14135945,34.1919355 8.12223502,35.1728111 9.32799539,35.1728111 L12.806106,35.1728111 C13.2701613,35.1728111 13.6464286,34.7965438 13.6464286,34.3324885 C13.6464286,33.8684332 13.2701613,33.4921659 12.806106,33.4921659 L9.32799539,33.4921659 C9.04896313,33.4921659 8.8218894,33.2650922 8.8218894,32.9860599 C8.8218894,32.7970046 8.92638249,32.6253456 9.09470046,32.5380184 C10.4761521,31.8207373 11.7382488,30.8974654 12.8456221,29.7941244 C14.4470046,28.1987327 16.5737327,27.3201613 18.8339862,27.3201613 L21.1179724,27.3201613 L21.1179724,33.4921659 L18.3262673,33.4921659 C17.862212,33.4921659 17.4859447,33.8684332 17.4859447,34.3324885 C17.4859447,34.7965438 17.862212,35.1728111 18.3262673,35.1728111 L41.3675115,35.1728111 C42.0582949,35.1728111 42.6202765,34.6108295 42.6202765,33.9200461 C42.6202765,33.0354839 42.1336406,32.2184332 41.3504608,31.7879032 Z M22.7988479,33.4922811 L22.7988479,27.3202765 L29.0359447,27.3202765 C30.7351382,27.3202765 32.3775346,27.8230415 33.7854839,28.7741935 L39.3436636,32.5290323 C39.7296083,32.7897465 40.1322581,33.0358295 40.5407834,33.2604839 C40.6465438,33.3186636 40.7351382,33.3986175 40.8017281,33.4922811 L22.7988479,33.4922811 L22.7988479,33.4922811 Z" id="Shape"></path>
                <path d="M24.8808756,36.4502304 L22.2852535,36.4502304 C21.8211982,36.4502304 21.4449309,36.8264977 21.4449309,37.290553 C21.4449309,37.7546083 21.8211982,38.1308756 22.2852535,38.1308756 L24.8808756,38.1308756 C25.3449309,38.1308756 25.7211982,37.7546083 25.7211982,37.290553 C25.7211982,36.8264977 25.3449309,36.4502304 24.8808756,36.4502304 Z" id="Shape"></path>
                <path d="M58.2614055,35.7449309 L57.9959677,35.3043779 C56.9956221,33.6443548 55.331682,32.4754608 53.4308756,32.0973502 L51.2614055,31.6658986 L51.2614055,20.6697005 L56.8756912,20.6697005 C58.031682,20.6697005 58.9720046,19.7292627 58.9720046,18.5733871 L58.9720046,2.20806452 C58.9720046,1.05207373 58.0315668,0.111751152 56.8756912,0.111751152 L40.5103687,0.111751152 C39.3543779,0.111751152 38.4140553,1.05218894 38.4140553,2.20806452 L38.4140553,8.41601382 C38.4140553,8.88006912 38.7902074,9.25633641 39.2543779,9.25633641 C39.7185484,9.25633641 40.0947005,8.88006912 40.0947005,8.41601382 L40.0947005,2.20806452 C40.0947005,1.97880184 40.2812212,1.79228111 40.5104839,1.79228111 L56.8759217,1.79228111 C57.1051843,1.79228111 57.2917051,1.97880184 57.2917051,2.20806452 L57.2917051,18.5735023 C57.2917051,18.802765 57.1051843,18.9892857 56.8759217,18.9892857 L40.5103687,18.9892857 C40.281106,18.9892857 40.0945853,18.802765 40.0945853,18.5735023 L40.0945853,13.8789171 C40.0945853,13.4148618 39.7184332,13.0385945 39.2542627,13.0385945 C38.7900922,13.0385945 38.4139401,13.4148618 38.4139401,13.8789171 L38.4139401,18.5735023 C38.4139401,19.7294931 39.3543779,20.6698157 40.5102535,20.6698157 L46.8767281,20.6698157 L46.8767281,30.7941244 L45.7615207,30.5723502 C44.2223502,30.2662442 42.7217742,29.3373272 41.7268433,28.6650922 L36.1687788,24.9103687 C34.0541475,23.4819124 31.5876728,22.7268433 29.0358295,22.7268433 L18.8342166,22.7268433 C15.4396313,22.7268433 12.2457373,24.0463134 9.84101382,26.4420507 C8.31935484,27.9580645 6.40391705,28.9920507 4.30172811,29.4323733 L3.0952765,29.685023 C1.30172811,30.0605991 0,31.6633641 0,33.4958525 L0,41.6341014 C0,42.6048387 0.573156682,43.4869816 1.46036866,43.8812212 L4.80737327,45.3687788 C5.00979263,46.4271889 5.51970046,47.4379032 6.3374424,48.2556452 C7.42419355,49.3423963 8.85172811,49.8858295 10.2793779,49.8858295 C11.7070276,49.8858295 13.134447,49.3423963 14.2213134,48.2556452 C14.9202765,47.556682 15.3930876,46.7164747 15.6425115,45.8262673 L43.5498848,45.8262673 C43.7993088,46.7164747 44.272235,47.556682 44.9711982,48.2556452 C46.0241935,49.3085253 47.4239631,49.8884793 48.9131336,49.8884793 C50.4021889,49.8884793 51.8021889,49.3086406 52.8551843,48.2556452 C53.5541475,47.556682 54.0269585,46.7164747 54.2763825,45.8262673 L55.8705069,45.8262673 C57.5885945,45.8262673 58.9864055,44.4284562 58.9864055,42.7103687 L58.9864055,38.3518433 C58.9861751,37.4331797 58.7354839,36.5317972 58.2614055,35.7449309 Z M48.5573733,20.6697005 L49.5808756,20.6697005 L49.5808756,31.331682 L48.5573733,31.1281106 L48.5573733,20.6697005 Z M13.0328341,47.0673963 C12.2973502,47.8028802 11.31947,48.2079493 10.2792627,48.2079493 C9.2390553,48.2079493 8.26117512,47.8028802 7.52569124,47.0673963 C6.34585253,45.8875576 6.08341014,44.1330645 6.73709677,42.6968894 C6.74239631,42.6853687 6.74746544,42.6737327 6.75276498,42.662212 C6.77269585,42.6195853 6.7937788,42.5774194 6.81532258,42.5354839 C6.82546083,42.5156682 6.83559908,42.4959677 6.84619816,42.4763825 C6.8656682,42.439977 6.8859447,42.4038018 6.90668203,42.3678571 C6.92096774,42.3430876 6.93559908,42.3185484 6.95046083,42.2941244 C6.96970046,42.2624424 6.98917051,42.2308756 7.009447,42.1996544 C7.02776498,42.1714286 7.04665899,42.1435484 7.06578341,42.1157834 C7.08467742,42.0882488 7.10345622,42.0605991 7.12304147,42.0335253 C7.14550691,42.0025346 7.16889401,41.9721198 7.19239631,41.9417051 C7.21071429,41.9179724 7.22857143,41.8940092 7.24746544,41.8706221 C7.27511521,41.8364055 7.30403226,41.8029954 7.3328341,41.7695853 C7.34930876,41.750576 7.36509217,41.731106 7.38191244,41.7123272 C7.42476959,41.6647465 7.46889401,41.6180876 7.51428571,41.5723502 C7.51820276,41.5684332 7.52177419,41.5642857 7.52569124,41.5603687 C7.5343318,41.5517281 7.54343318,41.5436636 7.55218894,41.5351382 C7.5906682,41.4973502 7.62937788,41.460023 7.66889401,41.4241935 C7.67914747,41.4148618 7.68997696,41.4062212 7.70034562,41.3970046 C7.73974654,41.3620968 7.77937788,41.3274194 7.81993088,41.2943548 C7.82373272,41.2912442 7.82776498,41.2883641 7.83156682,41.2852535 C9.25587558,40.1326037 11.3101382,40.1339862 12.7327189,41.2898618 C12.7343318,41.2912442 12.7360599,41.2923963 12.737788,41.2937788 C12.7812212,41.3291475 12.8237327,41.3662442 12.8660138,41.4038018 C12.8736175,41.4104839 12.8814516,41.4168203 12.8889401,41.4236175 C12.937788,41.4677419 12.9857143,41.5132488 13.0327189,41.5602535 C13.0834101,41.6109447 13.1322581,41.6631336 13.1797235,41.7160138 C13.200576,41.7392857 13.2202765,41.7631336 13.2404378,41.7867512 C13.2650922,41.815553 13.2898618,41.84447 13.3135945,41.8738479 C13.3402074,41.9069124 13.3658986,41.940553 13.3912442,41.9741935 C13.40553,41.9929724 13.4197005,42.0118664 13.4335253,42.0308756 C13.4642857,42.0732719 13.4942396,42.116129 13.5231567,42.1595622 C13.5281106,42.1669355 13.5329493,42.174424 13.537788,42.1817972 C14.5262673,43.6915899 14.3580645,45.7420507 13.0328341,47.0673963 Z M51.6665899,47.0673963 C50.9309908,47.8028802 49.9531106,48.2079493 48.9129032,48.2079493 C47.8726959,48.2079493 46.8949309,47.8028802 46.159447,47.0673963 C44.8339862,45.7420507 44.6657834,43.6912442 45.6543779,42.1815668 C45.6591014,42.1743088 45.6638249,42.1670507 45.6686636,42.1599078 C45.6975806,42.1163594 45.7276498,42.0733871 45.7585253,42.0307604 C45.772235,42.0118664 45.7862903,41.9932028 45.8004608,41.9746544 C45.8259217,41.9407834 45.8517281,41.9070276 45.8785714,41.8737327 C45.9021889,41.8445853 45.9266129,41.8160138 45.9511521,41.7874424 C45.9715438,41.7635945 45.9914747,41.7394009 46.0125576,41.7160138 C46.060023,41.6631336 46.108871,41.6110599 46.1595622,41.5603687 C46.8950461,40.8248848 47.8728111,40.4198157 48.9130184,40.4198157 C49.9532258,40.4198157 50.931106,40.8248848 51.6665899,41.5603687 C51.7172811,41.6110599 51.766129,41.6632488 51.8135945,41.716129 C51.8345622,41.7394009 51.8542627,41.7633641 51.8745392,41.7870968 C51.8991935,41.8157834 51.9238479,41.8445853 51.9474654,41.8738479 C51.9741935,41.9070276 51.9998848,41.9406682 52.0253456,41.974424 C52.0395161,41.9932028 52.0536866,42.0119816 52.0675115,42.0309908 C52.0982719,42.0735023 52.128341,42.1162442 52.1571429,42.1596774 C52.1620968,42.1670507 52.1669355,42.174424 52.1717742,42.1817972 C53.160023,43.6914747 52.9918203,45.7421659 51.6665899,47.0673963 Z M57.3058756,42.7103687 L57.3056452,42.7103687 C57.3056452,43.5018433 56.6617512,44.1457373 55.8702765,44.1457373 L54.4868664,44.1457373 C54.4539171,42.9269585 54.0237327,41.7641705 53.2495392,40.8108295 C53.2443548,40.8043779 53.2394009,40.7976959 53.2341014,40.7912442 C53.1861751,40.7328341 53.1365207,40.675576 53.0860599,40.6186636 C53.0731567,40.6041475 53.0609447,40.5891705 53.0479263,40.5746544 C52.99447,40.5157834 52.9391705,40.4580645 52.8829493,40.4011521 C52.8733871,40.3914747 52.8646313,40.3813364 52.8549539,40.3717742 C52.1309908,39.6479263 51.2430876,39.1475806 50.275,38.9056452 C49.8349078,38.7956221 49.378341,38.7390553 48.9129032,38.7390553 C48.5406682,38.7390553 48.1739631,38.7753456 47.8168203,38.8460829 C46.7455069,39.0585253 45.7607143,39.5821429 44.9709677,40.3717742 C44.9615207,40.3812212 44.9528802,40.391129 44.9435484,40.4006912 C44.8870968,40.4579493 44.8315668,40.5157834 44.7779954,40.5748848 C44.7653226,40.5888249 44.7535714,40.603341 44.741129,40.6173963 C44.6902074,40.6747696 44.639977,40.7326037 44.5917051,40.7915899 C44.5868664,40.7974654 44.5823733,40.8035714 44.5775346,40.8095622 C43.802765,41.7630184 43.3721198,42.9264977 43.3390553,44.1458525 L15.8531106,44.1458525 C15.8200461,42.925 15.3884793,41.7601382 14.6117512,40.8058756 C14.6081797,40.8013825 14.6047235,40.7968894 14.6011521,40.7923963 C14.5504608,40.7304147 14.4978111,40.6697005 14.4442396,40.6095622 C14.4343318,40.5985023 14.4251152,40.5870968 14.4150922,40.5760369 C14.3523041,40.5067972 14.287788,40.4385945 14.2210829,40.3718894 C13.949424,40.1002304 13.6563364,39.8624424 13.3474654,39.6586406 C12.4205069,39.0473502 11.3498848,38.7417051 10.2792627,38.7417051 C8.85172811,38.7417051 7.42407834,39.2851382 6.33732719,40.3718894 C6.27523041,40.4339862 6.21520737,40.4976959 6.15645161,40.562212 C6.1390553,40.5813364 6.12235023,40.6008065 6.10518433,40.6200461 C6.06370968,40.6669355 6.02292627,40.7142857 5.98317972,40.762212 C5.965553,40.7835253 5.94792627,40.8049539 5.93064516,40.8266129 C5.88951613,40.8778802 5.84942396,40.9297235 5.81025346,40.9821429 C5.79804147,40.9985023 5.78548387,41.0145161 5.77361751,41.0309908 C5.66831797,41.1751152 5.57062212,41.3237327 5.48029954,41.4761521 C5.47776498,41.4804147 5.47534562,41.4847926 5.47281106,41.4890553 C5.42868664,41.5640553 5.38640553,41.6400922 5.34596774,41.7169355 C5.34481567,41.7191244 5.34366359,41.7214286 5.34239631,41.7236175 C5.04942396,42.281106 4.85241935,42.8841014 4.76209677,43.5095622 L2.14308756,42.3455069 C1.86221198,42.2206221 1.68076037,41.9413594 1.68076037,41.6341014 L1.68076037,33.4958525 C1.68076037,32.4542627 2.42073733,31.543318 3.44020737,31.3297235 L4.64665899,31.0770737 C7.06831797,30.5698157 9.27476959,29.3786866 11.0275346,27.6324885 C13.1150922,25.5526498 15.8876728,24.4072581 18.8345622,24.4072581 L29.0361751,24.4072581 C31.2514977,24.4072581 33.3926267,25.062788 35.228341,26.302765 L40.7864055,30.0574885 C41.9017281,30.8110599 43.5970046,31.8550691 45.4339862,32.2205069 L53.103341,33.7456221 C54.5413594,34.031682 55.8,34.9158986 56.5567972,36.171659 L56.822235,36.612212 C57.1387097,37.137212 57.3058756,37.7388249 57.3058756,38.3518433 L57.3058756,42.7103687 L57.3058756,42.7103687 Z" id="Shape"></path>
                <path d="M12.0832949,42.5099078 C11.6012673,42.0279954 10.9607143,41.7626728 10.2792627,41.7626728 C9.59781106,41.7626728 8.95714286,42.0281106 8.47534562,42.5099078 C7.99354839,42.9917051 7.7281106,43.6323733 7.7281106,44.3138249 C7.7281106,44.9952765 7.99354839,45.6359447 8.47534562,46.1177419 C8.95714286,46.5995392 9.59781106,46.864977 10.2793779,46.864977 C10.9608295,46.864977 11.6014977,46.5996544 12.0832949,46.1177419 C13.0779954,45.1230415 13.0779954,43.5046083 12.0832949,42.5099078 Z M10.8948157,44.9293779 C10.7304147,45.0937788 10.5117512,45.1843318 10.2792627,45.1843318 C10.046659,45.1843318 9.8281106,45.0937788 9.66370968,44.9292627 C9.49930876,44.7648618 9.40864055,44.5463134 9.40864055,44.3137097 C9.40864055,44.081106 9.49919355,43.8625576 9.66370968,43.6981567 C9.8281106,43.5337558 10.046659,43.4430876 10.2792627,43.4430876 C10.5117512,43.4430876 10.7304147,43.5336406 10.8948157,43.6981567 C11.2342166,44.0376728 11.2342166,44.589977 10.8948157,44.9293779 Z" id="Shape"></path>
                <path d="M50.7169355,42.510023 C50.2351382,42.0281106 49.59447,41.7626728 48.9129032,41.7626728 C48.2314516,41.7626728 47.5908986,42.0279954 47.108871,42.5099078 C46.1142857,43.5046083 46.1142857,45.1230415 47.108871,46.1177419 C47.5907834,46.5996544 48.2314516,46.864977 48.9129032,46.864977 C49.59447,46.864977 50.235023,46.5996544 50.7168203,46.1178571 C51.1987327,45.6360599 51.4640553,44.9953917 51.4640553,44.3139401 C51.4640553,43.6324885 51.1987327,42.9918203 50.7169355,42.510023 Z M49.5284562,44.9294931 C49.3640553,45.093894 49.1455069,45.184447 48.9129032,45.184447 C48.6804147,45.184447 48.4617512,45.093894 48.2973502,44.9294931 C47.9579493,44.5900922 47.9579493,44.037788 48.2973502,43.6983871 C48.4617512,43.5339862 48.6804147,43.443318 48.9129032,43.443318 C49.1455069,43.443318 49.3640553,43.533871 49.5285714,43.6983871 C49.6929724,43.862788 49.7835253,44.0813364 49.7835253,44.3139401 C49.7835253,44.5463134 49.6930876,44.764977 49.5284562,44.9294931 Z" id="Shape"></path>
            </g>
        </g>
    </g>
</svg>