<?xml version="1.0" encoding="UTF-8"?>
<svg width="51px" height="38px" viewBox="0 0 51 38" version="1.1" xmlns="http://www.w3.org/2000/svg" xmlns:xlink="http://www.w3.org/1999/xlink">
    <!-- Generator: Sketch 43.2 (39069) - http://www.bohemiancoding.com/sketch -->
    <title>sheets</title>
    <desc>Created with Sketch.</desc>
    <defs></defs>
    <g id="Page-1" stroke="none" stroke-width="1" fill="none" fill-rule="evenodd">
        <g id="Desktop-Landscape" transform="translate(-548.000000, -596.000000)" fill-rule="nonzero" fill="#000000">
            <g id="sheets" transform="translate(548.059182, 596.000000)">
                <path d="M10.9095703,6.27519531 L9.34365234,6.27519531 C8.9390625,6.27519531 8.61123047,6.603125 8.61123047,7.00761719 C8.61123047,7.41210938 8.9390625,7.74003906 9.34365234,7.74003906 L10.9095703,7.74003906 C11.3141602,7.74003906 11.6419922,7.41210938 11.6419922,7.00761719 C11.6419922,6.603125 11.3140625,6.27519531 10.9095703,6.27519531 Z" id="Shape"></path>
                <path d="M39.0908203,3.14384766 L37.525,3.14384766 C37.1204102,3.14384766 36.7925781,3.47177734 36.7925781,3.87626953 C36.7925781,4.28076172 37.1204102,4.60869141 37.525,4.60869141 L39.0908203,4.60869141 C39.4954102,4.60869141 39.8232422,4.28076172 39.8232422,3.87626953 C39.8232422,3.47177734 39.4954102,3.14384766 39.0908203,3.14384766 Z" id="Shape"></path>
                <path d="M47.7019531,12.537793 L46.7982422,12.537793 C46.5792969,11.4020508 45.8619141,10.4421875 44.8830078,9.8953125 C45.1472656,9.52109375 45.303125,9.06523438 45.303125,8.57333984 C45.303125,7.30615234 44.272168,6.27529297 43.0050781,6.27529297 L42.8992188,6.27529297 C43.4232422,5.61572266 43.7375,4.78232422 43.7375,3.87636719 C43.7375,1.74589844 42.0041992,0.0126953125 39.8738281,0.0126953125 L8.56064453,0.0126953125 C7.29345703,0.0126953125 6.26259766,1.04365234 6.26259766,2.31074219 C6.26259766,2.80263672 6.41845703,3.25859375 6.68271484,3.6328125 C5.49941406,4.29394531 4.69707031,5.55859375 4.69707031,7.00771484 C4.69707031,7.91357422 5.01132813,8.74707031 5.53535156,9.40654297 L5.42929688,9.40654297 C4.16210938,9.40654297 3.13125,10.4375 3.13125,11.7045898 C3.13125,11.9984375 3.18730469,12.2792969 3.28828125,12.537793 L2.29804688,12.537793 C1.03095703,12.537793 0,13.56875 0,14.8358398 C0,15.8799805 0.700195312,16.7630859 1.65546875,17.0417969 L4.19482422,33.5472656 C4.54609375,35.8302734 6.47744141,37.4873047 8.78730469,37.4873047 L41.2125977,37.4873047 C43.5224609,37.4873047 45.4539063,35.8302734 45.8050781,33.5472656 L48.3444336,17.0416992 C49.2998047,16.7630859 50,15.8799805 50,14.8358398 C50,13.5686523 48.969043,12.537793 47.7019531,12.537793 Z M8.56083984,4.60878906 L34.3938477,4.60878906 C34.7984375,4.60878906 35.1262695,4.28085938 35.1262695,3.87636719 C35.1262695,3.471875 34.7984375,3.14394531 34.3938477,3.14394531 L8.56064453,3.14394531 C8.10117188,3.14394531 7.72744141,2.77011719 7.72744141,2.31074219 C7.72744141,1.85136719 8.10117188,1.47753906 8.56064453,1.47753906 L39.8737305,1.47753906 C41.1964844,1.47753906 42.2725586,2.55371094 42.2725586,3.87636719 C42.2725586,5.19902344 41.1963867,6.27529297 39.8737305,6.27529297 L14.0404297,6.27529297 C13.6358398,6.27529297 13.3080078,6.60322266 13.3080078,7.00771484 C13.3080078,7.41220703 13.6358398,7.74013672 14.0404297,7.74013672 L43.0049805,7.74013672 C43.4644531,7.74013672 43.8381836,8.11396484 43.8381836,8.57333984 C43.8381836,9.03271484 43.4644531,9.40654297 43.0049805,9.40654297 L8.56083984,9.40654297 C7.23808594,9.40654297 6.16201172,8.33037109 6.16201172,7.00761719 C6.16201172,5.68486328 7.23818359,4.60878906 8.56083984,4.60878906 Z M5.42929688,10.8713867 L43.0048828,10.8713867 C44.0722656,10.8713867 44.9786133,11.5722656 45.2889648,12.537793 L5.42939453,12.537793 C4.96992188,12.537793 4.59609375,12.1640625 4.59609375,11.7045898 C4.59609375,11.2451172 4.96982422,10.8713867 5.42929688,10.8713867 Z M3.15185547,17.1339844 L11.8019531,17.1339844 L11.8019531,17.1339844 L12.1094727,20.7575195 L3.70927734,20.7575195 L3.15185547,17.1339844 Z M3.93466797,22.2223633 L12.2338867,22.2223633 L12.5414062,25.8458008 L4.49208984,25.8458008 L3.93466797,22.2223633 Z M5.27490234,30.9341797 L4.71748047,27.3106445 L12.6658203,27.3106445 L12.9733398,30.9341797 L5.27490234,30.9341797 Z M8.78730469,36.0225586 C7.20566406,36.0225586 5.88310547,34.8878906 5.64267578,33.3246094 L5.50029297,32.3990234 L13.0976563,32.3990234 L13.190918,33.4979492 C13.2750977,34.4892578 13.5339844,35.3536133 13.9164063,36.0225586 L8.78730469,36.0225586 L8.78730469,36.0225586 Z M24.2675781,36.0225586 L16.0550781,36.0225586 C15.4853516,36.0225586 14.7849609,34.9583008 14.6504883,33.3740234 L14.5676758,32.3990234 L24.2675781,32.3990234 L24.2675781,36.0225586 Z M24.2675781,25.8458008 L22.6517578,25.8458008 C22.247168,25.8458008 21.9193359,26.1737305 21.9193359,26.5782227 C21.9193359,26.9827148 22.247168,27.3106445 22.6517578,27.3106445 L24.2675781,27.3106445 L24.2675781,30.9341797 L14.443457,30.9341797 L14.1358398,27.3106445 L19.5201172,27.3106445 C19.924707,27.3106445 20.2525391,26.9827148 20.2525391,26.5782227 C20.2525391,26.1737305 19.924707,25.8458008 19.5201172,25.8458008 L14.0115234,25.8458008 L13.7039063,22.2223633 L24.2675781,22.2223633 L24.2675781,25.8458008 Z M24.2675781,20.7575195 L13.5795898,20.7575195 L13.2719727,17.1339844 L24.2675781,17.1339844 L24.2675781,20.7575195 Z M35.3496094,33.3740234 C35.2150391,34.9583008 34.5146484,36.0225586 33.9449219,36.0225586 L25.7324219,36.0225586 L25.7324219,32.3990234 L35.4323242,32.3990234 L35.3496094,33.3740234 Z M35.5567383,30.9341797 L25.7324219,30.9341797 L25.7324219,27.3106445 L35.8642578,27.3106445 L35.5567383,30.9341797 Z M25.7324219,25.8458008 L25.7324219,22.2223633 L36.2960938,22.2223633 L35.9885742,25.8458008 L25.7324219,25.8458008 Z M25.7324219,20.7575195 L25.7324219,17.1339844 L36.7280273,17.1339844 L36.4205078,20.7575195 L25.7324219,20.7575195 Z M44.3574219,33.324707 C44.1168945,34.8878906 42.7943359,36.0225586 41.2126953,36.0225586 L36.0836914,36.0225586 C36.4661133,35.3536133 36.7250977,34.4892578 36.8092773,33.4979492 L36.9025391,32.3990234 L44.4998047,32.3990234 L44.3574219,33.324707 Z M44.7250977,30.9341797 L37.0267578,30.9341797 L37.3342773,27.3106445 L45.2825195,27.3106445 L44.7250977,30.9341797 Z M45.5079102,25.8458008 L37.4585938,25.8458008 L37.7661133,22.2223633 L46.065332,22.2223633 L45.5079102,25.8458008 Z M47.7019531,15.6691406 L43.0048828,15.6691406 C42.600293,15.6691406 42.2724609,15.9970703 42.2724609,16.4015625 C42.2724609,16.8060547 42.600293,17.1339844 43.0048828,17.1339844 L46.8481445,17.1339844 L46.2907227,20.7575195 L37.8905273,20.7575195 L38.1980469,17.1339844 L39.8737305,17.1339844 C40.2783203,17.1339844 40.6061523,16.8060547 40.6061523,16.4015625 C40.6061523,15.9970703 40.2783203,15.6691406 39.8737305,15.6691406 L2.29804687,15.6691406 C1.83857422,15.6691406 1.46484375,15.2953125 1.46484375,14.8359375 C1.46484375,14.3765625 1.83857422,14.0027344 2.29804687,14.0027344 L47.7019531,14.0027344 C48.1614258,14.0027344 48.5351562,14.3765625 48.5351562,14.8359375 C48.5351562,15.2953125 48.1614258,15.6691406 47.7019531,15.6691406 Z" id="Shape"></path>
            </g>
        </g>
    </g>
</svg>