<?xml version="1.0" encoding="UTF-8"?>
<svg width="36px" height="50px" viewBox="0 0 36 50" version="1.1" xmlns="http://www.w3.org/2000/svg" xmlns:xlink="http://www.w3.org/1999/xlink">
    <!-- Generator: Sketch 43.2 (39069) - http://www.bohemiancoding.com/sketch -->
    <title>shower</title>
    <desc>Created with Sketch.</desc>
    <defs></defs>
    <g id="Page-1" stroke="none" stroke-width="1" fill="none" fill-rule="evenodd">
        <g id="Desktop-Landscape" transform="translate(-290.000000, -590.000000)" fill-rule="nonzero" fill="#000000">
            <g id="shower" transform="translate(290.000000, 590.000000)">
                <path d="M10.8333333,33.3333333 C10.373125,33.3333333 10,33.7064583 10,34.1666667 L10,37.5 C10,37.9602083 10.373125,38.3333333 10.8333333,38.3333333 C11.2935417,38.3333333 11.6666667,37.9602083 11.6666667,37.5 L11.6666667,34.1666667 C11.6666667,33.7064583 11.2935417,33.3333333 10.8333333,33.3333333 Z" id="Shape"></path>
                <path d="M14.1666667,33.3333333 C13.7064583,33.3333333 13.3333333,33.7064583 13.3333333,34.1666667 L13.3333333,37.5 C13.3333333,37.9602083 13.7064583,38.3333333 14.1666667,38.3333333 C14.626875,38.3333333 15,37.9602083 15,37.5 L15,34.1666667 C15,33.7064583 14.626875,33.3333333 14.1666667,33.3333333 Z" id="Shape"></path>
                <path d="M4.16666667,33.3333333 C3.70645833,33.3333333 3.33333333,33.7064583 3.33333333,34.1666667 L3.33333333,37.5 C3.33333333,37.9602083 3.70645833,38.3333333 4.16666667,38.3333333 C4.626875,38.3333333 5,37.9602083 5,37.5 L5,34.1666667 C5,33.7064583 4.626875,33.3333333 4.16666667,33.3333333 Z" id="Shape"></path>
                <path d="M7.5,33.3333333 C7.03979167,33.3333333 6.66666667,33.7064583 6.66666667,34.1666667 L6.66666667,37.5 C6.66666667,37.9602083 7.03979167,38.3333333 7.5,38.3333333 C7.96020833,38.3333333 8.33333333,37.9602083 8.33333333,37.5 L8.33333333,34.1666667 C8.33333333,33.7064583 7.96020833,33.3333333 7.5,33.3333333 Z" id="Shape"></path>
                <path d="M17.5,33.3333333 C17.0397917,33.3333333 16.6666667,33.7064583 16.6666667,34.1666667 L16.6666667,37.5 C16.6666667,37.9602083 17.0397917,38.3333333 17.5,38.3333333 C17.9602083,38.3333333 18.3333333,37.9602083 18.3333333,37.5 L18.3333333,34.1666667 C18.3333333,33.7064583 17.9602083,33.3333333 17.5,33.3333333 Z" id="Shape"></path>
                <path d="M15.8333333,39.1666667 C15.373125,39.1666667 15,39.5397917 15,40 L15,43.3333333 C15,43.7935417 15.373125,44.1666667 15.8333333,44.1666667 C16.2935417,44.1666667 16.6666667,43.7935417 16.6666667,43.3333333 L16.6666667,40 C16.6666667,39.5397917 16.2935417,39.1666667 15.8333333,39.1666667 Z" id="Shape"></path>
                <path d="M19.1666667,39.1666667 C18.7064583,39.1666667 18.3333333,39.5397917 18.3333333,40 L18.3333333,43.3333333 C18.3333333,43.7935417 18.7064583,44.1666667 19.1666667,44.1666667 C19.626875,44.1666667 20,43.7935417 20,43.3333333 L20,40 C20,39.5397917 19.626875,39.1666667 19.1666667,39.1666667 Z" id="Shape"></path>
                <path d="M12.5,39.1666667 C12.0397917,39.1666667 11.6666667,39.5397917 11.6666667,40 L11.6666667,43.3333333 C11.6666667,43.7935417 12.0397917,44.1666667 12.5,44.1666667 C12.9602083,44.1666667 13.3333333,43.7935417 13.3333333,43.3333333 L13.3333333,40 C13.3333333,39.5397917 12.9602083,39.1666667 12.5,39.1666667 Z" id="Shape"></path>
                <path d="M9.16666667,39.1666667 C8.70645833,39.1666667 8.33333333,39.5397917 8.33333333,40 L8.33333333,43.3333333 C8.33333333,43.7935417 8.70645833,44.1666667 9.16666667,44.1666667 C9.626875,44.1666667 10,43.7935417 10,43.3333333 L10,40 C10,39.5397917 9.626875,39.1666667 9.16666667,39.1666667 Z" id="Shape"></path>
                <path d="M5.83333333,39.1666667 C5.373125,39.1666667 5,39.5397917 5,40 L5,43.3333333 C5,43.7935417 5.373125,44.1666667 5.83333333,44.1666667 C6.29354167,44.1666667 6.66666667,43.7935417 6.66666667,43.3333333 L6.66666667,40 C6.66666667,39.5397917 6.29354167,39.1666667 5.83333333,39.1666667 Z" id="Shape"></path>
                <path d="M2.5,39.1666667 C2.03979167,39.1666667 1.66666667,39.5397917 1.66666667,40 L1.66666667,43.3333333 C1.66666667,43.7935417 2.03979167,44.1666667 2.5,44.1666667 C2.96020833,44.1666667 3.33333333,43.7935417 3.33333333,43.3333333 L3.33333333,40 C3.33333333,39.5397917 2.96020833,39.1666667 2.5,39.1666667 Z" id="Shape"></path>
                <path d="M14.1666667,45 C13.7064583,45 13.3333333,45.373125 13.3333333,45.8333333 L13.3333333,49.1666667 C13.3333333,49.626875 13.7064583,50 14.1666667,50 C14.626875,50 15,49.626875 15,49.1666667 L15,45.8333333 C15,45.373125 14.626875,45 14.1666667,45 Z" id="Shape"></path>
                <path d="M17.5,45 C17.0397917,45 16.6666667,45.373125 16.6666667,45.8333333 L16.6666667,49.1666667 C16.6666667,49.626875 17.0397917,50 17.5,50 C17.9602083,50 18.3333333,49.626875 18.3333333,49.1666667 L18.3333333,45.8333333 C18.3333333,45.373125 17.9602083,45 17.5,45 Z" id="Shape"></path>
                <path d="M20.8333333,45 C20.373125,45 20,45.373125 20,45.8333333 L20,49.1666667 C20,49.626875 20.373125,50 20.8333333,50 C21.2935417,50 21.6666667,49.626875 21.6666667,49.1666667 L21.6666667,45.8333333 C21.6666667,45.373125 21.2935417,45 20.8333333,45 Z" id="Shape"></path>
                <path d="M10.8333333,45 C10.373125,45 10,45.373125 10,45.8333333 L10,49.1666667 C10,49.626875 10.373125,50 10.8333333,50 C11.2935417,50 11.6666667,49.626875 11.6666667,49.1666667 L11.6666667,45.8333333 C11.6666667,45.373125 11.2935417,45 10.8333333,45 Z" id="Shape"></path>
                <path d="M7.5,45 C7.03979167,45 6.66666667,45.373125 6.66666667,45.8333333 L6.66666667,49.1666667 C6.66666667,49.626875 7.03979167,50 7.5,50 C7.96020833,50 8.33333333,49.626875 8.33333333,49.1666667 L8.33333333,45.8333333 C8.33333333,45.373125 7.96020833,45 7.5,45 Z" id="Shape"></path>
                <path d="M4.16666667,45 C3.70645833,45 3.33333333,45.373125 3.33333333,45.8333333 L3.33333333,49.1666667 C3.33333333,49.626875 3.70645833,50 4.16666667,50 C4.626875,50 5,49.626875 5,49.1666667 L5,45.8333333 C5,45.373125 4.626875,45 4.16666667,45 Z" id="Shape"></path>
                <path d="M0.833333333,45 C0.373125,45 0,45.373125 0,45.8333333 L0,49.1666667 C0,49.626875 0.373125,50 0.833333333,50 C1.29354167,50 1.66666667,49.626875 1.66666667,49.1666667 L1.66666667,45.8333333 C1.66666667,45.373125 1.29354167,45 0.833333333,45 Z" id="Shape"></path>
                <path d="M35,0 C32.7,0.00270833333 30.8360417,1.86666667 30.8333333,4.16666667 L30.8333333,5 L10.8333333,5 C9.45260417,5 8.33333333,6.11927083 8.33333333,7.5 L8.33333333,14.1666667 L7.5,14.1666667 C7.03979167,14.1666667 6.66666667,14.5397917 6.66666667,15 L6.66666667,19.1766667 C2.63302083,20.8573958 0.0040625,24.796875 0,29.1666667 L0,31.6666667 C0,32.126875 0.373125,32.5 0.833333333,32.5 L20.8333333,32.5 C21.2935417,32.5 21.6666667,32.126875 21.6666667,31.6666667 L21.6666667,29.1666667 C21.6626042,24.796875 19.0336458,20.8573958 15,19.1766667 L15,15 C15,14.5397917 14.626875,14.1666667 14.1666667,14.1666667 L13.3333333,14.1666667 L13.3333333,10 L30.8333333,10 L30.8333333,10.8333333 C30.8360417,13.1333333 32.7,14.9972917 35,15 C35.4602083,15 35.8333333,14.626875 35.8333333,14.1666667 L35.8333333,0.833333333 C35.8333333,0.373125 35.4602083,0 35,0 Z M13.3333333,15.8333333 L13.3333333,18.625 C13.25,18.605 13.1666667,18.5975 13.0783333,18.58 C12.8371875,18.5283333 12.5944792,18.4853125 12.35,18.4508333 C12.2066667,18.4308333 12.0633333,18.4108333 11.9183333,18.3958333 C11.6238542,18.3669792 11.3283333,18.35 11.0316667,18.345 C10.965,18.345 10.9,18.3333333 10.8333333,18.3333333 C10.7666667,18.3333333 10.7066667,18.3433333 10.6433333,18.3441667 C10.3425,18.3491667 10.0416667,18.3666667 9.7425,18.3966667 C9.6025,18.41 9.46333333,18.43 9.32583333,18.4491667 C9.07583333,18.485 8.82583333,18.5325 8.57583333,18.5816667 C8.4925,18.5991667 8.40916667,18.6058333 8.33416667,18.625 L8.33333333,15.8333333 L13.3333333,15.8333333 Z M20,30.8333333 L1.66666667,30.8333333 L1.66666667,30 L20,30 L20,30.8333333 Z M13.8858333,20.5283333 C17.2617708,21.7201042 19.6348958,24.7682292 19.9625,28.3333333 L1.70416667,28.3333333 C2.16864583,23.2888542 6.63447917,19.5759375 11.6789583,20.0404167 C11.9157292,20.0621875 12.1514583,20.0932292 12.3858333,20.1333333 C12.8964583,20.220625 13.3984375,20.3528125 13.8858333,20.5283333 Z M30.8333333,8.33333333 L12.5,8.33333333 C12.0397917,8.33333333 11.6666667,8.70645833 11.6666667,9.16666667 L11.6666667,14.1666667 L10,14.1666667 L10,7.5 C10,7.03979167 10.373125,6.66666667 10.8333333,6.66666667 L30.8333333,6.66666667 L30.8333333,8.33333333 Z M34.1666667,13.1908333 C33.1685417,12.8363542 32.50125,11.8925 32.5,10.8333333 L32.5,4.16666667 C32.50125,3.1075 33.1685417,2.16364583 34.1666667,1.80916667 L34.1666667,13.1908333 Z" id="Shape"></path>
            </g>
        </g>
    </g>
</svg>