<?xml version="1.0" encoding="UTF-8"?>
<svg width="37px" height="50px" viewBox="0 0 37 50" version="1.1" xmlns="http://www.w3.org/2000/svg" xmlns:xlink="http://www.w3.org/1999/xlink">
    <!-- Generator: Sketch 43.2 (39069) - http://www.bohemiancoding.com/sketch -->
    <title>surf</title>
    <desc>Created with Sketch.</desc>
    <defs></defs>
    <g id="Page-1" stroke="none" stroke-width="1" fill="none" fill-rule="evenodd">
        <g id="Desktop-Landscape" transform="translate(-227.000000, -503.000000)" fill-rule="nonzero" fill="#000000">
            <g id="surf" transform="translate(227.000000, 503.000000)">
                <path d="M9.63486328,7.73574219 C9.09560547,7.73574219 8.65830078,8.17304687 8.65830078,8.71230469 L8.65830078,36.7944336 C8.65830078,37.3336914 9.09560547,37.7709961 9.63486328,37.7709961 C10.1741211,37.7709961 10.6114258,37.3336914 10.6114258,36.7944336 L10.6114258,8.71230469 C10.6114258,8.17294922 10.1741211,7.73574219 9.63486328,7.73574219 Z" id="Shape"></path>
                <path d="M10.5918945,40.5454102 C10.5801758,40.4829102 10.5606445,40.4223633 10.5362305,40.362793 C10.5118164,40.3041016 10.4814453,40.2474609 10.4463867,40.1947266 C10.4112305,40.1410156 10.3702148,40.0912109 10.325293,40.0454102 C10.2803711,40.0004883 10.2305664,39.9604492 10.1768555,39.9243164 C10.1241211,39.8891602 10.0674805,39.8588867 10.0079102,39.8344727 C9.94931641,39.8100586 9.88789063,39.7915039 9.82529297,39.7788086 C9.69931641,39.753418 9.57050781,39.753418 9.44345703,39.7788086 C9.38193359,39.7915039 9.32041016,39.8100586 9.26083984,39.8344727 C9.20224609,39.8588867 9.14560547,39.8891602 9.09287109,39.9243164 C9.03916016,39.9604492 8.98935547,40.0004883 8.94443359,40.0454102 C8.89951172,40.0913086 8.85849609,40.1410156 8.82236328,40.1947266 C8.78720703,40.2474609 8.75693359,40.3041016 8.73349609,40.362793 C8.70908203,40.4222656 8.68955078,40.4828125 8.67783203,40.5454102 C8.66513672,40.6087891 8.65830078,40.6723633 8.65830078,40.7368164 C8.65830078,40.8001953 8.66513672,40.8637695 8.67783203,40.9271484 C8.68955078,40.9897461 8.70908203,41.0512695 8.73349609,41.1097656 C8.75791016,41.168457 8.78818359,41.2250977 8.82333984,41.2787109 C8.85849609,41.3314453 8.89951172,41.3822266 8.94443359,41.4271484 C8.98935547,41.4720703 9.03916016,41.5130859 9.09287109,41.5482422 C9.14560547,41.5833984 9.20224609,41.6136719 9.26083984,41.6380859 C9.32041016,41.6625 9.38193359,41.6810547 9.44345703,41.69375 C9.50693359,41.7064453 9.57148438,41.7132813 9.63486328,41.7132813 C9.69833984,41.7132813 9.76289063,41.7064453 9.82529297,41.69375 C9.88789063,41.6810547 9.94941406,41.6625 10.0079102,41.6380859 C10.0674805,41.6136719 10.1241211,41.5833984 10.1768555,41.5482422 C10.2305664,41.5130859 10.2803711,41.4720703 10.325293,41.4271484 C10.3702148,41.3822266 10.4112305,41.331543 10.4463867,41.2787109 C10.4814453,41.225 10.5118164,41.1683594 10.5362305,41.1097656 C10.5606445,41.0511719 10.5801758,40.9897461 10.5918945,40.9271484 C10.6045898,40.8637695 10.6113281,40.8001953 10.6113281,40.7368164 C10.6113281,40.6723633 10.6045898,40.6087891 10.5918945,40.5454102 Z" id="Shape"></path>
                <path d="M28.2359375,32.6097656 C28.0674805,32.6097656 27.9003906,32.6151367 27.734375,32.624707 C29.1683594,28.1157227 30.0893555,23.6796875 30.4862305,19.3438477 C31.197168,11.5763672 30.0700195,5.81582031 28.9992187,2.35097656 C28.6598633,1.25263672 27.7948242,0.417578125 26.6852539,0.1171875 C25.5754883,-0.182910156 24.4075195,0.101464844 23.5603516,0.878613281 C21.5686523,2.70556641 18.906543,5.61875 16.3116211,9.90849609 C15.0710937,6.33300781 13.6392578,3.63037109 12.4521484,1.75429687 C11.8375,0.7828125 10.7842773,0.202734375 9.63476562,0.202734375 C8.48535156,0.202734375 7.43212891,0.782714844 6.81748047,1.75429687 C4.87851562,4.81884766 2.28505859,10.0847656 0.941503906,17.7680664 C-0.6796875,27.0391602 -0.0635742188,37.4005859 2.77236328,48.5645508 C2.92412109,49.1619141 3.35830078,49.6508789 3.93398437,49.8725586 C4.15556641,49.9579102 4.38789062,49.9999023 4.61953125,49.9999023 C4.99111328,49.9999023 5.36025391,49.8917969 5.67724609,49.6808594 L9.63476562,47.0492188 L13.5922852,49.6807617 C14.1069336,50.0231445 14.7586914,50.0947266 15.3356445,49.8725586 C15.9113281,49.6508789 16.3455078,49.1620117 16.4972656,48.5646484 C16.5557617,48.3342773 16.6119141,48.1046875 16.6685547,47.8749023 L17.5756836,48.9100586 C17.9396484,49.3253906 18.4655273,49.5608398 19.012207,49.5608398 C19.0773437,49.5608398 19.1427734,49.5574219 19.2083008,49.5506836 C19.8217773,49.487207 20.36875,49.1288086 20.6711914,48.5918945 C21.0095703,47.9915039 21.3389648,47.3916992 21.6604492,46.7927734 C23.2425781,48.659375 25.6030273,49.8464844 28.2359375,49.8464844 C32.9881836,49.8464844 36.8543945,45.9802734 36.8543945,41.228125 C36.8544922,36.4759766 32.9881836,32.6097656 28.2359375,32.6097656 Z M14.6207031,48.0191406 L10.6913086,45.4061523 C10.3704102,45.1927734 10.0026367,45.0861328 9.63496094,45.0861328 C9.26728516,45.0861328 8.89941406,45.1928711 8.57851562,45.4061523 L4.64912109,48.0191406 C1.89521484,37.1484375 1.2953125,27.0847656 2.86552734,18.1044922 C4.15390625,10.7361328 6.62324219,5.71396484 8.46796875,2.79863281 C8.72636719,2.39023437 9.15175781,2.15595703 9.63476562,2.15595703 C10.1178711,2.15595703 10.5432617,2.39023437 10.8016602,2.79863281 C12.6462891,5.7140625 15.115625,10.7361328 16.4040039,18.1044922 C17.9743164,27.0842773 17.3741211,37.1492188 14.6207031,48.0191406 Z M20.4459961,44.9126953 C19.9836914,45.7980469 19.502832,46.6855469 19.0024414,47.5748047 L17.2160156,45.5362305 C18.2620117,40.7975586 18.8960937,36.2126953 19.1185547,31.8037109 L25.4041992,8.58613281 C25.5451172,8.06552734 25.2374023,7.52929687 24.7167969,7.38828125 C24.196582,7.24716797 23.6599609,7.55517578 23.5189453,8.07568359 L19.0950195,24.4164062 C18.9598633,22.1439453 18.7053711,19.9260742 18.3280273,17.7681641 C17.9902344,15.8363281 17.5733398,14.0576172 17.1078125,12.4280273 C19.8521484,7.49414062 22.7655273,4.25800781 24.8806641,2.31787109 C25.2368164,1.99121094 25.7086914,1.87636719 26.1749023,2.00253906 C26.6412109,2.12880859 26.990625,2.46601562 27.1333008,2.92773437 C28.1519531,6.22392578 29.2230469,11.7167969 28.5412109,19.1658203 C28.1277344,23.6830078 27.1250977,28.3186523 25.5451172,33.0404297 C22.1067383,34.1733398 19.6175781,37.4152344 19.6175781,41.228125 C19.6175781,42.5457031 19.9151367,43.7949219 20.4459961,44.9126953 Z M28.2359375,47.8933594 C27.3948242,47.8933594 26.5904297,47.7351562 25.8487305,47.4496094 C25.6828125,46.5686523 25.0831055,42.5063477 27.5808594,40.1882813 C27.9761719,39.8212891 27.9992187,39.203418 27.6323242,38.8081055 C27.265332,38.4126953 26.6474609,38.3898437 26.2521484,38.7566406 C24.734375,40.1654297 23.862793,42.2337891 23.7316406,44.7383789 C23.7052734,45.2418945 23.7113281,45.7150391 23.7341797,46.1383789 C22.4053711,44.9191406 21.5707031,43.1695312 21.5707031,41.2282227 C21.5707031,37.5529297 24.5606445,34.5629883 28.2359375,34.5629883 C31.9112305,34.5629883 34.9012695,37.5529297 34.9012695,41.2282227 C34.9012695,44.9035156 31.9112305,47.8933594 28.2359375,47.8933594 Z" id="Shape"></path>
                <path d="M30.6888672,36.9350586 C30.6761719,36.8725586 30.6576172,36.8110352 30.6332031,36.7524414 C30.6087891,36.6929687 30.578418,36.6363281 30.5433594,36.5835937 C30.5072266,36.5298828 30.4671875,36.4799805 30.4212891,36.4350586 C30.3763672,36.3901367 30.3265625,36.3491211 30.2727539,36.3140625 C30.2200195,36.2789062 30.1633789,36.2486328 30.1047852,36.2242187 C30.0452148,36.1998047 29.9847656,36.1802734 29.922168,36.1675781 C29.7961914,36.1431641 29.6663086,36.1431641 29.540332,36.1675781 C29.477832,36.1802734 29.4163086,36.1998047 29.3577148,36.2242187 C29.2991211,36.2486328 29.2424805,36.2789062 29.1888672,36.3140625 C29.1361328,36.3491211 29.0852539,36.3901367 29.040332,36.4350586 C28.9954102,36.4799805 28.9543945,36.5298828 28.9193359,36.5835937 C28.8841797,36.6363281 28.8539062,36.6929687 28.8294922,36.7524414 C28.8050781,36.8111328 28.7865234,36.8725586 28.7738281,36.9350586 C28.7611328,36.9976562 28.7542969,37.0621094 28.7542969,37.1254883 C28.7542969,37.1889648 28.7611328,37.2535156 28.7738281,37.315918 C28.7865234,37.3783203 28.8050781,37.4399414 28.8294922,37.4985352 C28.8539062,37.5580078 28.8841797,37.6146484 28.9193359,37.6673828 C28.9543945,37.7211914 28.9954102,37.7709961 29.040332,37.815918 C29.0852539,37.8608398 29.1360352,37.9018555 29.1888672,37.9370117 C29.2425781,37.9720703 29.2992187,38.0024414 29.3577148,38.0268555 C29.4164062,38.0512695 29.477832,38.0707031 29.540332,38.0824219 C29.6038086,38.0951172 29.6673828,38.1019531 29.7317383,38.1019531 C29.7952148,38.1019531 29.8587891,38.0951172 29.922168,38.0824219 C29.9847656,38.0707031 30.0452148,38.0512695 30.1047852,38.0268555 C30.1633789,38.0024414 30.2200195,37.9720703 30.2727539,37.9370117 C30.3265625,37.9018555 30.3763672,37.8608398 30.4212891,37.815918 C30.4671875,37.7709961 30.5072266,37.7211914 30.5433594,37.6673828 C30.578418,37.6146484 30.6087891,37.5580078 30.6332031,37.4985352 C30.6576172,37.4398437 30.6760742,37.378418 30.6888672,37.315918 C30.7015625,37.253418 30.7083008,37.1889648 30.7083008,37.1254883 C30.7083008,37.0621094 30.7015625,36.9975586 30.6888672,36.9350586 Z" id="Shape"></path>
            </g>
        </g>
    </g>
</svg>