<?xml version="1.0" encoding="UTF-8"?>
<svg width="51px" height="50px" viewBox="0 0 51 50" version="1.1" xmlns="http://www.w3.org/2000/svg" xmlns:xlink="http://www.w3.org/1999/xlink">
    <!-- Generator: Sketch 43.2 (39069) - http://www.bohemiancoding.com/sketch -->
    <title>towel</title>
    <desc>Created with Sketch.</desc>
    <defs></defs>
    <g id="Page-1" stroke="none" stroke-width="1" fill="none" fill-rule="evenodd">
        <g id="Desktop-Landscape" transform="translate(-461.000000, -595.000000)" fill-rule="nonzero" fill="#000000">
            <g id="towel" transform="translate(461.059182, 595.000000)">
                <path d="M47.5,2.5 L46.31,2.5 C46.1016667,2.0225 45.8079167,1.58708333 45.4433333,1.215 C44.66125,0.437083333 43.603125,0.0003125 42.5,0 L10.8333333,0 C8.93104167,0.00583333333 7.15114583,0.938854167 6.06416667,2.5 L2.5,2.5 C1.11927083,2.5 0,3.61927083 0,5 C0,6.38072917 1.11927083,7.5 2.5,7.5 L5,7.5 L5,48.3333333 C5,48.7935417 5.373125,49.1666667 5.83333333,49.1666667 L39.1666667,49.1666667 C39.626875,49.1666667 40,48.7935417 40,48.3333333 L40,46.6666667 L45.8333333,46.6666667 C46.2935417,46.6666667 46.6666667,46.2935417 46.6666667,45.8333333 L46.6666667,7.5 L47.5,7.5 C48.8807292,7.5 50,6.38072917 50,5 C50,3.61927083 48.8807292,2.5 47.5,2.5 Z M5.2275,4.235 C5.17833333,4.40666667 5.14416667,4.58333333 5.11166667,4.76 C5.095,4.84833333 5.07083333,4.935 5.05833333,5.02416667 C5.02041667,5.29229167 5.0009375,5.56260417 5,5.83333333 L2.5,5.83333333 C2.03979167,5.83333333 1.66666667,5.46020833 1.66666667,5 C1.66666667,4.53979167 2.03979167,4.16666667 2.5,4.16666667 L5.2425,4.16666667 C5.23583333,4.18916667 5.23416667,4.2125 5.2275,4.235 Z M38.3333333,47.5 L6.66666667,47.5 L6.66666667,40.8333333 L38.3333333,40.8333333 L38.3333333,47.5 Z M38.3333333,39.1666667 L6.66666667,39.1666667 L6.66666667,35.8333333 L38.3333333,35.8333333 L38.3333333,39.1666667 Z M39.0975,1.775 C39.0466667,1.8475 39,1.9225 38.9541667,1.99833333 C38.8866667,2.10916667 38.8241667,2.2225 38.7666667,2.34 C38.7283333,2.42333333 38.6916667,2.5 38.6575,2.5825 C38.6366667,2.63416667 38.6091667,2.68083333 38.5908333,2.7325 L38.5858333,2.73916667 C38.5379167,2.79208333 38.4970833,2.85083333 38.4641667,2.91416667 C38.4414583,2.94322917 38.4208333,2.97385417 38.4025,3.00583333 C38.3571875,3.1090625 38.3336458,3.220625 38.3333333,3.33333333 L38.3333333,34.1666667 L6.66666667,34.1666667 L6.66666667,5.83333333 C6.66197917,5.10052083 6.85708333,4.3803125 7.23083333,3.75 C7.9740625,2.46270833 9.346875,1.66875 10.8333333,1.66666667 L39.1666667,1.66666667 C39.1408333,1.70083333 39.1216667,1.74 39.0975,1.775 Z M40.6516667,2.485 C40.7564583,2.36958333 40.8719792,2.264375 40.9966667,2.17083333 C41.0291667,2.14583333 41.0658333,2.12666667 41.0991667,2.10416667 C41.1959375,2.0378125 41.2972917,1.9784375 41.4025,1.92666667 C41.4508333,1.9025 41.5,1.88166667 41.55,1.86166667 C41.6535417,1.8190625 41.7598958,1.78364583 41.8683333,1.75583333 C41.9166667,1.74333333 41.9641667,1.72833333 42.0133333,1.71916667 C42.1734375,1.685625 42.3364583,1.66802083 42.5,1.66666667 C43.1603125,1.66666667 43.7939583,1.9271875 44.2633333,2.39166667 C44.2975,2.42666667 44.3333333,2.46333333 44.3633333,2.5 L40.6391667,2.5 L40.6516667,2.485 Z M45,45 L40,45 L40,7.5 L45,7.5 L45,45 Z M47.5,5.83333333 L40,5.83333333 L40,4.16666667 L47.5,4.16666667 C47.9602083,4.16666667 48.3333333,4.53979167 48.3333333,5 C48.3333333,5.46020833 47.9602083,5.83333333 47.5,5.83333333 Z" id="Shape"></path>
            </g>
        </g>
    </g>
</svg>