<?xml version="1.0" encoding="UTF-8"?>
<svg width="42px" height="50px" viewBox="0 0 42 50" version="1.1" xmlns="http://www.w3.org/2000/svg" xmlns:xlink="http://www.w3.org/1999/xlink">
    <!-- Generator: Sketch 43.2 (39069) - http://www.bohemiancoding.com/sketch -->
    <title>WashingMachine</title>
    <desc>Created with Sketch.</desc>
    <defs></defs>
    <g id="Page-1" stroke="none" stroke-width="1" fill="none" fill-rule="evenodd">
        <g id="Desktop-Landscape" transform="translate(-211.000000, -452.000000)" fill-rule="nonzero" fill="#000000">
            <g id="WashingMachine" transform="translate(211.000000, 452.000000)">
                <path d="M18.0397917,41.2334375 C24.2640625,42.7945833 30.5754167,39.014375 32.1366667,32.7901042 C32.8316667,30.019375 32.4815625,27.0897917 31.1533333,24.5607292 C31.0766667,24.4165625 30.9925,24.2773958 30.9116667,24.1382292 C30.8575,24.0448958 30.8075,23.9482292 30.7508333,23.8573958 C30.7025,23.7798958 30.65,23.7073958 30.6,23.6315625 C30.5033333,23.4823958 30.4083333,23.3323958 30.305,23.1890625 C30.2866667,23.1632292 30.2658333,23.1390625 30.2466667,23.1132292 C28.7083333,21.003125 26.5048958,19.4717708 23.9908333,18.7657292 C23.8925,18.7382292 23.7925,18.7182292 23.6933333,18.6932292 C17.4690625,17.1320833 11.1577083,20.9122917 9.59645833,27.1365625 C8.03520833,33.3608333 11.8155208,39.6722917 18.0397917,41.2334375 Z M30.0758333,26.2075 C30.0941667,26.2508333 30.1175,26.2908333 30.135,26.3375 C30.18,26.4508333 30.2183333,26.5658333 30.2583333,26.6808333 C30.3416667,26.9175 30.4183333,27.1566667 30.4833333,27.3991667 C30.5175,27.525 30.5491667,27.6491667 30.5783333,27.78 C30.635,28.03 30.6791667,28.28 30.7166667,28.535 C30.7333333,28.65 30.7541667,28.7641667 30.7666667,28.88 C30.8555208,29.6229167 30.8555208,30.37375 30.7666667,31.1166667 L30.7666667,31.1183333 C30.7541667,31.2341667 30.7333333,31.3483333 30.7166667,31.4633333 C30.6791667,31.7133333 30.6333333,31.97 30.5783333,32.2191667 C30.5491667,32.3466667 30.5175,32.4733333 30.4833333,32.5983333 C30.4183333,32.8416667 30.3416667,33.0816667 30.2575,33.32 C30.2166667,33.4333333 30.18,33.5483333 30.135,33.6608333 C30.1175,33.705 30.0941667,33.7441667 30.0758333,33.7908333 C27.9817708,31.995 27.74,28.8415625 29.5358333,26.7475 C29.7017708,26.5539583 29.8822917,26.3734375 30.0758333,26.2075 Z M20.8278125,20 C24.2735417,19.9990625 27.4770833,21.7721875 29.3058333,24.6925 C26.3745833,26.9113542 25.7970833,31.0864583 28.0160417,34.0177083 C28.3847917,34.5047917 28.81875,34.9388542 29.3058333,35.3075 C27.48125,38.2294792 24.2782292,40.0035417 20.8333333,40 C15.3105208,40.0015625 10.8320833,35.525625 10.8305208,30.0028125 C10.8289583,24.48 15.3048958,20.0015625 20.8278125,20 Z" id="Shape"></path>
                <path d="M20.8333333,38.3333333 C21.2935417,38.3333333 21.6666667,37.9602083 21.6666667,37.5 C21.6666667,37.0397917 21.2935417,36.6666667 20.8333333,36.6666667 C17.153125,36.6625 14.1708333,33.6802083 14.1666667,30 C14.1666667,29.5397917 13.7935417,29.1666667 13.3333333,29.1666667 C12.873125,29.1666667 12.5,29.5397917 12.5,30 C12.5051042,34.6003125 16.2330208,38.3282292 20.8333333,38.3333333 Z" id="Shape"></path>
                <path d="M39.1666667,0 L2.5,0 C1.11927083,0 0,1.11927083 0,2.5 L0,49.1666667 C0,49.626875 0.373125,50 0.833333333,50 L40.8333333,50 C41.2935417,50 41.6666667,49.626875 41.6666667,49.1666667 L41.6666667,2.5 C41.6666667,1.11927083 40.5473958,0 39.1666667,0 Z M40,48.3333333 L1.66666667,48.3333333 L1.66666667,11.6666667 L40,11.6666667 L40,48.3333333 Z M40,10 L1.66666667,10 L1.66666667,2.5 C1.66666667,2.03979167 2.03979167,1.66666667 2.5,1.66666667 L39.1666667,1.66666667 C39.626875,1.66666667 40,2.03979167 40,2.5 L40,10 Z" id="Shape"></path>
                <path d="M26.6666667,2.5 L15,2.5 C14.5397917,2.5 14.1666667,2.873125 14.1666667,3.33333333 L14.1666667,8.33333333 C14.1666667,8.79354167 14.5397917,9.16666667 15,9.16666667 L26.6666667,9.16666667 C27.126875,9.16666667 27.5,8.79354167 27.5,8.33333333 L27.5,3.33333333 C27.5,2.873125 27.126875,2.5 26.6666667,2.5 Z M25.8333333,7.5 L15.8333333,7.5 L15.8333333,4.16666667 L25.8333333,4.16666667 L25.8333333,7.5 Z" id="Shape"></path>
                <path d="M11.6666667,3.33333333 L10,3.33333333 C9.53979167,3.33333333 9.16666667,3.70645833 9.16666667,4.16666667 C9.16666667,4.626875 9.53979167,5 10,5 L11.6666667,5 C12.126875,5 12.5,4.626875 12.5,4.16666667 C12.5,3.70645833 12.126875,3.33333333 11.6666667,3.33333333 Z" id="Shape"></path>
                <path d="M11.6666667,6.66666667 L10,6.66666667 C9.53979167,6.66666667 9.16666667,7.03979167 9.16666667,7.5 C9.16666667,7.96020833 9.53979167,8.33333333 10,8.33333333 L11.6666667,8.33333333 C12.126875,8.33333333 12.5,7.96020833 12.5,7.5 C12.5,7.03979167 12.126875,6.66666667 11.6666667,6.66666667 Z" id="Shape"></path>
                <path d="M37.5,3.33333333 L35.8333333,3.33333333 C35.373125,3.33333333 35,3.70645833 35,4.16666667 C35,4.626875 35.373125,5 35.8333333,5 L37.5,5 C37.9602083,5 38.3333333,4.626875 38.3333333,4.16666667 C38.3333333,3.70645833 37.9602083,3.33333333 37.5,3.33333333 Z" id="Shape"></path>
                <path d="M37.5,6.66666667 L35.8333333,6.66666667 C35.373125,6.66666667 35,7.03979167 35,7.5 C35,7.96020833 35.373125,8.33333333 35.8333333,8.33333333 L37.5,8.33333333 C37.9602083,8.33333333 38.3333333,7.96020833 38.3333333,7.5 C38.3333333,7.03979167 37.9602083,6.66666667 37.5,6.66666667 Z" id="Shape"></path>
                <path d="M31.6666667,3.33333333 C30.2859375,3.33333333 29.1666667,4.45260417 29.1666667,5.83333333 C29.1666667,7.2140625 30.2859375,8.33333333 31.6666667,8.33333333 C33.0473958,8.33333333 34.1666667,7.2140625 34.1666667,5.83333333 C34.1666667,4.45260417 33.0473958,3.33333333 31.6666667,3.33333333 Z M31.6666667,6.66666667 C31.2064583,6.66666667 30.8333333,6.29354167 30.8333333,5.83333333 C30.8333333,5.373125 31.2064583,5 31.6666667,5 C32.126875,5 32.5,5.373125 32.5,5.83333333 C32.5,6.29354167 32.126875,6.66666667 31.6666667,6.66666667 Z" id="Shape"></path>
                <path d="M5.83333333,3.33333333 C4.45260417,3.33333333 3.33333333,4.45260417 3.33333333,5.83333333 C3.33333333,7.2140625 4.45260417,8.33333333 5.83333333,8.33333333 C7.2140625,8.33333333 8.33333333,7.2140625 8.33333333,5.83333333 C8.33333333,4.45260417 7.2140625,3.33333333 5.83333333,3.33333333 Z M5.83333333,6.66666667 C5.373125,6.66666667 5,6.29354167 5,5.83333333 C5,5.373125 5.373125,5 5.83333333,5 C6.29354167,5 6.66666667,5.373125 6.66666667,5.83333333 C6.66666667,6.29354167 6.29354167,6.66666667 5.83333333,6.66666667 Z" id="Shape"></path>
                <path d="M20.8333333,45 C29.1176042,45 35.8333333,38.2842708 35.8333333,30 C35.8236458,21.7196875 29.1136458,15.0096875 20.8333333,15 C12.5490625,15 5.83333333,21.7157292 5.83333333,30 C5.83333333,38.2842708 12.5490625,45 20.8333333,45 Z M20.8333333,16.6666667 C28.1970833,16.6666667 34.1666667,22.63625 34.1666667,30 C34.1579167,37.3602083 28.1935417,43.3245833 20.8333333,43.3333333 C13.4695833,43.3333333 7.5,37.36375 7.5,30 C7.5,22.63625 13.4695833,16.6666667 20.8333333,16.6666667 Z" id="Shape"></path>
            </g>
        </g>
    </g>
</svg>