<?xml version="1.0" encoding="UTF-8"?>
<svg width="51px" height="52px" viewBox="0 0 51 52" version="1.1" xmlns="http://www.w3.org/2000/svg" xmlns:xlink="http://www.w3.org/1999/xlink">
    <!-- Generator: Sketch 43.2 (39069) - http://www.bohemiancoding.com/sketch -->
    <title>wc</title>
    <desc>Created with Sketch.</desc>
    <defs></defs>
    <g id="Page-1" stroke="none" stroke-width="1" fill="none" fill-rule="evenodd">
        <g id="Desktop-Landscape" transform="translate(-115.000000, -481.000000)" stroke="#000000" fill-rule="nonzero">
            <g id="wc" transform="translate(116.000000, 482.000000)">
                <path d="M10.9286058,8.80024038 C13.3569712,8.78846154 15.3158654,6.79927885 15.3040865,4.37067308 C15.2899038,1.94927885 13.3100962,-0.00697115385 10.8814904,0 C8.45769231,0.009375 6.49206731,1.99158654 6.50600962,4.42235577 C6.52019231,6.84855769 8.50721154,8.81442308 10.9286058,8.80024038 Z" id="Shape"></path>
                <path d="M48.9076923,25.296875 L45.6290865,15.1838942 C43.9733173,10.1814904 37.9350962,10.4067308 35.4995192,10.3951923 L35.4995192,10.3903846 L34.8629808,10.3903846 L34.8629808,10.3927885 L32.5612981,10.4045673 C26.2622596,10.5502404 24.7403846,15.1817308 24.7403846,15.1817308 L21.4569712,25.2947115 C21.4569712,25.2947115 20.5269231,27.2793269 22.2860577,27.9673077 C23.6389423,28.5050481 24.2776442,27.5961538 24.7192308,26.45 L28.4394231,15.9752404 L29.5949519,15.9704327 L24.115625,32.896875 L29.7122596,32.896875 L29.7615385,47.3829327 C29.7709135,48.7545673 30.8865385,49.8747596 32.2581731,49.8701923 C33.6579327,49.8608173 34.7569712,48.7451923 34.7548077,47.3641827 L34.7055288,32.9086538 L34.8911058,32.9086538 L35.4829327,32.9086538 L35.6730769,32.9086538 L35.6237981,47.3641827 C35.6144231,48.7451923 36.7276442,49.8608173 38.1180288,49.8701923 C39.4966346,49.875 40.6146635,48.7545673 40.6192308,47.3829327 L40.6685096,32.896875 L46.2745192,32.896875 L40.7932692,15.9704327 L41.9418269,15.9752404 L45.6620192,26.45 C46.1129808,27.59375 46.7423077,28.5050481 48.0997596,27.9673077 C49.8377404,27.2836538 48.9076923,25.296875 48.9076923,25.296875 Z" id="Shape"></path>
                <path d="M21.2247596,25.7524038 L21.1588942,14.9230769 C20.7266827,10.0966346 15.0853365,10.3903846 15.0853365,10.3903846 L6.30384615,10.2471154 C-0.0112980769,10.3973558 0.235336538,15.0358173 0.235336538,15.0358173 L0.235336538,25.7454327 L0.240144231,25.7454327 L0.233173077,25.8158654 C0.237980769,26.8444712 1.08100962,27.6735577 2.09807692,27.6735577 C3.12668269,27.6641827 3.94182692,26.8350962 3.94182692,25.7992788 L3.94182692,25.7170673 L3.95360577,15.8271635 L5.12548077,15.8201923 L5.28052885,47.3617788 C5.28533654,48.7427885 6.40552885,49.8584135 7.79831731,49.8584135 C9.17932692,49.8536058 10.2949519,48.7334135 10.2949519,47.3360577 L10.1870192,26.9831731 L11.3096154,26.9689904 L11.4293269,47.340625 L11.4480769,47.3641827 C11.4668269,48.7216346 12.5730769,49.8230769 13.9447115,49.8137019 C15.3233173,49.8088942 16.4413462,48.6887019 16.4389423,47.3149038 L16.2504808,15.7098558 L17.4622596,15.7004808 L17.5139423,25.7711538 L17.5139423,25.7805288 C17.5139423,26.8091346 18.3454327,27.640625 19.3740385,27.6358173 C20.4026442,27.6264423 21.2247596,26.7973558 21.2247596,25.7733173 L21.2247596,25.7524038 L21.2247596,25.7524038 Z" id="Shape"></path>
                <circle id="Oval" cx="35.3447115" cy="4.82644231" r="4.26033654"></circle>
            </g>
        </g>
    </g>
</svg>