<?xml version="1.0" encoding="UTF-8"?>
<svg width="42px" height="50px" viewBox="0 0 42 50" version="1.1" xmlns="http://www.w3.org/2000/svg" xmlns:xlink="http://www.w3.org/1999/xlink">
    <!-- Generator: Sketch 43.2 (39069) - http://www.bohemiancoding.com/sketch -->
    <title>wetsuit</title>
    <desc>Created with Sketch.</desc>
    <defs></defs>
    <g id="Page-1" stroke="none" stroke-width="1" fill="none" fill-rule="evenodd">
        <g id="Desktop-Landscape" transform="translate(-377.000000, -503.000000)" fill-rule="nonzero" fill="#000000">
            <g id="wetsuit" transform="translate(377.000000, 503.000000)">
                <path d="M41.7331104,18.3284281 L30.5123746,0.477257525 C30.3257525,0.180267559 29.9996656,0 29.6488294,0 L24.0384615,0 C23.4750836,0 23.0183946,0.456688963 23.0183946,1.02006689 L23.0183946,3.06020067 L18.9381271,3.06020067 L18.9381271,2.04013378 L21.9983278,2.04013378 L21.9983278,0 L12.3076923,0 C11.9568562,0 11.6307692,0.180267559 11.4441472,0.477257525 L0.223411371,18.3284281 C0.0744147157,18.5655518 0.0294314381,18.8535117 0.0989966555,19.1249164 C0.168729097,19.3963211 0.346822742,19.6269231 0.591638796,19.7630435 L5.1819398,22.3132107 C5.65785953,22.577592 6.25785953,22.4215719 6.54464883,21.9583612 L11.2876254,14.2964883 L11.2876254,48.9632107 C11.2876254,49.5265886 11.7443144,49.9832776 12.3076923,49.9832776 L17.9180602,49.9832776 C18.4110368,49.9832776 18.8334448,49.6307692 18.9217391,49.1456522 L20.9782609,37.8342809 L23.0347826,49.1456522 C23.1230769,49.6307692 23.5454849,49.9832776 24.0384615,49.9832776 L29.6488294,49.9832776 C30.2122074,49.9832776 30.6688963,49.5265886 30.6688963,48.9632107 L30.6688963,14.2964883 L35.4120401,21.9583612 C35.6988294,22.4214047 36.2986622,22.577592 36.7747492,22.3132107 L41.3650502,19.7630435 C41.6098662,19.6270903 41.7881271,19.3961538 41.8576923,19.1249164 C41.9272575,18.8535117 41.8822742,18.5655518 41.7331104,18.3284281 Z M11.2876254,7.65050167 L11.2876254,10.4205686 L5.32207358,20.0571906 L2.5235786,18.5025084 L12.8714047,2.04013378 L16.8979933,2.04013378 L16.8979933,3.06020067 C16.8979933,4.18511706 17.8132107,5.10033445 18.9381271,5.10033445 L19.958194,5.10033445 L19.958194,10.7107023 C19.958194,10.7147157 19.9458194,11.1322742 19.7471572,11.5295987 C19.5011706,12.0214047 19.0944816,12.2408027 18.4280936,12.2408027 L13.3277592,12.2408027 L13.3277592,10.7107023 L13.3277592,7.65050167 L11.2876254,7.65050167 L11.2876254,7.65050167 Z M13.3277592,23.4615385 L14.3478261,23.4615385 L14.3478261,38.241806 C14.3459866,38.2809365 14.3212375,38.6849498 14.0779264,39.0548495 C13.9073579,39.3140468 13.6558528,39.5040134 13.3277592,39.6249164 L13.3277592,23.4615385 L13.3277592,23.4615385 Z M28.6287625,47.9431438 L24.8897993,47.9431438 L21.9819398,31.9496656 C21.8936455,31.4645485 21.4712375,31.1120401 20.9782609,31.1120401 C20.4852843,31.1120401 20.0628763,31.4645485 19.9745819,31.9496656 L17.0667224,47.9431438 L13.3277592,47.9431438 L13.3277592,41.7312709 C15.8071906,41.2677258 16.3879599,39.1349498 16.3879599,38.2525084 L16.3879599,23.4615385 L16.8979933,23.4615385 C16.8979933,24.5864548 17.8132107,25.5016722 18.9381271,25.5016722 L23.0183946,25.5016722 C24.143311,25.5016722 25.0585284,24.5864548 25.0585284,23.4615385 L25.5685619,23.4615385 L25.5685619,38.2525084 C25.5685619,39.1351171 26.1493311,41.267893 28.6287625,41.7312709 L28.6287625,47.9431438 L28.6287625,47.9431438 Z M18.9381271,23.4615385 L18.9381271,21.4214047 L23.0183946,21.4214047 L23.0185619,23.4615385 L18.9381271,23.4615385 Z M28.6287625,39.6250836 C28.3006689,39.5040134 28.0491639,39.314214 27.8785953,39.0550167 C27.6352843,38.6851171 27.6105351,38.2811037 27.6086957,38.2419732 L27.6086957,23.4615385 L28.6287625,23.4615385 L28.6287625,39.6250836 Z M28.6287625,21.4214047 L25.0585284,21.4214047 C25.0585284,20.2964883 24.143311,19.3812709 23.0183946,19.3812709 L21.9983278,19.3812709 L21.9983278,15.8110368 L19.958194,15.8110368 L19.958194,19.3812709 L18.9381271,19.3812709 C17.8132107,19.3812709 16.8979933,20.2964883 16.8979933,21.4214047 L13.3277592,21.4214047 L13.3277592,14.2809365 L18.4280936,14.2809365 C19.5811037,14.2809365 20.4107023,13.8670569 20.9782609,13.2814381 C21.5458194,13.8670569 22.3754181,14.2809365 23.5284281,14.2809365 L28.6287625,14.2809365 L28.6287625,21.4214047 Z M36.6344482,20.0571906 L30.6688963,10.4205686 L30.6688963,7.65050167 L28.6287625,7.65050167 L28.6287625,10.7107023 L28.6287625,12.2408027 L23.5284281,12.2408027 C22.688796,12.2408027 22.3864548,11.8598662 22.232107,11.5732441 C22.0108696,11.1625418 21.998495,10.7105351 21.9983278,10.7105351 L21.9983278,5.10033445 L23.0183946,5.10033445 C24.143311,5.10033445 25.0585284,4.18511706 25.0585284,3.06020067 L25.0585284,2.04013378 L29.0851171,2.04013378 L39.4329431,18.5025084 L36.6344482,20.0571906 Z" id="Shape"></path>
            </g>
        </g>
    </g>
</svg>