<?xml version="1.0" encoding="UTF-8"?>
<svg width="50px" height="37px" viewBox="0 0 50 37" version="1.1" xmlns="http://www.w3.org/2000/svg" xmlns:xlink="http://www.w3.org/1999/xlink">
    <!-- Generator: Sketch 43.2 (39069) - http://www.bohemiancoding.com/sketch -->
    <title>wifi</title>
    <desc>Created with Sketch.</desc>
    <defs></defs>
    <g id="Page-1" stroke="none" stroke-width="1" fill="none" fill-rule="evenodd">
        <g id="Desktop-Landscape" transform="translate(-640.000000, -603.000000)" fill-rule="nonzero" fill="#000000">
            <g id="wifi" transform="translate(640.000000, 603.000000)">
                <path d="M49.65,11.0209091 C43.0654545,4.43545455 34.2954545,0.809090909 24.9581818,0.809090909 C15.6209091,0.809090909 6.85181818,4.43454545 0.266363636,11.0209091 C-0.0890909091,11.3763636 -0.0890909091,11.9509091 0.266363636,12.3063636 C0.621818182,12.6618182 1.19636364,12.6618182 1.55181818,12.3063636 C7.79363636,6.06363636 16.1063636,2.62636364 24.9581818,2.62636364 C33.81,2.62636364 42.1227273,6.06363636 48.3645455,12.3054545 C48.5418182,12.4827273 48.7745455,12.5718182 49.0072727,12.5718182 C49.24,12.5718182 49.4727273,12.4827273 49.65,12.3054545 C50.0054545,11.9509091 50.0054545,11.3754545 49.65,11.0209091 Z" id="Shape"></path>
                <path d="M5.61,16.3636364 C5.25454545,16.7190909 5.25454545,17.2936364 5.61,17.6490909 C5.78727273,17.8263636 6.02,17.9154545 6.25272727,17.9154545 C6.48545455,17.9154545 6.71818182,17.8263636 6.89545455,17.6490909 C16.8545455,7.68909091 33.06,7.68909091 43.02,17.6490909 C43.3754545,18.0045455 43.95,18.0045455 44.3054545,17.6490909 C44.6609091,17.2936364 44.6609091,16.7190909 44.3054545,16.3636364 C33.6381818,5.69636364 16.2790909,5.69454545 5.61,16.3636364 Z" id="Shape"></path>
                <path d="M24.9581818,15.9163636 C19.6627273,15.9163636 14.69,17.9736364 10.9545455,21.7081818 C10.5990909,22.0636364 10.5990909,22.6381818 10.9545455,22.9936364 C11.31,23.3490909 11.8845455,23.3490909 12.24,22.9936364 C15.6318182,19.6027273 20.1481818,17.7345455 24.9581818,17.7345455 C29.7681818,17.7345455 34.2845455,19.6027273 37.6763636,22.9936364 C37.8536364,23.1709091 38.0863636,23.26 38.3190909,23.26 C38.5518182,23.26 38.7845455,23.1709091 38.9618182,22.9936364 C39.3172727,22.6381818 39.3172727,22.0636364 38.9618182,21.7081818 C35.2272727,17.9736364 30.2536364,15.9163636 24.9581818,15.9163636 Z" id="Shape"></path>
                <path d="M24.9581818,24.4690909 C21.6745455,24.4690909 19.0027273,27.1409091 19.0027273,30.4254545 C19.0027273,33.71 21.6745455,36.3818182 24.9581818,36.3818182 C28.2427273,36.3818182 30.9145455,33.71 30.9145455,30.4254545 C30.9145455,27.1409091 28.2427273,24.4690909 24.9581818,24.4690909 Z M24.9581818,34.5627273 C22.6763636,34.5627273 20.8209091,32.7063636 20.8209091,30.4245455 C20.8209091,28.1427273 22.6772727,26.2863636 24.9581818,26.2863636 C27.2390909,26.2863636 29.0963636,28.1427273 29.0963636,30.4245455 C29.0963636,32.7063636 27.24,34.5627273 24.9581818,34.5627273 Z" id="Shape"></path>
            </g>
        </g>
    </g>
</svg>