<?xml version="1.0" encoding="UTF-8"?>
<svg width="26px" height="25px" viewBox="0 0 26 25" version="1.1" xmlns="http://www.w3.org/2000/svg" xmlns:xlink="http://www.w3.org/1999/xlink">
    <!-- Generator: Sketch 43.2 (39069) - http://www.bohemiancoding.com/sketch -->
    <title>instagram-black</title>
    <desc>Created with Sketch.</desc>
    <defs></defs>
    <g id="Page-1" stroke="none" stroke-width="1" fill="none" fill-rule="evenodd">
        <g id="Menu-Mobile" transform="translate(-214.000000, -451.000000)" fill-rule="nonzero" fill="#131313">
            <g id="social" transform="translate(120.000000, 451.000000)">
                <path d="M119.36925,7.34626389 C119.348481,6.30929003 119.152025,5.2833452 118.788236,4.31205556 C118.47436,3.47797279 117.982327,2.72239235 117.346444,2.098 C116.722052,1.4621177 115.966472,0.97008417 115.132389,0.656208333 C114.161099,0.292419185 113.135154,0.0959632636 112.098181,0.0751944444 C110.764903,0.0144166667 110.339264,0 106.944444,0 C103.549625,0 103.123986,0.0144166667 101.790708,0.0751944444 C100.753734,0.0959632636 99.7277896,0.292419185 98.7565,0.656208333 C97.9224172,0.97008417 97.1668368,1.4621177 96.5424444,2.098 C95.9065621,2.72239235 95.4145286,3.47797279 95.1006528,4.31205556 C94.7368636,5.2833452 94.5404077,6.30929003 94.5196389,7.34626389 C94.4588611,8.67954167 94.4444444,9.10518056 94.4444444,12.5 C94.4444444,15.8948194 94.4588611,16.3204583 94.5196389,17.6537361 C94.5404077,18.69071 94.7368636,19.7166548 95.1006528,20.6879444 C95.4145286,21.5220272 95.9065621,22.2776076 96.5424444,22.902 C97.1668141,23.5379101 97.922401,24.0299479 98.7565,24.3437917 C99.7277896,24.7075808 100.753734,24.9040367 101.790708,24.9248056 C103.123986,24.9856806 103.549625,25 106.944444,25 C110.339264,25 110.764903,24.9856806 112.098181,24.9248056 C113.135154,24.9040367 114.161099,24.7075808 115.132389,24.3437917 C116.811464,23.6944012 118.138832,22.3670339 118.788222,20.6879583 C119.152011,19.7166687 119.348467,18.6907239 119.369236,17.65375 C119.430028,16.3204583 119.444444,15.8948194 119.444444,12.5 C119.444444,9.10518056 119.430028,8.67954167 119.36925,7.34626389 Z M117.119347,17.5510833 C117.109966,18.3437152 116.964353,19.1288312 116.688875,19.8721111 C116.268398,20.9622888 115.406731,21.8239613 114.316556,22.2444444 C113.573273,22.5199129 112.788159,22.6655251 111.995528,22.6749167 C110.677597,22.735 110.282306,22.7477222 106.944444,22.7477222 C103.606583,22.7477222 103.211292,22.735 101.893361,22.6749028 C101.100731,22.6655156 100.315617,22.5199081 99.5723333,22.2444444 C99.0293754,22.0441058 98.5382356,21.7245956 98.1350417,21.3094167 C97.719856,20.9062201 97.4003409,20.4150753 97.2,19.8721111 C96.924522,19.1288312 96.7789095,18.3437152 96.7695278,17.5510833 C96.7094444,16.2329722 96.6967222,15.8376944 96.6967222,12.5 C96.6967222,9.16230556 96.7094444,8.76702778 96.7695417,7.44891667 C96.7789288,6.65628662 96.9245363,5.87117232 97.2,5.12788889 C97.4003387,4.58493093 97.7198488,4.09379117 98.1350278,3.69059722 C98.5382243,3.27541152 99.0293691,2.95589642 99.5723333,2.75555556 C100.315616,2.48008712 101.10073,2.33447494 101.893361,2.32508333 C103.211472,2.265 103.60675,2.25227778 106.944444,2.25227778 C110.282139,2.25227778 110.677417,2.265 111.995528,2.32509722 C112.788159,2.33448883 113.573273,2.48010101 114.316556,2.75556944 C114.859514,2.9559081 115.350653,3.27541827 115.753847,3.69059722 C116.169031,4.09378977 116.488546,4.58492963 116.688889,5.12788889 C116.964357,5.87117149 117.10997,6.65628581 117.119361,7.44891667 C117.179458,8.76697222 117.192181,9.16238889 117.192181,12.5 C117.192181,15.8376111 117.179444,16.2329722 117.119347,17.5510833 L117.119347,17.5510833 Z M106.944444,6.08105556 C103.399359,6.08105556 100.5255,8.95491487 100.5255,12.5 C100.5255,16.0450851 103.399359,18.9189444 106.944444,18.9189444 C110.48953,18.9189444 113.363389,16.0450851 113.363389,12.5 C113.363351,8.95493076 110.489514,6.08109391 106.944444,6.08105556 L106.944444,6.08105556 Z M106.944444,16.6666667 C104.643258,16.6666667 102.777778,14.8011865 102.777778,12.5 C102.777778,10.1988135 104.643258,8.33333333 106.944444,8.33333333 C109.245631,8.33333333 111.111111,10.1988135 111.111111,12.5 C111.111111,13.6050687 110.672124,14.6648767 109.890723,15.4462783 C109.109321,16.2276798 108.049513,16.6666667 106.944444,16.6666667 Z M115.116972,5.8275 C115.116972,6.65592712 114.445399,7.3275 113.616972,7.3275 C112.788545,7.3275 112.116972,6.65592712 112.116972,5.8275 C112.116972,4.99907288 112.788545,4.3275 113.616972,4.3275 C114.445399,4.3275 115.116972,4.99907288 115.116972,5.8275 L115.116972,5.8275 Z" id="instagram-black"></path>
            </g>
        </g>
    </g>
</svg>