<?xml version="1.0" encoding="UTF-8"?>
<svg width="18px" height="18px" viewBox="0 0 18 18" version="1.1" xmlns="http://www.w3.org/2000/svg" xmlns:xlink="http://www.w3.org/1999/xlink">
    <!-- Generator: Sketch 43.2 (39069) - http://www.bohemiancoding.com/sketch -->
    <title>instagram</title>
    <desc>Created with Sketch.</desc>
    <defs></defs>
    <g id="Page-1" stroke="none" stroke-width="1" fill="none" fill-rule="evenodd">
        <g id="Home---Mobile" transform="translate(-185.000000, -3938.000000)" fill-rule="nonzero" fill="#EC645A">
            <g id="footer" transform="translate(-78.000000, 3694.000000)">
                <g id="icones" transform="translate(195.000000, 244.000000)">
                    <path d="M85.94586,5.28931 C85.9309065,4.54268882 85.7894582,3.80400855 85.52753,3.10468 C85.3015394,2.50414041 84.9472753,1.96012249 84.48944,1.51056 C84.0398775,1.05272475 83.4958596,0.698460602 82.89532,0.47247 C82.1959915,0.210541813 81.4573112,0.0690935498 80.71069,0.05414 C79.75073,0.01038 79.44427,0 77,0 C74.55573,0 74.24927,0.01038 73.28931,0.05414 C72.5426888,0.0690935498 71.8040085,0.210541813 71.10468,0.47247 C70.5041404,0.698460602 69.9601225,1.05272475 69.51056,1.51056 C69.0527247,1.96012249 68.6984606,2.50414041 68.47247,3.10468 C68.2105418,3.80400855 68.0690935,4.54268882 68.05414,5.28931 C68.01038,6.24927 68,6.55573 68,9 C68,11.44427 68.01038,11.75073 68.05414,12.71069 C68.0690935,13.4573112 68.2105418,14.1959915 68.47247,14.89532 C68.6984606,15.4958596 69.0527247,16.0398775 69.51056,16.48944 C69.9601061,16.9472953 70.5041287,17.3015625 71.10468,17.52753 C71.8040085,17.7894582 72.5426888,17.9309065 73.28931,17.94586 C74.24927,17.98969 74.55573,18 77,18 C79.44427,18 79.75073,17.98969 80.71069,17.94586 C81.4573112,17.9309065 82.1959915,17.7894582 82.89532,17.52753 C84.1042544,17.0599688 85.0599588,16.1042644 85.52752,14.89533 C85.7894482,14.1960015 85.9308965,13.4573212 85.94585,12.7107 C85.98962,11.75073 86,11.44427 86,9 C86,6.55573 85.98962,6.24927 85.94586,5.28931 Z M84.32593,12.63678 C84.3191752,13.2074749 84.2143342,13.7727584 84.01599,14.30792 C83.7132468,15.0928479 83.0928462,15.7132522 82.30792,16.016 C81.7727565,16.2143373 81.2074742,16.319178 80.63678,16.32594 C79.68787,16.3692 79.40326,16.37836 77,16.37836 C74.59674,16.37836 74.31213,16.3692 73.36322,16.32593 C72.7925264,16.3191712 72.2272441,16.2143339 71.69208,16.016 C71.3011503,15.8717562 70.9475296,15.6417088 70.65723,15.34278 C70.3582963,15.0524785 70.1282454,14.6988542 69.984,14.30792 C69.7856558,13.7727584 69.6808148,13.2074749 69.67406,12.63678 C69.6308,11.68774 69.62164,11.40314 69.62164,9 C69.62164,6.59686 69.6308,6.31226 69.67407,5.36322 C69.6808288,4.79252636 69.7856661,4.22724407 69.984,3.69208 C70.1282438,3.30115027 70.3582912,2.94752965 70.65722,2.65723 C70.9475215,2.3582963 71.3011458,2.12824542 71.69208,1.984 C72.2272435,1.78566272 72.7925258,1.68082196 73.36322,1.67406 C74.31226,1.6308 74.59686,1.62164 77,1.62164 C79.40314,1.62164 79.68774,1.6308 80.63678,1.67407 C81.2074742,1.68083196 81.7727565,1.78567272 82.30792,1.98401 C82.6988497,2.12825383 83.0524704,2.35830116 83.34277,2.65723 C83.6417025,2.94752863 83.8717533,3.30114933 84.016,3.69208 C84.2143373,4.22724347 84.319178,4.79252578 84.32594,5.36322 C84.36921,6.31222 84.37837,6.59692 84.37837,9 C84.37837,11.40308 84.3692,11.68774 84.32593,12.63678 L84.32593,12.63678 Z M77,4.37836 C74.4475387,4.37836 72.37836,6.44753871 72.37836,9 C72.37836,11.5524613 74.4475387,13.62164 77,13.62164 C79.5524613,13.62164 81.62164,11.5524613 81.62164,9 C81.6216124,6.44755015 79.5524499,4.37838761 77,4.37836 L77,4.37836 Z M77,12 C75.3431458,12 74,10.6568542 74,9 C74,7.34314575 75.3431458,6 77,6 C78.6568542,6 80,7.34314575 80,9 C80,9.79564947 79.6839295,10.5587112 79.1213203,11.1213203 C78.5587112,11.6839295 77.7956495,12 77,12 Z M82.88422,4.1958 C82.88422,4.79226753 82.4006875,5.2758 81.80422,5.2758 C81.2077525,5.2758 80.72422,4.79226753 80.72422,4.1958 C80.72422,3.59933247 81.2077525,3.1158 81.80422,3.1158 C82.4006875,3.1158 82.88422,3.59933247 82.88422,4.1958 L82.88422,4.1958 Z" id="instagram"></path>
                </g>
            </g>
        </g>
    </g>
</svg>