<?xml version="1.0" encoding="UTF-8"?>
<svg width="37px" height="50px" viewBox="0 0 37 50" version="1.1" xmlns="http://www.w3.org/2000/svg" xmlns:xlink="http://www.w3.org/1999/xlink">
    <!-- Generator: Sketch 43.2 (39069) - http://www.bohemiancoding.com/sketch -->
    <title>logo</title>
    <desc>Created with Sketch.</desc>
    <defs></defs>
    <g id="Page-1" stroke="none" stroke-width="1" fill="none" fill-rule="evenodd">
        <g id="Home---Mobile" transform="translate(-20.000000, -20.000000)" fill-rule="nonzero" fill="#131313">
            <g id="logo" transform="translate(20.000000, 20.000000)">
                <path d="M0.0788022065,49.1061728 L0.0788022065,25.8238683 L5.10900972,25.8238683 C7.05279748,25.8238683 7.69634883,27.1144033 7.69634883,28.3786008 L7.69634883,46.5119342 C7.69634883,48.1053498 6.0940373,49.1061728 5.10900972,49.1061728 L0.0788022065,49.1061728 Z M2.60047281,46.5777778 L4.29472025,46.5777778 C4.51799317,46.5777778 4.71499869,46.4987654 4.8857368,46.3407407 C5.04334121,46.182716 5.12214342,45.9851852 5.12214342,45.7481481 L5.12214342,29.1687243 C5.12214342,28.9185185 5.04334121,28.7078189 4.8857368,28.5497942 C4.72813239,28.3917695 4.53112687,28.3127572 4.29472025,28.3127572 L2.60047281,28.3127572 L2.60047281,46.5777778 Z" id="Shape"></path>
                <path d="M9.86340951,25.8238683 L14.9592855,25.8238683 C15.6553717,25.8238683 16.2595219,26.0740741 16.7586026,26.5876543 C17.2708169,27.1407407 17.5203572,27.7465021 17.5203572,28.3917695 L17.5203572,35.6609053 C17.5203572,36.5432099 17.2576832,37.1358025 16.7454689,37.4386831 C16.2201208,37.7415638 15.7998424,37.9522634 15.4846336,38.0707819 L17.6648279,49.1193416 L15.1694247,49.1193416 L13.0154978,38.1893004 L12.3850801,38.1893004 L12.3850801,49.1061728 L9.88967691,49.1061728 L9.86340951,25.8238683 Z M12.3982138,28.3259259 L12.3982138,35.6609053 L14.0924613,35.6609053 C14.3288679,35.6609053 14.5258734,35.581893 14.6834778,35.4238683 C14.8410822,35.2658436 14.9198844,35.0683128 14.9198844,34.8312757 L14.9198844,29.1950617 C14.9198844,28.944856 14.8410822,28.7341564 14.6834778,28.562963 C14.5258734,28.4049383 14.3288679,28.3259259 14.0924613,28.3259259 L12.3982138,28.3259259 L12.3982138,28.3259259 Z" id="Shape"></path>
                <path d="M22.0646178,25.6131687 L24.6256895,25.6131687 C25.4137116,25.6131687 26.0441292,25.8633745 26.5169425,26.3769547 C26.9897557,26.890535 27.2261623,27.4699588 27.2261623,28.1152263 L27.2261623,46.709465 C27.2261623,47.4337449 26.976622,48.0395062 26.4644077,48.5530864 C25.9521933,49.0666667 25.3480431,49.3168724 24.6256895,49.3168724 L22.0646178,49.3168724 C21.3028631,49.3168724 20.6855792,49.0534979 20.212766,48.5135802 C19.7399527,47.9868313 19.5035461,47.38107 19.5035461,46.709465 L19.5035461,28.1152263 C19.5035461,27.4436214 19.7530864,26.8641975 20.2521671,26.363786 C20.738114,25.8633745 21.3422643,25.6131687 22.0646178,25.6131687 Z M22.9314421,28.2205761 C22.6950355,28.2205761 22.4980299,28.3127572 22.3404255,28.4971193 C22.1828211,28.6814815 22.1040189,28.8790123 22.1040189,29.0897119 L22.1040189,45.945679 C22.1040189,46.182716 22.1959548,46.3802469 22.3666929,46.5514403 C22.537431,46.7226337 22.7344366,46.8148148 22.9445758,46.8148148 L23.8114001,46.8148148 C24.0478067,46.8148148 24.2448122,46.7226337 24.4024166,46.5514403 C24.560021,46.3802469 24.6388232,46.1695473 24.6388232,45.945679 L24.6388232,29.0897119 C24.6388232,28.8395062 24.560021,28.6288066 24.4024166,28.4576132 C24.2448122,28.2995885 24.0478067,28.2205761 23.8114001,28.2205761 L22.9314421,28.2205761 Z" id="Shape"></path>
                <path d="M29.2750197,25.8238683 L34.3052272,25.8238683 C35.0932493,25.8238683 35.7236669,25.9950617 36.2096139,26.3506173 C36.6955608,26.6930041 36.9319674,27.3777778 36.9319674,28.4049383 L36.9319674,35.7399177 C36.9319674,36.5958848 36.6824271,37.2279835 36.1702128,37.6230453 C35.6579984,38.018107 35.0407145,38.2156379 34.2920935,38.2156379 L31.941161,38.2156379 L31.7966903,38.255144 L31.7966903,49.1325103 L29.3012871,49.1325103 L29.2750197,25.8238683 Z M31.7966903,28.3259259 L31.7966903,35.6609053 L33.4909377,35.6609053 C33.7273444,35.6609053 33.9243499,35.581893 34.0819543,35.4238683 C34.2395587,35.2658436 34.3183609,35.0683128 34.3183609,34.8312757 L34.3183609,29.1950617 C34.3183609,28.944856 34.2395587,28.7341564 34.0819543,28.562963 C33.9243499,28.4049383 33.7273444,28.3259259 33.4909377,28.3259259 L31.7966903,28.3259259 L31.7966903,28.3259259 Z" id="Shape"></path>
                <polygon id="Shape" points="10.4675598 0.131687243 10.4675598 19.9901235 6.60625164 15.3020576 2.73180982 19.7662551 2.73180982 0.131687243 0.0788022065 0.131687243 0.105069609 24.0197531 2.73180982 24.0197531 6.57998424 19.7135802 10.4675598 24.0197531 13.1205674 24.0197531 13.1205674 0.131687243"></polygon>
                <rect id="Rectangle-path" x="14.9067507" y="0.250205761" width="2.61360651" height="23.7300412"></rect>
                <polygon id="Shape" points="22.2878907 0.250205761 19.6348831 0.250205761 19.6348831 23.9802469 27.5807723 23.9802469 27.5807723 21.3201646 22.2878907 21.3201646"></polygon>
                <path d="M34.2920935,0.105349794 L29.130549,0.105349794 L29.130549,23.9802469 L34.2920935,23.9802469 C35.3033885,23.9802469 36.9451011,22.9662551 36.9451011,21.3201646 L36.9451011,2.72592593 C36.9451011,1.42222222 36.2884161,0.105349794 34.2920935,0.105349794 Z M34.2920935,20.5432099 C34.2920935,20.7802469 34.2132913,20.9777778 34.0425532,21.1489712 C33.8718151,21.3201646 33.6748096,21.399177 33.4384029,21.399177 L31.7047544,21.399177 L31.7047544,2.6600823 L33.4384029,2.6600823 C33.6748096,2.6600823 33.8718151,2.73909465 34.0425532,2.91028807 C34.2132913,3.08148148 34.2920935,3.29218107 34.2920935,3.54238683 L34.2920935,20.5432099 Z" id="Shape"></path>
            </g>
        </g>
    </g>
</svg>