<?xml version="1.0" encoding="UTF-8"?>
<svg width="133px" height="12px" viewBox="0 0 133 12" version="1.1" xmlns="http://www.w3.org/2000/svg" xmlns:xlink="http://www.w3.org/1999/xlink">
    <!-- Generator: Sketch 43.2 (39069) - http://www.bohemiancoding.com/sketch -->
    <title>superlativo</title>
    <desc>Created with Sketch.</desc>
    <defs></defs>
    <g id="Page-1" stroke="none" stroke-width="1" fill="none" fill-rule="evenodd">
        <g id="Home---Mobile" transform="translate(-94.000000, -4004.000000)" fill="#9B9B9B">
            <g id="footer" transform="translate(-78.000000, 3694.000000)">
                <g id="superlativo" transform="translate(172.000000, 310.000000)">
                    <path d="M4.67637783,11.9259689 C2.55380843,11.9259689 1.02821168,11.2115074 9.21254078e-05,10.1651997 L1.27695028,8.37027671 C2.05633123,9.18489208 3.26685909,9.86566129 4.79245584,9.86566129 C6.08589657,9.86566129 6.71603436,9.26750746 6.71603436,8.63612286 C6.71603436,6.67550752 0.348326167,8.02135364 0.348326167,3.85089221 C0.348326167,2.00658457 1.94025321,0.477969219 4.54371724,0.477969219 C6.30147002,0.477969219 7.76073648,1.00966151 8.85518633,2.02319995 L7.54516303,3.75166144 C6.64970406,2.9204307 5.45575878,2.53827686 4.32814378,2.53827686 C3.31660681,2.53827686 2.75279931,2.98689223 2.75279931,3.6515076 C2.75279931,5.41273833 9.10392493,4.23350759 9.10392493,8.37027671 C9.10392493,10.3973536 7.66124104,11.9259689 4.67637783,11.9259689 Z" id="Fill-1"></path>
                    <path d="M126.784829,11.9259689 C130.117465,11.9102766 132.538982,9.52227668 132.538982,6.19412292 C132.538982,2.85396916 130.101343,0.461353835 126.751664,0.461353835 C123.420409,0.461353835 120.983692,2.85166147 120.980928,6.18812292 L123.401984,6.18812292 C123.404287,4.11396913 124.71385,2.55489224 126.751664,2.55489224 C128.79132,2.55489224 130.117926,4.1171999 130.117926,6.19412292 C130.117926,8.24335364 128.8056,9.8153536 126.784829,9.83243052 L126.784829,11.9259689 Z" id="Fill-3"></path>
                    <polygon id="Fill-6" points="113.872439 11.7267689 118.134161 0.644307676 115.447784 0.644307676 112.39659 9.16799977 109.328814 0.644307676 106.642898 0.644307676 110.920741 11.7267689"></polygon>
                    <polygon id="Fill-8" points="100.92753 11.7267689 103.281795 11.7267689 103.281795 0.644307676 100.92753 0.644307676"></polygon>
                    <polygon id="Fill-10" points="93.8517919 9.88061514 93.8517919 2.7212307 97.0688111 2.7212307 97.0688111 0.644307676 88.2468821 0.644307676 88.2468821 2.7212307 91.4809445 2.7212307 91.4809445 9.88061514"></polygon>
                    <path d="M82.5979363,7.77212288 L79.1487611,7.77212288 L80.8733487,3.00350762 L82.5979363,7.77212288 Z M85.8886559,9.84812283 L82.3491977,0.644123061 L79.3974997,0.644123061 L75.1191957,11.7265843 L77.8055726,11.7265843 L78.5015801,9.84904591 L83.0253982,9.84904591 L83.0253982,9.84812283 L85.8886559,9.84812283 Z" id="Fill-11"></path>
                    <polygon id="Fill-12" points="72.3053173 11.7267689 72.3053173 9.64984591 67.6294922 9.64984591 67.6294922 0.644307676 65.2743061 0.644307676 65.2743061 11.7267689"></polygon>
                    <path d="M57.0882267,5.71190755 L54.6174232,5.71190755 L54.6174232,2.72113839 L57.0882267,2.72113839 C58.0334333,2.72113839 58.746484,3.28606146 58.746484,4.21652297 C58.746484,5.14698449 58.0334333,5.71190755 57.0882267,5.71190755 L57.0882267,5.71190755 Z M59.8570558,9.41898438 L58.7299014,7.50683058 C59.9238467,7.22390751 61.1509571,6.17713831 61.1509571,4.21652297 C61.1509571,2.15621533 59.7414384,0.644215368 57.4364607,0.644215368 L52.2626978,0.644215368 L52.2626978,11.7266766 L54.6174232,11.7266766 L54.6174232,7.78883057 L56.3420109,7.78883057 L57.2416155,9.41898438 L59.8570558,9.41898438 Z" id="Fill-13"></path>
                    <polygon id="Fill-14" points="48.0729264 11.7267689 48.0729264 9.64984591 42.6006771 9.64984591 42.6006771 7.1409229 47.9568484 7.1409229 47.9568484 5.06399987 42.6006771 5.06399987 42.6006771 2.7212307 48.0729264 2.7212307 48.0729264 0.644307676 40.2459517 0.644307676 40.2459517 11.7267689"></polygon>
                    <path d="M32.4077838,5.71190755 L29.9038153,5.71190755 L29.9038153,2.72113839 L32.4077838,2.72113839 C33.3364079,2.72113839 34.032876,3.28606146 34.032876,4.21652297 C34.032876,5.1303691 33.3364079,5.71190755 32.4077838,5.71190755 L32.4077838,5.71190755 Z M29.9038153,9.88052283 L29.9038153,7.78883057 L32.7228527,7.78883057 C35.1107433,7.78883057 36.4373492,6.14390754 36.4373492,4.21652297 C36.4373492,2.27252302 35.1273259,0.644215368 32.7228527,0.644215368 L27.5490898,0.644215368 L27.5490898,9.88052283 L29.9038153,9.88052283 Z" id="Fill-15"></path>
                    <path d="M23.027713,4.80369219 L23.027713,7.29046136 C23.027713,10.0486151 21.4026208,11.9261535 18.0363584,11.9261535 C14.670096,11.9261535 13.0450038,10.0319997 13.0450038,7.30707674 L13.0450038,0.644307676 L15.4328944,0.644307676 L15.4328944,7.22399982 C15.4328944,8.76923055 16.3283533,9.83261514 18.0363584,9.83261514 C19.7443635,9.83261514 20.6232399,8.76923055 20.6232399,7.22399982 L20.6232399,4.80369219 L23.027713,4.80369219 Z" id="Fill-16"></path>
                </g>
            </g>
        </g>
    </g>
</svg>