<?xml version="1.0" encoding="UTF-8"?>
<svg width="43px" height="25px" viewBox="0 0 43 25" version="1.1" xmlns="http://www.w3.org/2000/svg" xmlns:xlink="http://www.w3.org/1999/xlink">
    <!-- Generator: Sketch 43.2 (39069) - http://www.bohemiancoding.com/sketch -->
    <title>tripadvisor-black</title>
    <desc>Created with Sketch.</desc>
    <defs></defs>
    <g id="Page-1" stroke="none" stroke-width="1" fill="none" fill-rule="evenodd">
        <g id="Menu-Mobile" transform="translate(-158.000000, -451.000000)" fill-rule="nonzero" fill="#131313">
            <g id="social" transform="translate(120.000000, 451.000000)">
                <g id="tripadvisor-black" transform="translate(38.000000, 0.000000)">
                    <path d="M26.482533,0.422033898 C27.6482109,0.586864407 28.7897363,0.879661017 29.9177024,1.22627119 C31.8867702,1.83262712 33.7448211,2.675 35.4922787,3.76779661 C35.6138889,3.84322034 35.776177,3.89110169 35.9193974,3.89110169 C37.9719397,3.89957627 40.0236347,3.89661017 42.0744821,3.89830508 C42.2397363,3.89830508 42.4041431,3.91567797 42.5689736,3.925 C42.5689736,3.96525424 42.5749058,3.98220339 42.5681262,3.99152542 C42.4723635,4.13898305 42.3753296,4.28432203 42.2791431,4.43135593 C41.5829567,5.49915254 40.9880414,6.61610169 40.6367702,7.85084746 C40.5986347,7.98347458 40.5905838,8.09449153 40.6804143,8.22457627 C42.507533,10.8483051 43.0905838,13.7288136 42.3270245,16.8338983 C41.657533,19.5572034 40.096516,21.6805085 37.7244821,23.1838983 C36.0291431,24.2588983 34.1562618,24.7707627 32.1554143,24.7817797 C31.3147363,24.7868644 30.4782957,24.6737288 29.6571092,24.4610169 C27.6562618,23.9419492 25.9410075,22.9444915 24.5274482,21.4338983 C24.3410075,21.2355932 24.1655838,21.0283898 23.966855,20.8042373 C23.2193974,21.9182203 22.4838041,23.0139831 21.7304143,24.1385593 C20.9799906,23.0173729 20.2545669,21.9322034 19.530838,20.8512712 C19.480838,20.8775424 19.4664313,20.8805085 19.4566855,20.8898305 C19.4401601,20.9033898 19.426177,20.9199153 19.4130414,20.9355932 C17.7032957,22.954661 15.5524482,24.1923729 12.9321092,24.6063559 C11.4744821,24.8372881 10.030838,24.7542373 8.61516008,24.3639831 C6.60880414,23.8127119 4.9037194,22.7542373 3.52617702,21.1923729 C2.17999058,19.6652542 1.34270245,17.8923729 1.02829567,15.8766949 C0.668549906,13.995339 1.1066855,12.1813559 1.21600753,11.7411017 C1.53295669,10.4614407 2.08549906,9.28644068 2.84397363,8.2059322 C2.89736347,8.12923729 2.91600753,7.99364407 2.8905838,7.90211864 C2.58126177,6.76779661 2.04821092,5.73601695 1.42405838,4.74788136 C1.2655838,4.49661017 1.0757533,4.26398305 0.900329567,4.02288136 L0.900329567,3.93898305 C0.935499058,3.94322034 0.970244821,3.95 1.00456685,3.95 C3.10456685,3.95084746 5.20414313,3.95169492 7.30414313,3.94745763 C7.39566855,3.94745763 7.49736347,3.90974576 7.57532957,3.85974576 C9.0507533,2.91313559 10.6227872,2.16313559 12.2744821,1.57923729 C13.4655838,1.15889831 14.6816855,0.830932203 15.9219397,0.590677966 C17.1227872,0.358474576 18.3299906,0.194915254 19.5499058,0.11440678 C22.5240584,-0.11440678 24.901177,0.200423729 26.482533,0.422033898 Z M23.8499058,14.2911017 C23.8499058,18.9025424 27.5914313,22.6699153 32.1863465,22.6521186 C36.7986347,22.6355932 40.5232109,18.9741525 40.5198211,14.3118644 C40.5164313,9.50720339 36.6189736,5.89533898 32.007533,5.98898305 C27.4549906,6.08347458 23.8914313,9.7529661 23.8499058,14.2911017 Z M11.3452448,5.95720339 C6.8596516,5.91822034 2.94863465,9.66186441 3.02702448,14.4305085 C3.09990584,18.8775424 6.76516008,22.6474576 11.4384652,22.6072034 C16.0079567,22.5682203 19.680838,18.8368644 19.6893126,14.3182203 C19.696516,9.67584746 15.9787194,5.95720339 11.3452448,5.95720339 Z M11.7588041,3.78177966 C14.2927024,3.93644068 16.5185499,4.81949153 18.3990584,6.52966102 C20.2757533,8.23644068 21.3753296,10.365678 21.7749058,12.8694915 C22.1859228,10.395339 23.2566855,8.28601695 25.0982109,6.59618644 C26.9427024,4.90466102 29.1388889,4.01694915 31.6312618,3.82923729 C28.6736347,2.51440678 25.5549906,1.9559322 22.3448211,1.8940678 C18.696516,1.82245763 15.1477872,2.36016949 11.7588041,3.78177966 Z"></path>
                    <path d="M32.1693974,9.03008475 C35.0232109,9.02542373 37.3346516,11.3245763 37.3346516,14.1754237 C37.3346516,17.0372881 35.0626177,19.2495763 32.3821092,19.3516949 C29.3884652,19.4665254 26.9931262,17.0813559 26.9939736,14.1881356 C26.996516,11.2618644 29.4088041,8.98177966 32.1693974,9.03008475 Z M35.5354991,14.1881356 C35.5342279,12.3279661 34.0304143,10.8161017 32.1829567,10.8161017 C30.3143126,10.8161017 28.7931262,12.3199153 28.7854991,14.1745763 C28.7787194,16.0211864 30.307533,17.5576271 32.1588041,17.5627119 C34.0130414,17.5699153 35.5363465,16.0449153 35.5354991,14.1881356 Z" id="Shape"></path>
                    <path d="M11.2350753,9.03008475 C14.087194,9.02711864 16.4020245,11.3305085 16.3948211,14.1809322 C16.3867702,17.0661017 14.1126177,19.2300847 11.4791431,19.35 C8.47363465,19.4872881 6.04863465,17.0915254 6.05414313,14.1826271 C6.06007533,11.2355932 8.48888889,8.9809322 11.2350753,9.03008475 Z M14.5973635,14.1766949 C14.591855,12.3050847 13.0782957,10.8131356 11.1888889,10.8165254 C9.36643126,10.8199153 7.83931262,12.3580508 7.84354991,14.1872881 C7.84821092,16.0377119 9.37363465,17.559322 11.2299906,17.5644068 C13.0749058,17.5686441 14.6020245,16.0322034 14.5973635,14.1766949 Z" id="Shape"></path>
                    <path d="M32.1719397,12.4758475 C33.1177024,12.475 33.8931262,13.2508475 33.8842279,14.1911017 C33.8749058,15.1334746 33.1126177,15.8970339 32.182533,15.8974576 C31.2249058,15.8974576 30.4549906,15.140678 30.4571092,14.2029661 C30.4588041,13.2300847 31.2066855,12.4766949 32.1719397,12.4758475 Z" id="Shape"></path>
                    <path d="M11.226177,12.4605932 C12.1863465,12.4597458 12.9579567,13.2266949 12.9617702,14.1838983 C12.9655838,15.1330508 12.1867702,15.9122881 11.2312618,15.9144068 C10.2528719,15.9165254 9.49821092,15.1605932 9.49905838,14.1771186 C9.49905838,13.2114407 10.2520245,12.4618644 11.226177,12.4605932 Z" id="Shape"></path>
                </g>
            </g>
        </g>
    </g>
</svg>