<?xml version="1.0" encoding="UTF-8"?>
<svg width="31px" height="18px" viewBox="0 0 31 18" version="1.1" xmlns="http://www.w3.org/2000/svg" xmlns:xlink="http://www.w3.org/1999/xlink">
    <!-- Generator: Sketch 43.2 (39069) - http://www.bohemiancoding.com/sketch -->
    <title>tripadvisor</title>
    <desc>Created with Sketch.</desc>
    <defs></defs>
    <g id="Page-1" stroke="none" stroke-width="1" fill="none" fill-rule="evenodd">
        <g id="Home---Mobile" transform="translate(-145.000000, -3938.000000)" fill-rule="nonzero" fill="#EC645A">
            <g id="footer" transform="translate(-78.000000, 3694.000000)">
                <g id="icones" transform="translate(195.000000, 244.000000)">
                    <g id="tripadvisor" transform="translate(28.000000, 0.000000)">
                        <path d="M18.4274237,0.303864407 C19.2667119,0.422542373 20.0886102,0.633355932 20.9007458,0.882915254 C22.3184746,1.31949153 23.6562712,1.926 24.9144407,2.71281356 C25.002,2.76711864 25.1188475,2.80159322 25.2219661,2.80159322 C26.6997966,2.80769492 28.1770169,2.80555932 29.6536271,2.80677966 C29.7726102,2.80677966 29.8909831,2.81928814 30.009661,2.826 C30.009661,2.85498305 30.0139322,2.86718644 30.0090508,2.87389831 C29.9401017,2.9800678 29.8702373,3.08471186 29.8009831,3.19057627 C29.2997288,3.95938983 28.8713898,4.76359322 28.6184746,5.65261017 C28.5910169,5.74810169 28.5852203,5.8280339 28.6498983,5.92169492 C29.9654237,7.81077966 30.3852203,9.88474576 29.8354576,12.1204068 C29.3534237,14.0811864 28.2294915,15.6099661 26.5216271,16.6924068 C25.3009831,17.4664068 23.9525085,17.8349492 22.5118983,17.8428814 C21.9066102,17.8465424 21.3043729,17.7650847 20.7131186,17.6119322 C19.2725085,17.2382034 18.0375254,16.5200339 17.0197627,15.4324068 C16.8855254,15.2896271 16.7592203,15.1404407 16.6161356,14.9790508 C16.0779661,15.7811186 15.548339,16.5700678 15.0058983,17.3797627 C14.4655932,16.5725085 13.9432881,15.7911864 13.4222034,15.0129153 C13.3862034,15.0318305 13.3758305,15.0339661 13.3688136,15.040678 C13.3569153,15.0504407 13.3468475,15.062339 13.3373898,15.0736271 C12.1063729,16.5273559 10.5577627,17.4185085 8.67111864,17.7165763 C7.62162712,17.8828475 6.58220339,17.8230508 5.56291525,17.5420678 C4.11833898,17.1451525 2.89067797,16.3830508 1.89884746,15.2585085 C0.92959322,14.1589831 0.326745763,12.8825085 0.100372881,11.4312203 C-0.158644068,10.0766441 0.156813559,8.77057627 0.235525424,8.45359322 C0.463728814,7.53223729 0.861559322,6.68623729 1.40766102,5.90827119 C1.44610169,5.85305085 1.45952542,5.75542373 1.44122034,5.68952542 C1.21850847,4.87281356 0.834711864,4.1299322 0.385322034,3.41847458 C0.271220339,3.23755932 0.134542373,3.0700678 0.00823728814,2.89647458 L0.00823728814,2.8360678 C0.033559322,2.83911864 0.0585762712,2.844 0.0832881356,2.844 C1.59528814,2.84461017 3.10698305,2.84522034 4.61898305,2.84216949 C4.68488136,2.84216949 4.75810169,2.81501695 4.81423729,2.77901695 C5.87654237,2.09745763 7.00840678,1.55745763 8.19762712,1.13705085 C9.05522034,0.83440678 9.93081356,0.598271186 10.8237966,0.425288136 C11.6884068,0.258101695 12.5575932,0.140338983 13.4359322,0.0823728814 C15.577322,-0.0823728814 17.2888475,0.144305085 18.4274237,0.303864407 Z M16.5319322,10.2895932 C16.5319322,13.6098305 19.2258305,16.322339 22.5341695,16.3095254 C25.8550169,16.2976271 28.5367119,13.6613898 28.5342712,10.3045424 C28.5318305,6.84518644 25.725661,4.24464407 22.4054237,4.3120678 C19.1275932,4.38010169 16.5618305,7.02213559 16.5319322,10.2895932 Z M7.52857627,4.28918644 C4.29894915,4.26111864 1.48301695,6.95654237 1.53945763,10.3899661 C1.5919322,13.5918305 4.23091525,16.3061695 7.59569492,16.2771864 C10.8857288,16.2491186 13.5302034,13.5625424 13.5363051,10.3091186 C13.5414915,6.96661017 10.864678,4.28918644 7.52857627,4.28918644 Z M7.82633898,2.72288136 C9.65074576,2.83423729 11.2533559,3.4700339 12.607322,4.70135593 C13.9585424,5.93023729 14.7502373,7.46328814 15.0379322,9.2660339 C15.3338644,7.48464407 16.1048136,5.9659322 17.4307119,4.74925424 C18.7587458,3.53135593 20.34,2.89220339 22.1345085,2.75705085 C20.0050169,1.81037288 17.7595932,1.40827119 15.4482712,1.36372881 C12.8214915,1.31216949 10.2664068,1.69932203 7.82633898,2.72288136 Z" id="Shape"></path>
                        <path d="M22.5219661,6.50166102 C24.5767119,6.49830508 26.2409492,8.15369492 26.2409492,10.2063051 C26.2409492,12.2668475 24.6050847,13.8596949 22.6751186,13.9332203 C20.5196949,14.0158983 18.7950508,12.2985763 18.795661,10.2154576 C18.7974915,8.10854237 20.534339,6.46688136 22.5219661,6.50166102 Z M24.9455593,10.2154576 C24.9446441,8.87613559 23.8618983,7.78759322 22.5317288,7.78759322 C21.1863051,7.78759322 20.0910508,8.87033898 20.0855593,10.2056949 C20.080678,11.5352542 21.1814237,12.6414915 22.514339,12.6451525 C23.8493898,12.650339 24.9461695,11.552339 24.9455593,10.2154576 Z" id="Shape"></path>
                        <path d="M7.44925424,6.50166102 C9.50277966,6.49952542 11.1694576,8.1579661 11.1642712,10.2102712 C11.1584746,12.2875932 9.52108475,13.845661 7.62498305,13.932 C5.46101695,14.0308475 3.71501695,12.3058983 3.71898305,10.2114915 C3.72325424,8.08962712 5.472,6.46627119 7.44925424,6.50166102 Z M9.87010169,10.2072203 C9.86613559,8.85966102 8.77637288,7.78545763 7.416,7.78789831 C6.10383051,7.79033898 5.00430508,8.89779661 5.00735593,10.2148475 C5.01071186,11.5471525 6.10901695,12.6427119 7.44559322,12.6463729 C8.7739322,12.6494237 9.87345763,11.5431864 9.87010169,10.2072203 Z" id="Shape"></path>
                        <path d="M22.5237966,8.98261017 C23.2047458,8.982 23.7630508,9.54061017 23.7566441,10.2175932 C23.7499322,10.8961017 23.2010847,11.4458644 22.5314237,11.4461695 C21.8419322,11.4461695 21.2875932,10.9012881 21.2891186,10.2261356 C21.290339,9.52566102 21.8288136,8.98322034 22.5237966,8.98261017 Z" id="Shape"></path>
                        <path d="M7.44284746,8.97162712 C8.13416949,8.97101695 8.68972881,9.52322034 8.69247458,10.2124068 C8.69522034,10.8957966 8.13447458,11.4568475 7.44650847,11.4583729 C6.7420678,11.4598983 6.19871186,10.9156271 6.19932203,10.2075254 C6.19932203,9.51223729 6.74145763,8.97254237 7.44284746,8.97162712 Z" id="Shape"></path>
                    </g>
                </g>
            </g>
        </g>
    </g>
</svg>